<svg width="40" height="40" viewBox="0 0 40 40" fill="none" xmlns="http://www.w3.org/2000/svg">
<path d="M10.6001 31.3L11.0168 35L13.7168 32.4333L18.3334 19.7666C17.2001 19.4833 16.2001 18.9166 15.3834 18.1333L10.6001 31.3Z" fill="white"/>
<path d="M24.6167 18.1333C23.8001 18.9166 22.7834 19.4833 21.6667 19.7666L26.2834 32.4333L28.9834 35L29.4167 31.3L24.6167 18.1333Z" fill="white"/>
<path d="M25 13.3333C25 11.1667 23.6 9.33333 21.6667 8.63333V5H18.3333V8.63333C16.4 9.33333 15 11.1667 15 13.3333C15 16.1 17.2333 18.3333 20 18.3333C22.7667 18.3333 25 16.1 25 13.3333ZM20 15C19.0833 15 18.3333 14.25 18.3333 13.3333C18.3333 12.4167 19.0833 11.6667 20 11.6667C20.9167 11.6667 21.6667 12.4167 21.6667 13.3333C21.6667 14.25 20.9167 15 20 15Z" fill="white"/>
</svg>
