<svg width="40" height="40" viewBox="0 0 40 40" fill="none" xmlns="http://www.w3.org/2000/svg">
<path d="M19.9999 3.33337C10.7833 3.33337 3.33325 10.7834 3.33325 20C3.33325 29.2167 10.7833 36.6667 19.9999 36.6667C29.2166 36.6667 36.6666 29.2167 36.6666 20C36.6666 10.7834 29.2166 3.33337 19.9999 3.33337ZM19.9999 33.3334C12.6499 33.3334 6.66659 27.35 6.66659 20C6.66659 12.65 12.6499 6.66671 19.9999 6.66671C27.3499 6.66671 33.3333 12.65 33.3333 20C33.3333 27.35 27.3499 33.3334 19.9999 33.3334ZM25.9833 11.6667L19.9999 17.65L14.0166 11.6667L11.6666 14.0167L17.6499 20L11.6666 25.9834L14.0166 28.3334L19.9999 22.35L25.9833 28.3334L28.3333 25.9834L22.3499 20L28.3333 14.0167L25.9833 11.6667Z" fill="#686868"/>
</svg>
