<svg width="24" height="20" viewBox="0 0 24 20" fill="none" xmlns="http://www.w3.org/2000/svg">
<rect x="1" y="3" width="22" height="16" rx="3" stroke="#3C3C43" stroke-opacity="0.5" stroke-width="2"/>
<path d="M4.79189 7.10986H5.83388V10.9556L9.67959 7.10986H11.1566L7.8749 10.2896L11.2479 15H9.85683L7.09609 11.0415L5.83388 12.25V15H4.79189V7.10986ZM11.6939 7.10986H13.2247L15.4913 13.7808L17.7418 7.10986H19.2564V15H18.2413V10.3433C18.2413 10.1821 18.2449 9.91536 18.2521 9.54297C18.2592 9.17057 18.2628 8.77132 18.2628 8.34521L16.0123 15H14.9542L12.6876 8.34521V8.58691C12.6876 8.78027 12.6912 9.07568 12.6983 9.47314C12.7091 9.86702 12.7145 10.1571 12.7145 10.3433V15H11.6939V7.10986Z" fill="#3C3C43" fill-opacity="0.5"/>
</svg>
