<svg width="22" height="22" viewBox="0 0 22 22" fill="none" xmlns="http://www.w3.org/2000/svg">
<path d="M11.0001 7.33329C8.97425 7.33329 7.33341 8.97413 7.33341 11C7.33341 13.0258 8.97425 14.6666 11.0001 14.6666C13.0259 14.6666 14.6667 13.0258 14.6667 11C14.6667 8.97413 13.0259 7.33329 11.0001 7.33329ZM19.1951 10.0833C18.7734 6.26079 15.7392 3.22663 11.9167 2.80496V0.916626H10.0834V2.80496C6.26091 3.22663 3.22675 6.26079 2.80508 10.0833H0.916748V11.9166H2.80508C3.22675 15.7391 6.26091 18.7733 10.0834 19.195V21.0833H11.9167V19.195C15.7392 18.7733 18.7734 15.7391 19.1951 11.9166H21.0834V10.0833H19.1951ZM11.0001 17.4166C7.45258 17.4166 4.58341 14.5475 4.58341 11C4.58341 7.45246 7.45258 4.58329 11.0001 4.58329C14.5476 4.58329 17.4167 7.45246 17.4167 11C17.4167 14.5475 14.5476 17.4166 11.0001 17.4166Z" fill="#3C3C43" fill-opacity="0.5"/>
</svg>
