<svg width="40" height="40" viewBox="0 0 40 40" fill="none" xmlns="http://www.w3.org/2000/svg">
<path d="M19.9999 3.33337C10.7999 3.33337 3.33325 10.8 3.33325 20C3.33325 29.2 10.7999 36.6667 19.9999 36.6667C29.1999 36.6667 36.6666 29.2 36.6666 20C36.6666 10.8 29.1999 3.33337 19.9999 3.33337ZM32.4333 15.2L27.7999 17.1167C26.9499 14.85 25.1666 13.05 22.8833 12.2167L24.7999 7.58337C28.2999 8.91671 31.0833 11.7 32.4333 15.2ZM19.9999 25C17.2333 25 14.9999 22.7667 14.9999 20C14.9999 17.2334 17.2333 15 19.9999 15C22.7666 15 24.9999 17.2334 24.9999 20C24.9999 22.7667 22.7666 25 19.9999 25ZM15.2166 7.56671L17.1666 12.2C14.8666 13.0334 13.0499 14.85 12.1999 17.15L7.56659 15.2167C8.91659 11.7 11.6999 8.91671 15.2166 7.56671ZM7.56659 24.7834L12.1999 22.8667C13.0499 25.1667 14.8499 26.9667 17.1499 27.8L15.1999 32.4334C11.6999 31.0834 8.91659 28.3 7.56659 24.7834ZM24.7999 32.4334L22.8833 27.8C25.1666 26.95 26.9666 25.15 27.7999 22.85L32.4333 24.8C31.0833 28.3 28.2999 31.0834 24.7999 32.4334Z" fill="white"/>
</svg>
