<svg width="40" height="40" viewBox="0 0 40 40" fill="none" xmlns="http://www.w3.org/2000/svg">
<path d="M33.3334 16.6667H28.3334V14.7667C31.2001 14.0167 33.3334 11.4333 33.3334 8.33333H28.3334V6.66667C28.3334 5.75 27.5834 5 26.6667 5H13.3334C12.4167 5 11.6667 5.75 11.6667 6.66667V8.33333H6.66675C6.66675 11.4333 8.80008 14.0167 11.6667 14.7667V16.6667H6.66675C6.66675 19.7667 8.80008 22.35 11.6667 23.1V25H6.66675C6.66675 28.1 8.80008 30.6833 11.6667 31.4333V33.3333C11.6667 34.25 12.4167 35 13.3334 35H26.6667C27.5834 35 28.3334 34.25 28.3334 33.3333V31.4333C31.2001 30.6833 33.3334 28.1 33.3334 25H28.3334V23.1C31.2001 22.35 33.3334 19.7667 33.3334 16.6667ZM25.0001 31.6667H15.0001V8.33333H25.0001V31.6667ZM20.0001 30C21.3834 30 22.5001 28.8833 22.5001 27.5C22.5001 26.1167 21.3834 25 20.0001 25C18.6167 25 17.5001 26.1167 17.5001 27.5C17.5001 28.8833 18.6167 30 20.0001 30ZM20.0001 22.5C21.3834 22.5 22.5001 21.3833 22.5001 20C22.5001 18.6167 21.3834 17.5 20.0001 17.5C18.6167 17.5 17.5001 18.6167 17.5001 20C17.5001 21.3833 18.6167 22.5 20.0001 22.5ZM20.0001 15C21.3834 15 22.5001 13.8833 22.5001 12.5C22.5001 11.1167 21.3834 10 20.0001 10C18.6167 10 17.5001 11.1167 17.5001 12.5C17.5001 13.8833 18.6167 15 20.0001 15Z" fill="white"/>
</svg>
