<svg width="255" height="225" viewBox="0 0 255 225" fill="none" xmlns="http://www.w3.org/2000/svg">
<g filter="url(#filter0_d)">
<path d="M202 75.0001C202 57.8826 196.145 41.2802 185.406 27.9499C174.668 14.6197 159.693 5.36387 142.967 1.71955C126.242 -1.92477 108.774 0.261728 93.4632 7.91593C78.1524 15.5701 65.9205 28.2314 58.799 43.7972L77.8952 52.534C83.0227 41.3267 91.8297 32.2105 102.853 26.6995C113.877 21.1885 126.455 19.6142 138.497 22.2381C150.539 24.862 161.321 31.5262 169.052 41.124C176.784 50.7217 181 62.6755 181 75.0001H202Z" fill="#24CE85"/>
<path d="M104.191 11.8047L104.684 7.46875H109.465V8.88086H106.072L105.861 10.7148C106.264 10.5 106.691 10.3926 107.145 10.3926C107.957 10.3926 108.594 10.6445 109.055 11.1484C109.516 11.6523 109.746 12.3574 109.746 13.2637C109.746 13.8145 109.629 14.3086 109.395 14.7461C109.164 15.1797 108.832 15.5176 108.398 15.7598C107.965 15.998 107.453 16.1172 106.863 16.1172C106.348 16.1172 105.869 16.0137 105.428 15.8066C104.986 15.5957 104.637 15.3008 104.379 14.9219C104.125 14.543 103.99 14.1113 103.975 13.627H105.65C105.686 13.9824 105.809 14.2598 106.02 14.459C106.234 14.6543 106.514 14.752 106.857 14.752C107.24 14.752 107.535 14.6152 107.742 14.3418C107.949 14.0645 108.053 13.6738 108.053 13.1699C108.053 12.6855 107.934 12.3145 107.695 12.0566C107.457 11.7988 107.119 11.6699 106.682 11.6699C106.279 11.6699 105.953 11.7754 105.703 11.9863L105.539 12.1387L104.191 11.8047ZM111.082 11.8047L111.574 7.46875H116.355V8.88086H112.963L112.752 10.7148C113.154 10.5 113.582 10.3926 114.035 10.3926C114.848 10.3926 115.484 10.6445 115.945 11.1484C116.406 11.6523 116.637 12.3574 116.637 13.2637C116.637 13.8145 116.52 14.3086 116.285 14.7461C116.055 15.1797 115.723 15.5176 115.289 15.7598C114.855 15.998 114.344 16.1172 113.754 16.1172C113.238 16.1172 112.76 16.0137 112.318 15.8066C111.877 15.5957 111.527 15.3008 111.27 14.9219C111.016 14.543 110.881 14.1113 110.865 13.627H112.541C112.576 13.9824 112.699 14.2598 112.91 14.459C113.125 14.6543 113.404 14.752 113.748 14.752C114.131 14.752 114.426 14.6152 114.633 14.3418C114.84 14.0645 114.943 13.6738 114.943 13.1699C114.943 12.6855 114.824 12.3145 114.586 12.0566C114.348 11.7988 114.01 11.6699 113.572 11.6699C113.17 11.6699 112.844 11.7754 112.594 11.9863L112.43 12.1387L111.082 11.8047ZM117.697 9.10938C117.697 8.58594 117.867 8.16211 118.207 7.83789C118.547 7.50977 118.992 7.3457 119.543 7.3457C120.102 7.3457 120.551 7.50781 120.891 7.83203C121.23 8.15234 121.4 8.58789 121.4 9.13867V9.56055C121.4 10.0879 121.23 10.5117 120.891 10.832C120.551 11.1523 120.105 11.3125 119.555 11.3125C119 11.3125 118.551 11.1523 118.207 10.832C117.867 10.5078 117.697 10.0723 117.697 9.52539V9.10938ZM118.822 9.56055C118.822 9.79492 118.889 9.98438 119.021 10.1289C119.158 10.2695 119.336 10.3398 119.555 10.3398C119.773 10.3398 119.947 10.2676 120.076 10.123C120.205 9.97852 120.27 9.78516 120.27 9.54297V9.10938C120.27 8.875 120.205 8.68555 120.076 8.54102C119.947 8.39648 119.77 8.32422 119.543 8.32422C119.328 8.32422 119.154 8.39648 119.021 8.54102C118.889 8.68164 118.822 8.87891 118.822 9.13281V9.56055ZM121.775 13.9082C121.775 13.3809 121.947 12.957 122.291 12.6367C122.635 12.3125 123.08 12.1504 123.627 12.1504C124.182 12.1504 124.629 12.3105 124.969 12.6309C125.312 12.9473 125.484 13.3848 125.484 13.9434V14.3652C125.484 14.8887 125.316 15.3125 124.98 15.6367C124.645 15.957 124.197 16.1172 123.639 16.1172C123.076 16.1172 122.625 15.9551 122.285 15.6309C121.945 15.3066 121.775 14.877 121.775 14.3418V13.9082ZM122.9 14.3652C122.9 14.5801 122.971 14.7637 123.111 14.916C123.252 15.0684 123.428 15.1445 123.639 15.1445C124.115 15.1445 124.354 14.8809 124.354 14.3535V13.9082C124.354 13.6738 124.287 13.4863 124.154 13.3457C124.021 13.2012 123.846 13.1289 123.627 13.1289C123.408 13.1289 123.232 13.2012 123.1 13.3457C122.967 13.4863 122.9 13.6797 122.9 13.9258V14.3652ZM119.889 15.3613L119.062 14.916L123.229 8.24805L124.055 8.69336L119.889 15.3613Z" fill="white"/>
<path d="M170.176 136.326C180.008 129.403 188.032 120.218 193.57 109.546C199.109 98.8727 202 87.0245 202 75.0001H181C181 83.6577 178.918 92.1884 174.931 99.8728C170.943 107.557 165.166 114.17 158.087 119.154L170.176 136.326Z" fill="#4B7594"/>
<path d="M179.053 107H177.359V100.473L175.338 101.1V99.7228L178.871 98.4572H179.053V107ZM182.082 102.805L182.574 98.4689H187.356V99.881H183.963L183.752 101.715C184.154 101.5 184.582 101.393 185.035 101.393C185.848 101.393 186.484 101.645 186.945 102.149C187.406 102.652 187.637 103.358 187.637 104.264C187.637 104.815 187.52 105.309 187.285 105.746C187.055 106.18 186.723 106.518 186.289 106.76C185.856 106.998 185.344 107.117 184.754 107.117C184.238 107.117 183.76 107.014 183.318 106.807C182.877 106.596 182.527 106.301 182.27 105.922C182.016 105.543 181.881 105.111 181.865 104.627H183.541C183.576 104.983 183.699 105.26 183.91 105.459C184.125 105.654 184.404 105.752 184.748 105.752C185.131 105.752 185.426 105.615 185.633 105.342C185.84 105.065 185.943 104.674 185.943 104.17C185.943 103.686 185.824 103.315 185.586 103.057C185.348 102.799 185.01 102.67 184.572 102.67C184.17 102.67 183.844 102.776 183.594 102.986L183.43 103.139L182.082 102.805ZM188.697 100.109C188.697 99.5861 188.867 99.1622 189.207 98.838C189.547 98.5099 189.992 98.3458 190.543 98.3458C191.102 98.3458 191.551 98.5079 191.891 98.8322C192.231 99.1525 192.4 99.588 192.4 100.139V100.561C192.4 101.088 192.231 101.512 191.891 101.832C191.551 102.152 191.106 102.313 190.555 102.313C190 102.313 189.551 102.152 189.207 101.832C188.867 101.508 188.697 101.072 188.697 100.526V100.109ZM189.822 100.561C189.822 100.795 189.889 100.984 190.022 101.129C190.158 101.27 190.336 101.34 190.555 101.34C190.773 101.34 190.947 101.268 191.076 101.123C191.205 100.979 191.27 100.785 191.27 100.543V100.109C191.27 99.8751 191.205 99.6857 191.076 99.5411C190.947 99.3966 190.77 99.3243 190.543 99.3243C190.328 99.3243 190.154 99.3966 190.022 99.5411C189.889 99.6818 189.822 99.879 189.822 100.133V100.561ZM192.775 104.908C192.775 104.381 192.947 103.957 193.291 103.637C193.635 103.313 194.08 103.151 194.627 103.151C195.182 103.151 195.629 103.311 195.969 103.631C196.313 103.947 196.484 104.385 196.484 104.943V105.365C196.484 105.889 196.316 106.313 195.981 106.637C195.645 106.957 195.197 107.117 194.639 107.117C194.076 107.117 193.625 106.955 193.285 106.631C192.945 106.307 192.775 105.877 192.775 105.342V104.908ZM193.9 105.365C193.9 105.58 193.971 105.764 194.111 105.916C194.252 106.068 194.428 106.145 194.639 106.145C195.115 106.145 195.354 105.881 195.354 105.354V104.908C195.354 104.674 195.287 104.486 195.154 104.346C195.022 104.201 194.846 104.129 194.627 104.129C194.408 104.129 194.232 104.201 194.1 104.346C193.967 104.486 193.9 104.68 193.9 104.926V105.365ZM190.889 106.361L190.063 105.916L194.229 99.2482L195.055 99.6935L190.889 106.361Z" fill="white"/>
<path d="M58.0145 104.428C62.4003 114.709 69.0287 123.88 77.4149 131.27C85.8011 138.66 95.7331 144.082 106.484 147.14C117.236 150.197 128.534 150.813 139.554 148.942C150.574 147.071 161.037 142.76 170.176 136.325L158.087 119.154C151.506 123.787 143.973 126.891 136.039 128.238C128.105 129.585 119.97 129.142 112.229 126.941C104.488 124.739 97.3368 120.835 91.2987 115.515C85.2607 110.194 80.4882 103.591 77.3304 96.1882L58.0145 104.428Z" fill="#EF4F2B"/>
<path d="M103.662 135.984H104.564C104.994 135.984 105.312 135.877 105.52 135.662C105.727 135.447 105.83 135.162 105.83 134.807C105.83 134.463 105.727 134.195 105.52 134.004C105.316 133.813 105.035 133.717 104.676 133.717C104.352 133.717 104.08 133.807 103.861 133.986C103.643 134.162 103.533 134.393 103.533 134.678H101.84C101.84 134.232 101.959 133.834 102.197 133.482C102.439 133.127 102.775 132.85 103.205 132.65C103.639 132.451 104.115 132.352 104.635 132.352C105.537 132.352 106.244 132.568 106.756 133.002C107.268 133.432 107.523 134.025 107.523 134.783C107.523 135.174 107.404 135.533 107.166 135.861C106.928 136.19 106.615 136.441 106.229 136.617C106.709 136.789 107.066 137.047 107.301 137.391C107.539 137.734 107.658 138.141 107.658 138.609C107.658 139.367 107.381 139.975 106.826 140.432C106.275 140.889 105.545 141.117 104.635 141.117C103.783 141.117 103.086 140.893 102.543 140.443C102.004 139.994 101.734 139.4 101.734 138.662H103.428C103.428 138.982 103.547 139.244 103.785 139.447C104.027 139.65 104.324 139.752 104.676 139.752C105.078 139.752 105.393 139.647 105.619 139.436C105.85 139.221 105.965 138.938 105.965 138.586C105.965 137.734 105.496 137.309 104.559 137.309H103.662V135.984ZM114.572 137.473C114.572 138.652 114.328 139.555 113.84 140.18C113.352 140.805 112.637 141.117 111.695 141.117C110.766 141.117 110.055 140.811 109.562 140.197C109.07 139.584 108.818 138.705 108.807 137.561V135.99C108.807 134.799 109.053 133.895 109.545 133.277C110.041 132.66 110.754 132.352 111.684 132.352C112.613 132.352 113.324 132.658 113.816 133.272C114.309 133.881 114.561 134.758 114.572 135.902V137.473ZM112.879 135.75C112.879 135.043 112.781 134.529 112.586 134.209C112.395 133.885 112.094 133.723 111.684 133.723C111.285 133.723 110.99 133.877 110.799 134.186C110.611 134.49 110.512 134.969 110.5 135.621V137.695C110.5 138.391 110.594 138.908 110.781 139.248C110.973 139.584 111.277 139.752 111.695 139.752C112.109 139.752 112.408 139.59 112.592 139.266C112.775 138.941 112.871 138.445 112.879 137.777V135.75ZM115.697 134.109C115.697 133.586 115.867 133.162 116.207 132.838C116.547 132.51 116.992 132.346 117.543 132.346C118.102 132.346 118.551 132.508 118.891 132.832C119.23 133.152 119.4 133.588 119.4 134.139V134.561C119.4 135.088 119.23 135.512 118.891 135.832C118.551 136.152 118.105 136.313 117.555 136.313C117 136.313 116.551 136.152 116.207 135.832C115.867 135.508 115.697 135.072 115.697 134.525V134.109ZM116.822 134.561C116.822 134.795 116.889 134.984 117.021 135.129C117.158 135.27 117.336 135.34 117.555 135.34C117.773 135.34 117.947 135.268 118.076 135.123C118.205 134.979 118.27 134.785 118.27 134.543V134.109C118.27 133.875 118.205 133.686 118.076 133.541C117.947 133.397 117.77 133.324 117.543 133.324C117.328 133.324 117.154 133.397 117.021 133.541C116.889 133.682 116.822 133.879 116.822 134.133V134.561ZM119.775 138.908C119.775 138.381 119.947 137.957 120.291 137.637C120.635 137.313 121.08 137.15 121.627 137.15C122.182 137.15 122.629 137.311 122.969 137.631C123.312 137.947 123.484 138.385 123.484 138.943V139.365C123.484 139.889 123.316 140.313 122.98 140.637C122.645 140.957 122.197 141.117 121.639 141.117C121.076 141.117 120.625 140.955 120.285 140.631C119.945 140.307 119.775 139.877 119.775 139.342V138.908ZM120.9 139.365C120.9 139.58 120.971 139.764 121.111 139.916C121.252 140.068 121.428 140.145 121.639 140.145C122.115 140.145 122.354 139.881 122.354 139.354V138.908C122.354 138.674 122.287 138.486 122.154 138.346C122.021 138.201 121.846 138.129 121.627 138.129C121.408 138.129 121.232 138.201 121.1 138.346C120.967 138.486 120.9 138.68 120.9 138.926V139.365ZM117.889 140.361L117.062 139.916L121.229 133.248L122.055 133.693L117.889 140.361Z" fill="white"/>
<path d="M58.799 43.7972C54.4549 53.292 52.1414 63.5893 52.0063 74.0298C51.8712 84.4704 53.9176 94.8241 58.0145 104.428L77.3305 96.1883C74.3807 89.2734 72.9073 81.8187 73.0045 74.3015C73.1018 66.7843 74.7676 59.3703 77.8953 52.534L58.799 43.7972Z" fill="#24CE85"/>
</g>
<path d="M3.44607 203H5.11723V198.831C5.11723 197.931 5.79585 197.294 6.71453 197.294C6.99614 197.294 7.34699 197.345 7.4901 197.391V195.854C7.33776 195.826 7.07462 195.808 6.88996 195.808C6.07746 195.808 5.39884 196.269 5.14031 197.091H5.06645V195.909H3.44607V203ZM11.4476 203.138C13.1003 203.138 14.2359 202.331 14.5314 201.098L12.971 200.923C12.7448 201.523 12.1908 201.837 11.4707 201.837C10.3904 201.837 9.67485 201.126 9.661 199.912H14.6006V199.399C14.6006 196.911 13.1049 195.817 11.3599 195.817C9.32861 195.817 8.00368 197.308 8.00368 199.496C8.00368 201.721 9.31015 203.138 11.4476 203.138ZM9.66562 198.785C9.7164 197.88 10.3858 197.119 11.3829 197.119C12.3432 197.119 12.9895 197.82 12.9987 198.785H9.66562ZM21.6188 197.783C21.388 196.583 20.4278 195.817 18.7658 195.817C17.0578 195.817 15.8944 196.657 15.899 197.968C15.8944 199.002 16.5315 199.685 17.8933 199.967L19.1028 200.221C19.7538 200.364 20.0585 200.627 20.0585 201.029C20.0585 201.513 19.5322 201.878 18.7381 201.878C17.9718 201.878 17.4732 201.546 17.3301 200.909L15.7005 201.066C15.9082 202.368 17.0024 203.138 18.7428 203.138C20.5155 203.138 21.7666 202.22 21.7712 200.876C21.7666 199.865 21.1156 199.247 19.7769 198.956L18.5673 198.697C17.8472 198.536 17.5609 198.287 17.5656 197.876C17.5609 197.396 18.0918 197.063 18.7889 197.063C19.5599 197.063 19.9661 197.483 20.0954 197.95L21.6188 197.783ZM26.2884 203.138C27.9411 203.138 29.0767 202.331 29.3722 201.098L27.8118 200.923C27.5856 201.523 27.0316 201.837 26.3115 201.837C25.2312 201.837 24.5157 201.126 24.5018 199.912H29.4415V199.399C29.4415 196.911 27.9457 195.817 26.2007 195.817C24.1694 195.817 22.8445 197.308 22.8445 199.496C22.8445 201.721 24.151 203.138 26.2884 203.138ZM24.5064 198.785C24.5572 197.88 25.2266 197.119 26.2238 197.119C27.184 197.119 27.8303 197.82 27.8395 198.785H24.5064ZM30.8552 203H32.5264V198.831C32.5264 197.931 33.205 197.294 34.1237 197.294C34.4053 197.294 34.7562 197.345 34.8993 197.391V195.854C34.7469 195.826 34.4838 195.808 34.2991 195.808C33.4866 195.808 32.808 196.269 32.5495 197.091H32.4756V195.909H30.8552V203ZM42.5592 195.909H40.7818L39.1476 201.176H39.0737L37.4441 195.909H35.6622L38.1874 203H40.034L42.5592 195.909ZM45.553 203.143C46.6655 203.143 47.3303 202.621 47.635 202.026H47.6904V203H49.2969V198.254C49.2969 196.38 47.7689 195.817 46.4162 195.817C44.9251 195.817 43.7802 196.482 43.4109 197.774L44.9713 197.996C45.1375 197.511 45.6084 197.096 46.4255 197.096C47.201 197.096 47.6258 197.493 47.6258 198.19V198.217C47.6258 198.697 47.1226 198.721 45.8715 198.854C44.4958 199.002 43.1801 199.413 43.1801 201.01C43.1801 202.404 44.2003 203.143 45.553 203.143ZM45.9869 201.915C45.2898 201.915 44.7912 201.597 44.7912 200.983C44.7912 200.341 45.3498 200.073 46.0977 199.967C46.5363 199.907 47.4134 199.796 47.6304 199.621V200.456C47.6304 201.246 46.9933 201.915 45.9869 201.915ZM54.2019 205.659H55.8731V201.883H55.9423C56.2055 202.4 56.7548 203.125 57.9736 203.125C59.6448 203.125 60.8958 201.8 60.8958 199.464C60.8958 197.1 59.6078 195.817 57.969 195.817C56.7179 195.817 56.1962 196.569 55.9423 197.082H55.8454V195.909H54.2019V205.659ZM55.8408 199.455C55.8408 198.079 56.4317 197.188 57.5073 197.188C58.6199 197.188 59.1923 198.134 59.1923 199.455C59.1923 200.784 58.6107 201.754 57.5073 201.754C56.4409 201.754 55.8408 200.83 55.8408 199.455ZM64.3674 203.143C65.48 203.143 66.1448 202.621 66.4494 202.026H66.5048V203H68.1114V198.254C68.1114 196.38 66.5833 195.817 65.2307 195.817C63.7396 195.817 62.5947 196.482 62.2254 197.774L63.7857 197.996C63.9519 197.511 64.4228 197.096 65.2399 197.096C66.0155 197.096 66.4402 197.493 66.4402 198.19V198.217C66.4402 198.697 65.937 198.721 64.6859 198.854C63.3102 199.002 61.9945 199.413 61.9945 201.01C61.9945 202.404 63.0148 203.143 64.3674 203.143ZM64.8014 201.915C64.1043 201.915 63.6057 201.597 63.6057 200.983C63.6057 200.341 64.1643 200.073 64.9122 199.967C65.3507 199.907 66.2278 199.796 66.4448 199.621V200.456C66.4448 201.246 65.8078 201.915 64.8014 201.915ZM69.7918 203H71.4629V198.831C71.4629 197.931 72.1416 197.294 73.0602 197.294C73.3418 197.294 73.6927 197.345 73.8358 197.391V195.854C73.6835 195.826 73.4203 195.808 73.2357 195.808C72.4232 195.808 71.7445 196.269 71.486 197.091H71.4122V195.909H69.7918V203ZM76.8469 203.143C77.9595 203.143 78.6242 202.621 78.9289 202.026H78.9843V203H80.5909V198.254C80.5909 196.38 79.0628 195.817 77.7102 195.817C76.2191 195.817 75.0742 196.482 74.7049 197.774L76.2652 197.996C76.4314 197.511 76.9023 197.096 77.7194 197.096C78.495 197.096 78.9197 197.493 78.9197 198.19V198.217C78.9197 198.697 78.4165 198.721 77.1654 198.854C75.7897 199.002 74.474 199.413 74.474 201.01C74.474 202.404 75.4943 203.143 76.8469 203.143ZM77.2809 201.915C76.5838 201.915 76.0852 201.597 76.0852 200.983C76.0852 200.341 76.6438 200.073 77.3916 199.967C77.8302 199.907 78.7073 199.796 78.9243 199.621V200.456C78.9243 201.246 78.2872 201.915 77.2809 201.915ZM8.97199 219.138C10.6247 219.138 11.7603 218.331 12.0558 217.098L10.4954 216.923C10.2692 217.523 9.71524 217.837 8.99507 217.837C7.91482 217.837 7.19926 217.126 7.18541 215.912H12.125V215.399C12.125 212.911 10.6293 211.817 8.88428 211.817C6.85303 211.817 5.5281 213.308 5.5281 215.496C5.5281 217.721 6.83456 219.138 8.97199 219.138ZM7.19003 214.785C7.24081 213.88 7.9102 213.119 8.90736 213.119C9.86759 213.119 10.5139 213.82 10.5231 214.785H7.19003ZM13.5388 219H15.21V214.688C15.21 213.816 15.7917 213.225 16.5119 213.225C17.2182 213.225 17.7029 213.7 17.7029 214.43V219H19.3418V214.577C19.3418 213.779 19.8172 213.225 20.6251 213.225C21.2991 213.225 21.8347 213.622 21.8347 214.499V219H23.5104V214.24C23.5104 212.657 22.5964 211.817 21.2945 211.817C20.265 211.817 19.4802 212.325 19.1663 213.114H19.0925C18.8201 212.311 18.1322 211.817 17.1766 211.817C16.2256 211.817 15.5147 212.306 15.2192 213.114H15.1361V211.909H13.5388V219ZM28.345 219.138C29.9977 219.138 31.1334 218.331 31.4288 217.098L29.8685 216.923C29.6423 217.523 29.0883 217.837 28.3681 217.837C27.2879 217.837 26.5723 217.126 26.5585 215.912H31.4981V215.399C31.4981 212.911 30.0024 211.817 28.2573 211.817C26.2261 211.817 24.9011 213.308 24.9011 215.496C24.9011 217.721 26.2076 219.138 28.345 219.138ZM26.5631 214.785C26.6139 213.88 27.2832 213.119 28.2804 213.119C29.2406 213.119 29.8869 213.82 29.8962 214.785H26.5631ZM32.9119 219H34.5831V214.831C34.5831 213.931 35.2617 213.294 36.1804 213.294C36.462 213.294 36.8128 213.345 36.9559 213.391V211.854C36.8036 211.826 36.5404 211.808 36.3558 211.808C35.5433 211.808 34.8647 212.269 34.6061 213.091H34.5323V211.909H32.9119V219ZM40.858 221.807C42.7738 221.807 44.1865 220.93 44.1865 219.115V211.909H42.5384V213.082H42.4461C42.1922 212.569 41.6613 211.817 40.4102 211.817C38.7714 211.817 37.4834 213.1 37.4834 215.431C37.4834 217.744 38.7714 218.898 40.4056 218.898C41.6197 218.898 42.1875 218.248 42.4461 217.726H42.5292V219.069C42.5292 220.113 41.8367 220.542 40.8857 220.542C39.8793 220.542 39.4361 220.066 39.233 219.651L37.728 220.016C38.0327 221.008 39.053 221.807 40.858 221.807ZM40.8718 217.587C39.7685 217.587 39.1868 216.729 39.1868 215.422C39.1868 214.134 39.7593 213.188 40.8718 213.188C41.9475 213.188 42.5384 214.079 42.5384 215.422C42.5384 216.775 41.9383 217.587 40.8718 217.587ZM49.0384 219.138C50.6911 219.138 51.8267 218.331 52.1222 217.098L50.5618 216.923C50.3356 217.523 49.7816 217.837 49.0615 217.837C47.9812 217.837 47.2657 217.126 47.2518 215.912H52.1915V215.399C52.1915 212.911 50.6957 211.817 48.9507 211.817C46.9194 211.817 45.5945 213.308 45.5945 215.496C45.5945 217.721 46.901 219.138 49.0384 219.138ZM47.9674 211.06L48.9045 209.878L49.8417 211.06H51.3051V210.995L49.5601 209.001H48.2536L46.504 210.995V211.06H47.9674ZM47.2564 214.785C47.3072 213.88 47.9766 213.119 48.9738 213.119C49.934 213.119 50.5803 213.82 50.5895 214.785H47.2564ZM55.2764 214.845C55.2764 213.82 55.895 213.229 56.7768 213.229C57.64 213.229 58.1571 213.797 58.1571 214.744V219H59.8283V214.485C59.8329 212.786 58.8634 211.817 57.4 211.817C56.3382 211.817 55.6088 212.325 55.2856 213.114H55.2025V211.909H53.6052V219H55.2764V214.845ZM64.6202 219.138C66.4021 219.138 67.5378 218.081 67.6578 216.576H66.0605C65.9174 217.338 65.368 217.777 64.634 217.777C63.5907 217.777 62.9167 216.904 62.9167 215.455C62.9167 214.023 63.6045 213.165 64.634 213.165C65.4373 213.165 65.9312 213.682 66.0605 214.365H67.6578C67.5424 212.828 66.3421 211.817 64.6109 211.817C62.5335 211.817 61.2224 213.317 61.2224 215.482C61.2224 217.629 62.5012 219.138 64.6202 219.138ZM69.0301 219H70.7012V211.909H69.0301V219ZM69.8703 210.903C70.4011 210.903 70.8351 210.496 70.8351 209.998C70.8351 209.495 70.4011 209.088 69.8703 209.088C69.3347 209.088 68.9008 209.495 68.9008 209.998C68.9008 210.496 69.3347 210.903 69.8703 210.903ZM74.4602 219.143C75.5728 219.143 76.2375 218.621 76.5422 218.026H76.5976V219H78.2041V214.254C78.2041 212.38 76.6761 211.817 75.3235 211.817C73.8323 211.817 72.6875 212.482 72.3181 213.774L73.8785 213.996C74.0447 213.511 74.5156 213.096 75.3327 213.096C76.1083 213.096 76.533 213.493 76.533 214.19V214.217C76.533 214.697 76.0298 214.721 74.7787 214.854C73.403 215.002 72.0873 215.413 72.0873 217.01C72.0873 218.404 73.1076 219.143 74.4602 219.143ZM74.8941 217.915C74.197 217.915 73.6985 217.597 73.6985 216.983C73.6985 216.341 74.2571 216.073 75.0049 215.967C75.4435 215.907 76.3206 215.796 76.5376 215.621V216.456C76.5376 217.246 75.9005 217.915 74.8941 217.915Z" fill="black"/>
<path d="M21 184.5C21 181.462 23.4624 179 26.5 179H57.5C60.5376 179 63 181.462 63 184.5V184.5C63 187.538 60.5376 190 57.5 190H26.5C23.4624 190 21 187.538 21 184.5V184.5Z" fill="#24CE85"/>
<path d="M120.813 203H122.484V198.831C122.484 197.931 123.163 197.294 124.082 197.294C124.363 197.294 124.714 197.345 124.857 197.391V195.854C124.705 195.826 124.442 195.808 124.257 195.808C123.445 195.808 122.766 196.269 122.508 197.091H122.434V195.909H120.813V203ZM125.968 203H127.639V195.909H125.968V203ZM126.808 194.903C127.339 194.903 127.773 194.496 127.773 193.998C127.773 193.495 127.339 193.088 126.808 193.088C126.272 193.088 125.838 193.495 125.838 193.998C125.838 194.496 126.272 194.903 126.808 194.903ZM134.962 197.783C134.731 196.583 133.771 195.817 132.109 195.817C130.401 195.817 129.237 196.657 129.242 197.968C129.237 199.002 129.874 199.685 131.236 199.967L132.446 200.221C133.097 200.364 133.401 200.627 133.401 201.029C133.401 201.513 132.875 201.878 132.081 201.878C131.315 201.878 130.816 201.546 130.673 200.909L129.043 201.066C129.251 202.368 130.345 203.138 132.086 203.138C133.858 203.138 135.109 202.22 135.114 200.876C135.109 199.865 134.458 199.247 133.12 198.956L131.91 198.697C131.19 198.536 130.904 198.287 130.908 197.876C130.904 197.396 131.435 197.063 132.132 197.063C132.903 197.063 133.309 197.483 133.438 197.95L134.962 197.783ZM139.585 203.138C141.367 203.138 142.503 202.081 142.623 200.576H141.025C140.882 201.338 140.333 201.777 139.599 201.777C138.556 201.777 137.882 200.904 137.882 199.455C137.882 198.023 138.569 197.165 139.599 197.165C140.402 197.165 140.896 197.682 141.025 198.365H142.623C142.507 196.828 141.307 195.817 139.576 195.817C137.498 195.817 136.187 197.317 136.187 199.482C136.187 201.629 137.466 203.138 139.585 203.138ZM147.088 203.138C149.165 203.138 150.486 201.675 150.486 199.482C150.486 197.285 149.165 195.817 147.088 195.817C145.011 195.817 143.69 197.285 143.69 199.482C143.69 201.675 145.011 203.138 147.088 203.138ZM147.097 201.8C145.948 201.8 145.384 200.775 145.384 199.478C145.384 198.18 145.948 197.142 147.097 197.142C148.228 197.142 148.791 198.18 148.791 199.478C148.791 200.775 148.228 201.8 147.097 201.8ZM119.434 219H121.077V217.883H121.174C121.437 218.4 121.986 219.125 123.205 219.125C124.876 219.125 126.127 217.8 126.127 215.464C126.127 213.1 124.839 211.817 123.201 211.817C121.949 211.817 121.428 212.569 121.174 213.082H121.105V209.545H119.434V219ZM121.072 215.455C121.072 214.079 121.663 213.188 122.739 213.188C123.851 213.188 124.424 214.134 124.424 215.455C124.424 216.784 123.842 217.754 122.739 217.754C121.672 217.754 121.072 216.83 121.072 215.455ZM129.589 219.143C130.701 219.143 131.366 218.621 131.671 218.026H131.726V219H133.333V214.254C133.333 212.38 131.805 211.817 130.452 211.817C128.961 211.817 127.816 212.482 127.447 213.774L129.007 213.996C129.173 213.511 129.644 213.096 130.461 213.096C131.237 213.096 131.661 213.493 131.661 214.19V214.217C131.661 214.697 131.158 214.721 129.907 214.854C128.531 215.002 127.216 215.413 127.216 217.01C127.216 218.404 128.236 219.143 129.589 219.143ZM130.023 217.915C129.325 217.915 128.827 217.597 128.827 216.983C128.827 216.341 129.385 216.073 130.133 215.967C130.572 215.907 131.449 215.796 131.666 215.621V216.456C131.666 217.246 131.029 217.915 130.023 217.915ZM135.013 219H136.684V211.909H135.013V219ZM135.853 210.903C136.384 210.903 136.818 210.496 136.818 209.998C136.818 209.495 136.384 209.088 135.853 209.088C135.318 209.088 134.884 209.495 134.884 209.998C134.884 210.496 135.318 210.903 135.853 210.903ZM139.769 211.909H137.996L140.101 215.455L137.941 219H139.714L141.2 216.447L142.701 219H144.459L142.285 215.455L144.422 211.909H142.654L141.2 214.527L139.769 211.909ZM148.542 219.138C150.619 219.138 151.939 217.675 151.939 215.482C151.939 213.285 150.619 211.817 148.542 211.817C146.464 211.817 145.144 213.285 145.144 215.482C145.144 217.675 146.464 219.138 148.542 219.138ZM148.551 217.8C147.401 217.8 146.838 216.775 146.838 215.478C146.838 214.18 147.401 213.142 148.551 213.142C149.682 213.142 150.245 214.18 150.245 215.478C150.245 216.775 149.682 217.8 148.551 217.8Z" fill="black"/>
<path d="M114 184.5C114 181.462 116.462 179 119.5 179H150.5C153.538 179 156 181.462 156 184.5V184.5C156 187.538 153.538 190 150.5 190H119.5C116.462 190 114 187.538 114 184.5V184.5Z" fill="#4B7594"/>
<path d="M206.313 203H207.984V198.831C207.984 197.931 208.663 197.294 209.582 197.294C209.863 197.294 210.214 197.345 210.357 197.391V195.854C210.205 195.826 209.942 195.808 209.757 195.808C208.945 195.808 208.266 196.269 208.008 197.091H207.934V195.909H206.313V203ZM211.468 203H213.139V195.909H211.468V203ZM212.308 194.903C212.839 194.903 213.273 194.496 213.273 193.998C213.273 193.495 212.839 193.088 212.308 193.088C211.772 193.088 211.338 193.495 211.338 193.998C211.338 194.496 211.772 194.903 212.308 194.903ZM220.462 197.783C220.231 196.583 219.271 195.817 217.609 195.817C215.901 195.817 214.737 196.657 214.742 197.968C214.737 199.002 215.374 199.685 216.736 199.967L217.946 200.221C218.597 200.364 218.901 200.627 218.901 201.029C218.901 201.513 218.375 201.878 217.581 201.878C216.815 201.878 216.316 201.546 216.173 200.909L214.543 201.066C214.751 202.368 215.845 203.138 217.586 203.138C219.358 203.138 220.609 202.22 220.614 200.876C220.609 199.865 219.958 199.247 218.62 198.956L217.41 198.697C216.69 198.536 216.404 198.287 216.408 197.876C216.404 197.396 216.935 197.063 217.632 197.063C218.403 197.063 218.809 197.483 218.938 197.95L220.462 197.783ZM225.085 203.138C226.867 203.138 228.003 202.081 228.123 200.576H226.525C226.382 201.338 225.833 201.777 225.099 201.777C224.056 201.777 223.382 200.904 223.382 199.455C223.382 198.023 224.069 197.165 225.099 197.165C225.902 197.165 226.396 197.682 226.525 198.365H228.123C228.007 196.828 226.807 195.817 225.076 195.817C222.998 195.817 221.687 197.317 221.687 199.482C221.687 201.629 222.966 203.138 225.085 203.138ZM232.588 203.138C234.665 203.138 235.986 201.675 235.986 199.482C235.986 197.285 234.665 195.817 232.588 195.817C230.511 195.817 229.19 197.285 229.19 199.482C229.19 201.675 230.511 203.138 232.588 203.138ZM232.597 201.8C231.448 201.8 230.884 200.775 230.884 199.478C230.884 198.18 231.448 197.142 232.597 197.142C233.728 197.142 234.291 198.18 234.291 199.478C234.291 200.775 233.728 201.8 232.597 201.8ZM189.835 219H191.506V214.688C191.506 213.816 192.088 213.225 192.808 213.225C193.514 213.225 193.999 213.7 193.999 214.43V219H195.638V214.577C195.638 213.779 196.113 213.225 196.921 213.225C197.595 213.225 198.131 213.622 198.131 214.499V219H199.806V214.24C199.806 212.657 198.892 211.817 197.59 211.817C196.561 211.817 195.776 212.325 195.462 213.114H195.388C195.116 212.311 194.428 211.817 193.473 211.817C192.522 211.817 191.811 212.306 191.515 213.114H191.432V211.909H189.835V219ZM204.595 219.138C206.672 219.138 207.992 217.675 207.992 215.482C207.992 213.285 206.672 211.817 204.595 211.817C202.517 211.817 201.197 213.285 201.197 215.482C201.197 217.675 202.517 219.138 204.595 219.138ZM204.604 217.8C203.455 217.8 202.891 216.775 202.891 215.478C202.891 214.18 203.455 213.142 204.604 213.142C205.735 213.142 206.298 214.18 206.298 215.478C206.298 216.775 205.735 217.8 204.604 217.8ZM212.042 219.125C213.261 219.125 213.81 218.4 214.074 217.883H214.175V219H215.819V209.545H214.143V213.082H214.074C213.82 212.569 213.298 211.817 212.047 211.817C210.408 211.817 209.12 213.1 209.12 215.464C209.12 217.8 210.371 219.125 212.042 219.125ZM212.509 217.754C211.405 217.754 210.824 216.784 210.824 215.455C210.824 214.134 211.396 213.188 212.509 213.188C213.584 213.188 214.175 214.079 214.175 215.455C214.175 216.83 213.575 217.754 212.509 217.754ZM220.739 219.138C222.391 219.138 223.527 218.331 223.822 217.098L222.262 216.923C222.036 217.523 221.482 217.837 220.762 217.837C219.681 217.837 218.966 217.126 218.952 215.912H223.892V215.399C223.892 212.911 222.396 211.817 220.651 211.817C218.62 211.817 217.295 213.308 217.295 215.496C217.295 217.721 218.601 219.138 220.739 219.138ZM218.957 214.785C219.007 213.88 219.677 213.119 220.674 213.119C221.634 213.119 222.28 213.82 222.29 214.785H218.957ZM225.305 219H226.977V214.831C226.977 213.931 227.655 213.294 228.574 213.294C228.856 213.294 229.206 213.345 229.349 213.391V211.854C229.197 211.826 228.934 211.808 228.749 211.808C227.937 211.808 227.258 212.269 227 213.091H226.926V211.909H225.305V219ZM232.361 219.143C233.473 219.143 234.138 218.621 234.443 218.026H234.498V219H236.105V214.254C236.105 212.38 234.576 211.817 233.224 211.817C231.733 211.817 230.588 212.482 230.219 213.774L231.779 213.996C231.945 213.511 232.416 213.096 233.233 213.096C234.009 213.096 234.433 213.493 234.433 214.19V214.217C234.433 214.697 233.93 214.721 232.679 214.854C231.303 215.002 229.988 215.413 229.988 217.01C229.988 218.404 231.008 219.143 232.361 219.143ZM232.795 217.915C232.097 217.915 231.599 217.597 231.599 216.983C231.599 216.341 232.157 216.073 232.905 215.967C233.344 215.907 234.221 215.796 234.438 215.621V216.456C234.438 217.246 233.801 217.915 232.795 217.915ZM240.416 219.125C241.635 219.125 242.184 218.4 242.448 217.883H242.549V219H244.193V209.545H242.517V213.082H242.448C242.194 212.569 241.672 211.817 240.421 211.817C238.782 211.817 237.494 213.1 237.494 215.464C237.494 217.8 238.745 219.125 240.416 219.125ZM240.883 217.754C239.779 217.754 239.198 216.784 239.198 215.455C239.198 214.134 239.77 213.188 240.883 213.188C241.958 213.188 242.549 214.079 242.549 215.455C242.549 216.83 241.949 217.754 240.883 217.754ZM249.066 219.138C251.144 219.138 252.464 217.675 252.464 215.482C252.464 213.285 251.144 211.817 249.066 211.817C246.989 211.817 245.669 213.285 245.669 215.482C245.669 217.675 246.989 219.138 249.066 219.138ZM249.076 217.8C247.926 217.8 247.363 216.775 247.363 215.478C247.363 214.18 247.926 213.142 249.076 213.142C250.207 213.142 250.77 214.18 250.77 215.478C250.77 216.775 250.207 217.8 249.076 217.8Z" fill="black"/>
<path d="M200 184.5C200 181.462 202.462 179 205.5 179H236.5C239.538 179 242 181.462 242 184.5V184.5C242 187.538 239.538 190 236.5 190H205.5C202.462 190 200 187.538 200 184.5V184.5Z" fill="#EF4F2B"/>
<defs>
<filter id="filter0_d" x="48" y="0" width="158" height="158" filterUnits="userSpaceOnUse" color-interpolation-filters="sRGB">
<feFlood flood-opacity="0" result="BackgroundImageFix"/>
<feColorMatrix in="SourceAlpha" type="matrix" values="0 0 0 0 0 0 0 0 0 0 0 0 0 0 0 0 0 0 127 0"/>
<feOffset dy="4"/>
<feGaussianBlur stdDeviation="2"/>
<feColorMatrix type="matrix" values="0 0 0 0 0 0 0 0 0 0 0 0 0 0 0 0 0 0 0.25 0"/>
<feBlend mode="normal" in2="BackgroundImageFix" result="effect1_dropShadow"/>
<feBlend mode="normal" in="SourceGraphic" in2="effect1_dropShadow" result="shape"/>
</filter>
</defs>
</svg>
