<svg width="375" height="608" viewBox="0 0 375 608" fill="none" xmlns="http://www.w3.org/2000/svg">
<rect y="367" width="375" height="38" fill="white"/>
<line x1="17" y1="454.5" x2="360" y2="454.5" stroke="#E8E8E8"/>
<circle cx="25" cy="430" r="8" fill="#24CE85"/>
<line x1="17" y1="505.5" x2="360" y2="505.5" stroke="#E8E8E8"/>
<circle cx="25" cy="481" r="8" fill="#4B7594"/>
<line x1="17" y1="556.5" x2="360" y2="556.5" stroke="#E8E8E8"/>
<circle cx="25" cy="532" r="8" fill="#4B7594"/>
<line x1="17" y1="607.5" x2="360" y2="607.5" stroke="#E8E8E8"/>
<circle cx="25" cy="583" r="8" fill="#EF4F2B"/>
<path d="M308.64 588.159C311.129 588.159 312.941 586.733 312.935 584.767C312.941 583.312 312.032 582.267 310.401 582.034V581.943C311.663 581.67 312.509 580.733 312.504 579.426C312.509 577.653 310.998 576.205 308.674 576.205C306.413 576.205 304.663 577.551 304.617 579.5H306.646C306.68 578.523 307.589 577.915 308.663 577.915C309.748 577.915 310.469 578.574 310.464 579.551C310.469 580.568 309.629 581.244 308.424 581.244H307.396V582.869H308.424C309.896 582.869 310.771 583.608 310.765 584.659C310.771 585.688 309.879 586.392 308.634 586.392C307.464 586.392 306.56 585.784 306.509 584.835H304.373C304.43 586.801 306.185 588.159 308.64 588.159ZM315.832 588.125C316.502 588.125 317.076 587.568 317.082 586.875C317.076 586.193 316.502 585.636 315.832 585.636C315.138 585.636 314.576 586.193 314.582 586.875C314.576 587.568 315.138 588.125 315.832 588.125ZM322.478 576.364H320.472L317.58 578.222V580.153L320.302 578.415H320.37V588H322.478V576.364ZM329.734 588.222C332.54 588.227 334.217 586.011 334.217 582.193C334.217 578.398 332.529 576.205 329.734 576.205C326.938 576.205 325.256 578.392 325.251 582.193C325.251 586.006 326.927 588.222 329.734 588.222ZM329.734 586.443C328.285 586.443 327.376 584.989 327.381 582.193C327.387 579.42 328.29 577.96 329.734 577.96C331.183 577.96 332.086 579.42 332.092 582.193C332.092 584.989 331.188 586.443 329.734 586.443ZM342.326 585.818C342.332 587.17 343.19 588.324 344.786 588.324C346.377 588.324 347.252 587.17 347.246 585.818V585.205C347.252 583.841 346.4 582.699 344.786 582.699C343.212 582.699 342.332 583.852 342.326 585.205V585.818ZM336.411 579.159C336.417 580.511 337.275 581.653 338.877 581.653C340.462 581.653 341.337 580.523 341.332 579.159V578.545C341.337 577.182 340.485 576.04 338.877 576.04C337.309 576.04 336.417 577.182 336.411 578.545V579.159ZM336.923 588H338.349L346.349 576.364H344.923L336.923 588ZM343.809 585.205C343.815 584.602 344.07 583.994 344.786 583.994C345.536 583.994 345.758 584.602 345.752 585.205V585.818C345.758 586.42 345.513 587.017 344.786 587.017C344.059 587.017 343.815 586.415 343.809 585.818V585.205ZM337.906 578.545C337.911 577.949 338.156 577.335 338.877 577.335C339.627 577.335 339.843 577.943 339.837 578.545V579.159C339.843 579.761 339.604 580.358 338.877 580.358C338.15 580.358 337.911 579.761 337.906 579.159V578.545Z" fill="#4B7594"/>
<path d="M53.2557 425.364H51.1477V437H53.2557V425.364ZM59.8054 428.273H58.0838V426.182H56.027V428.273H54.7884V429.864H56.027V434.716C56.0156 436.358 57.2088 437.165 58.7543 437.119C59.3395 437.102 59.7429 436.989 59.9645 436.915L59.6179 435.307C59.5043 435.335 59.2713 435.386 59.0156 435.386C58.4986 435.386 58.0838 435.205 58.0838 434.375V429.864H59.8054V428.273ZM65.2955 437.17C67.3295 437.17 68.7273 436.176 69.0909 434.659L67.1705 434.443C66.892 435.182 66.2102 435.568 65.3239 435.568C63.9943 435.568 63.1136 434.693 63.0966 433.199H69.1761V432.568C69.1761 429.506 67.3352 428.159 65.1875 428.159C62.6875 428.159 61.0568 429.994 61.0568 432.688C61.0568 435.426 62.6648 437.17 65.2955 437.17ZM63.1023 431.812C63.1648 430.699 63.9886 429.761 65.2159 429.761C66.3977 429.761 67.1932 430.625 67.2045 431.812H63.1023ZM70.9162 437H72.973V431.693C72.973 430.619 73.6889 429.892 74.5753 429.892C75.4446 429.892 76.0412 430.477 76.0412 431.375V437H78.0582V431.557C78.0582 430.574 78.6435 429.892 79.6378 429.892C80.4673 429.892 81.1264 430.381 81.1264 431.46V437H83.1889V431.142C83.1889 429.193 82.0639 428.159 80.4616 428.159C79.1946 428.159 78.2287 428.784 77.8423 429.756H77.7514C77.4162 428.767 76.5696 428.159 75.3935 428.159C74.223 428.159 73.348 428.761 72.9844 429.756H72.8821V428.273H70.9162V437ZM93.9545 425.364H91.9489L89.0568 427.222V429.153L91.7784 427.415H91.8466V437H93.9545V425.364ZM106.19 430.335H100.952V432.028H106.19V430.335ZM111.902 427.131H115.499V437H117.589V427.131H121.186V425.364H111.902V427.131ZM125.483 437.17C127.517 437.17 128.915 436.176 129.278 434.659L127.358 434.443C127.08 435.182 126.398 435.568 125.511 435.568C124.182 435.568 123.301 434.693 123.284 433.199H129.364V432.568C129.364 429.506 127.523 428.159 125.375 428.159C122.875 428.159 121.244 429.994 121.244 432.688C121.244 435.426 122.852 437.17 125.483 437.17ZM123.29 431.812C123.352 430.699 124.176 429.761 125.403 429.761C126.585 429.761 127.381 430.625 127.392 431.812H123.29ZM138.001 430.58C137.717 429.102 136.536 428.159 134.49 428.159C132.388 428.159 130.956 429.193 130.962 430.807C130.956 432.08 131.74 432.92 133.416 433.267L134.905 433.58C135.706 433.756 136.081 434.08 136.081 434.574C136.081 435.17 135.433 435.619 134.456 435.619C133.513 435.619 132.899 435.21 132.723 434.426L130.717 434.619C130.973 436.222 132.32 437.17 134.462 437.17C136.643 437.17 138.183 436.04 138.189 434.386C138.183 433.142 137.382 432.381 135.734 432.023L134.246 431.705C133.359 431.506 133.007 431.199 133.013 430.693C133.007 430.102 133.661 429.693 134.518 429.693C135.467 429.693 135.967 430.21 136.126 430.784L138.001 430.58ZM143.692 437.17C146.249 437.17 147.874 435.369 147.874 432.67C147.874 429.966 146.249 428.159 143.692 428.159C141.135 428.159 139.51 429.966 139.51 432.67C139.51 435.369 141.135 437.17 143.692 437.17ZM143.703 435.523C142.288 435.523 141.595 434.261 141.595 432.665C141.595 431.068 142.288 429.79 143.703 429.79C145.095 429.79 145.788 431.068 145.788 432.665C145.788 434.261 145.095 435.523 143.703 435.523ZM155.182 433.33C155.182 434.659 154.233 435.318 153.324 435.318C152.335 435.318 151.676 434.619 151.676 433.511V428.273H149.619V433.83C149.619 435.926 150.812 437.114 152.528 437.114C153.835 437.114 154.756 436.426 155.153 435.449H155.244V437H157.239V428.273H155.182V433.33ZM159.354 437H161.411V431.869C161.411 430.761 162.246 429.977 163.376 429.977C163.723 429.977 164.155 430.04 164.331 430.097V428.205C164.143 428.17 163.82 428.148 163.592 428.148C162.592 428.148 161.757 428.716 161.439 429.727H161.348V428.273H159.354V437ZM169.145 437.17C171.702 437.17 173.327 435.369 173.327 432.67C173.327 429.966 171.702 428.159 169.145 428.159C166.588 428.159 164.963 429.966 164.963 432.67C164.963 435.369 166.588 437.17 169.145 437.17ZM169.156 435.523C167.741 435.523 167.048 434.261 167.048 432.665C167.048 431.068 167.741 429.79 169.156 429.79C170.548 429.79 171.241 431.068 171.241 432.665C171.241 434.261 170.548 435.523 169.156 435.523ZM182.28 437.153C183.78 437.153 184.456 436.261 184.78 435.625H184.905V437H186.928V425.364H184.865V429.716H184.78C184.467 429.085 183.825 428.159 182.286 428.159C180.268 428.159 178.683 429.739 178.683 432.648C178.683 435.523 180.223 437.153 182.28 437.153ZM182.854 435.466C181.496 435.466 180.78 434.273 180.78 432.636C180.78 431.011 181.484 429.847 182.854 429.847C184.178 429.847 184.905 430.943 184.905 432.636C184.905 434.33 184.166 435.466 182.854 435.466ZM189.119 437H191.176V428.273H189.119V437ZM190.153 427.034C190.807 427.034 191.341 426.534 191.341 425.92C191.341 425.301 190.807 424.801 190.153 424.801C189.494 424.801 188.96 425.301 188.96 425.92C188.96 426.534 189.494 427.034 190.153 427.034ZM193.291 437H195.348V431.869C195.348 430.761 196.183 429.977 197.314 429.977C197.661 429.977 198.092 430.04 198.268 430.097V428.205C198.081 428.17 197.757 428.148 197.53 428.148C196.53 428.148 195.695 428.716 195.376 429.727H195.286V428.273H193.291V437ZM203.139 437.17C205.173 437.17 206.571 436.176 206.935 434.659L205.014 434.443C204.736 435.182 204.054 435.568 203.168 435.568C201.838 435.568 200.957 434.693 200.94 433.199H207.02V432.568C207.02 429.506 205.179 428.159 203.031 428.159C200.531 428.159 198.901 429.994 198.901 432.688C198.901 435.426 200.509 437.17 203.139 437.17ZM200.946 431.812C201.009 430.699 201.832 429.761 203.06 429.761C204.241 429.761 205.037 430.625 205.048 431.812H200.946ZM213.118 428.273H211.396V426.182H209.339V428.273H208.101V429.864H209.339V434.716C209.328 436.358 210.521 437.165 212.067 437.119C212.652 437.102 213.055 436.989 213.277 436.915L212.93 435.307C212.817 435.335 212.584 435.386 212.328 435.386C211.811 435.386 211.396 435.205 211.396 434.375V429.864H213.118V428.273ZM218.551 437.17C221.108 437.17 222.733 435.369 222.733 432.67C222.733 429.966 221.108 428.159 218.551 428.159C215.994 428.159 214.369 429.966 214.369 432.67C214.369 435.369 215.994 437.17 218.551 437.17ZM218.562 435.523C217.148 435.523 216.455 434.261 216.455 432.665C216.455 431.068 217.148 429.79 218.562 429.79C219.955 429.79 220.648 431.068 220.648 432.665C220.648 434.261 219.955 435.523 218.562 435.523Z" fill="black"/>
<path d="M308.962 423.364H306.957L304.065 425.222V427.153L306.786 425.415H306.854V435H308.962V423.364ZM313.714 433.409H311.896L311.856 434.045C311.759 435.585 311.356 437.153 311.191 437.841H312.577C312.85 437.125 313.481 435.466 313.64 434.034L313.714 433.409ZM319.843 435.222C322.65 435.227 324.326 433.011 324.326 429.193C324.326 425.398 322.638 423.205 319.843 423.205C317.048 423.205 315.366 425.392 315.36 429.193C315.36 433.006 317.036 435.222 319.843 435.222ZM319.843 433.443C318.394 433.443 317.485 431.989 317.491 429.193C317.496 426.42 318.4 424.96 319.843 424.96C321.292 424.96 322.195 426.42 322.201 429.193C322.201 431.989 321.298 433.443 319.843 433.443ZM330.259 435.159C332.719 435.159 334.435 433.489 334.435 431.176C334.435 428.938 332.879 427.324 330.765 427.324C329.822 427.324 328.987 427.699 328.555 428.21H328.487L328.822 425.125H333.827V423.364H327.077L326.469 429.364L328.373 429.676C328.765 429.244 329.504 428.955 330.202 428.96C331.481 428.966 332.401 429.909 332.396 431.227C332.401 432.528 331.504 433.455 330.259 433.455C329.208 433.455 328.362 432.79 328.288 431.835H326.242C326.299 433.767 327.987 435.159 330.259 435.159ZM342.56 432.818C342.566 434.17 343.424 435.324 345.021 435.324C346.612 435.324 347.487 434.17 347.481 432.818V432.205C347.487 430.841 346.634 429.699 345.021 429.699C343.447 429.699 342.566 430.852 342.56 432.205V432.818ZM336.646 426.159C336.651 427.511 337.509 428.653 339.112 428.653C340.697 428.653 341.572 427.523 341.566 426.159V425.545C341.572 424.182 340.719 423.04 339.112 423.04C337.543 423.04 336.651 424.182 336.646 425.545V426.159ZM337.157 435H338.583L346.583 423.364H345.157L337.157 435ZM344.043 432.205C344.049 431.602 344.305 430.994 345.021 430.994C345.771 430.994 345.992 431.602 345.987 432.205V432.818C345.992 433.42 345.748 434.017 345.021 434.017C344.293 434.017 344.049 433.415 344.043 432.818V432.205ZM338.14 425.545C338.146 424.949 338.39 424.335 339.112 424.335C339.862 424.335 340.077 424.943 340.072 425.545V426.159C340.077 426.761 339.839 427.358 339.112 427.358C338.384 427.358 338.146 426.761 338.14 426.159V425.545Z" fill="#4B7594"/>
<path d="M306.111 474.364H304.105L301.213 476.222V478.153L303.935 476.415H304.003V486H306.111V474.364ZM313.366 486.222C316.173 486.227 317.849 484.011 317.849 480.193C317.849 476.398 316.162 474.205 313.366 474.205C310.571 474.205 308.889 476.392 308.884 480.193C308.884 484.006 310.56 486.222 313.366 486.222ZM313.366 484.443C311.918 484.443 311.009 482.989 311.014 480.193C311.02 477.42 311.923 475.96 313.366 475.96C314.815 475.96 315.719 477.42 315.724 480.193C315.724 482.989 314.821 484.443 313.366 484.443ZM321.722 484.409H319.903L319.864 485.045C319.767 486.585 319.364 488.153 319.199 488.841H320.585C320.858 488.125 321.489 486.466 321.648 485.034L321.722 484.409ZM327.298 474.364H325.293L322.401 476.222V478.153L325.122 476.415H325.19V486H327.298V474.364ZM330.253 486H338.23V484.239H333.162V484.159L335.168 482.119C337.429 479.949 338.054 478.892 338.054 477.58C338.054 475.631 336.469 474.205 334.128 474.205C331.821 474.205 330.185 475.636 330.185 477.847H332.19C332.19 476.659 332.94 475.915 334.099 475.915C335.207 475.915 336.031 476.591 336.031 477.688C336.031 478.659 335.44 479.352 334.293 480.517L330.253 484.477V486ZM346.412 483.818C346.418 485.17 347.276 486.324 348.872 486.324C350.463 486.324 351.338 485.17 351.332 483.818V483.205C351.338 481.841 350.486 480.699 348.872 480.699C347.298 480.699 346.418 481.852 346.412 483.205V483.818ZM340.497 477.159C340.503 478.511 341.361 479.653 342.963 479.653C344.548 479.653 345.423 478.523 345.418 477.159V476.545C345.423 475.182 344.571 474.04 342.963 474.04C341.395 474.04 340.503 475.182 340.497 476.545V477.159ZM341.009 486H342.435L350.435 474.364H349.009L341.009 486ZM347.895 483.205C347.901 482.602 348.156 481.994 348.872 481.994C349.622 481.994 349.844 482.602 349.838 483.205V483.818C349.844 484.42 349.599 485.017 348.872 485.017C348.145 485.017 347.901 484.415 347.895 483.818V483.205ZM341.991 476.545C341.997 475.949 342.241 475.335 342.963 475.335C343.713 475.335 343.929 475.943 343.923 476.545V477.159C343.929 477.761 343.69 478.358 342.963 478.358C342.236 478.358 341.997 477.761 341.991 477.159V476.545Z" fill="#4B7594"/>
<path d="M306.906 537H309.093L314.036 527.165V525.364H306.11V527.125H311.854V527.205L306.906 537ZM315.16 537.125C315.83 537.125 316.404 536.568 316.41 535.875C316.404 535.193 315.83 534.636 315.16 534.636C314.467 534.636 313.904 535.193 313.91 535.875C313.904 536.568 314.467 537.125 315.16 537.125ZM321.806 525.364H319.8L316.908 527.222V529.153L319.63 527.415H319.698V537H321.806V525.364ZM328.897 537.159C331.414 537.159 333.215 535.773 333.221 533.881C333.215 532.426 332.141 531.21 330.789 530.983V530.903C331.965 530.642 332.783 529.585 332.789 528.324C332.783 526.534 331.136 525.205 328.897 525.205C326.641 525.205 324.994 526.528 324.999 528.324C324.994 529.585 325.8 530.642 326.999 530.903V530.983C325.624 531.21 324.562 532.426 324.567 533.881C324.562 535.773 326.357 537.159 328.897 537.159ZM328.897 535.534C327.579 535.534 326.727 534.807 326.738 533.733C326.727 532.619 327.641 531.83 328.897 531.83C330.136 531.83 331.045 532.625 331.056 533.733C331.045 534.807 330.198 535.534 328.897 535.534ZM328.897 530.233C327.817 530.233 327.045 529.534 327.056 528.523C327.045 527.523 327.795 526.852 328.897 526.852C329.982 526.852 330.727 527.523 330.738 528.523C330.727 529.54 329.96 530.233 328.897 530.233ZM341.31 534.818C341.316 536.17 342.174 537.324 343.771 537.324C345.362 537.324 346.237 536.17 346.231 534.818V534.205C346.237 532.841 345.384 531.699 343.771 531.699C342.197 531.699 341.316 532.852 341.31 534.205V534.818ZM335.396 528.159C335.401 529.511 336.259 530.653 337.862 530.653C339.447 530.653 340.322 529.523 340.316 528.159V527.545C340.322 526.182 339.469 525.04 337.862 525.04C336.293 525.04 335.401 526.182 335.396 527.545V528.159ZM335.907 537H337.333L345.333 525.364H343.907L335.907 537ZM342.793 534.205C342.799 533.602 343.055 532.994 343.771 532.994C344.521 532.994 344.742 533.602 344.737 534.205V534.818C344.742 535.42 344.498 536.017 343.771 536.017C343.043 536.017 342.799 535.415 342.793 534.818V534.205ZM336.89 527.545C336.896 526.949 337.14 526.335 337.862 526.335C338.612 526.335 338.827 526.943 338.822 527.545V528.159C338.827 528.761 338.589 529.358 337.862 529.358C337.134 529.358 336.896 528.761 336.89 528.159V527.545Z" fill="#4B7594"/>
<path d="M53.2557 474.364H51.1477V486H53.2557V474.364ZM59.8054 477.273H58.0838V475.182H56.027V477.273H54.7884V478.864H56.027V483.716C56.0156 485.358 57.2088 486.165 58.7543 486.119C59.3395 486.102 59.7429 485.989 59.9645 485.915L59.6179 484.307C59.5043 484.335 59.2713 484.386 59.0156 484.386C58.4986 484.386 58.0838 484.205 58.0838 483.375V478.864H59.8054V477.273ZM65.2955 486.17C67.3295 486.17 68.7273 485.176 69.0909 483.659L67.1705 483.443C66.892 484.182 66.2102 484.568 65.3239 484.568C63.9943 484.568 63.1136 483.693 63.0966 482.199H69.1761V481.568C69.1761 478.506 67.3352 477.159 65.1875 477.159C62.6875 477.159 61.0568 478.994 61.0568 481.688C61.0568 484.426 62.6648 486.17 65.2955 486.17ZM63.1023 480.812C63.1648 479.699 63.9886 478.761 65.2159 478.761C66.3977 478.761 67.1932 479.625 67.2045 480.812H63.1023ZM70.9162 486H72.973V480.693C72.973 479.619 73.6889 478.892 74.5753 478.892C75.4446 478.892 76.0412 479.477 76.0412 480.375V486H78.0582V480.557C78.0582 479.574 78.6435 478.892 79.6378 478.892C80.4673 478.892 81.1264 479.381 81.1264 480.46V486H83.1889V480.142C83.1889 478.193 82.0639 477.159 80.4616 477.159C79.1946 477.159 78.2287 477.784 77.8423 478.756H77.7514C77.4162 477.767 76.5696 477.159 75.3935 477.159C74.223 477.159 73.348 477.761 72.9844 478.756H72.8821V477.273H70.9162V486ZM89.2216 486H97.1989V484.239H92.1307V484.159L94.1364 482.119C96.3977 479.949 97.0227 478.892 97.0227 477.58C97.0227 475.631 95.4375 474.205 93.0966 474.205C90.7898 474.205 89.1534 475.636 89.1534 477.847H91.1591C91.1591 476.659 91.9091 475.915 93.0682 475.915C94.1761 475.915 95 476.591 95 477.688C95 478.659 94.4091 479.352 93.2614 480.517L89.2216 484.477V486ZM108.44 479.335H103.202V481.028H108.44V479.335ZM124.624 478.29C124.266 475.705 122.277 474.205 119.697 474.205C116.658 474.205 114.368 476.42 114.368 480.182C114.368 483.938 116.629 486.159 119.697 486.159C122.464 486.159 124.3 484.369 124.624 482.148L122.499 482.136C122.232 483.5 121.118 484.267 119.726 484.267C117.839 484.267 116.487 482.852 116.487 480.182C116.487 477.557 117.828 476.097 119.732 476.097C121.146 476.097 122.254 476.898 122.499 478.29H124.624ZM130.497 486C134.043 486 136.145 483.807 136.145 480.17C136.145 476.545 134.043 474.364 130.577 474.364H126.554V486H130.497ZM128.662 484.176V476.188H130.457C132.821 476.188 134.054 477.506 134.054 480.17C134.054 482.847 132.821 484.176 130.395 484.176H128.662ZM138.148 486H142.858C145.523 486 146.83 484.642 146.83 482.83C146.83 481.068 145.58 480.034 144.341 479.972V479.858C145.477 479.591 146.375 478.795 146.375 477.381C146.375 475.648 145.125 474.364 142.602 474.364H138.148V486ZM140.256 484.239V480.83H142.58C143.881 480.83 144.688 481.625 144.688 482.665C144.688 483.591 144.051 484.239 142.523 484.239H140.256ZM140.256 479.312V476.102H142.386C143.625 476.102 144.267 476.756 144.267 477.653C144.267 478.676 143.438 479.312 142.341 479.312H140.256Z" fill="black"/>
<path d="M53.2557 525.364H51.1477V537H53.2557V525.364ZM59.8054 528.273H58.0838V526.182H56.027V528.273H54.7884V529.864H56.027V534.716C56.0156 536.358 57.2088 537.165 58.7543 537.119C59.3395 537.102 59.7429 536.989 59.9645 536.915L59.6179 535.307C59.5043 535.335 59.2713 535.386 59.0156 535.386C58.4986 535.386 58.0838 535.205 58.0838 534.375V529.864H59.8054V528.273ZM65.2955 537.17C67.3295 537.17 68.7273 536.176 69.0909 534.659L67.1705 534.443C66.892 535.182 66.2102 535.568 65.3239 535.568C63.9943 535.568 63.1136 534.693 63.0966 533.199H69.1761V532.568C69.1761 529.506 67.3352 528.159 65.1875 528.159C62.6875 528.159 61.0568 529.994 61.0568 532.688C61.0568 535.426 62.6648 537.17 65.2955 537.17ZM63.1023 531.812C63.1648 530.699 63.9886 529.761 65.2159 529.761C66.3977 529.761 67.1932 530.625 67.2045 531.812H63.1023ZM70.9162 537H72.973V531.693C72.973 530.619 73.6889 529.892 74.5753 529.892C75.4446 529.892 76.0412 530.477 76.0412 531.375V537H78.0582V531.557C78.0582 530.574 78.6435 529.892 79.6378 529.892C80.4673 529.892 81.1264 530.381 81.1264 531.46V537H83.1889V531.142C83.1889 529.193 82.0639 528.159 80.4616 528.159C79.1946 528.159 78.2287 528.784 77.8423 529.756H77.7514C77.4162 528.767 76.5696 528.159 75.3935 528.159C74.223 528.159 73.348 528.761 72.9844 529.756H72.8821V528.273H70.9162V537ZM93.3977 537.159C95.8864 537.159 97.6989 535.733 97.6932 533.767C97.6989 532.312 96.7898 531.267 95.1591 531.034V530.943C96.4205 530.67 97.267 529.733 97.2614 528.426C97.267 526.653 95.7557 525.205 93.4318 525.205C91.1705 525.205 89.4205 526.551 89.375 528.5H91.4034C91.4375 527.523 92.3466 526.915 93.4205 526.915C94.5057 526.915 95.2273 527.574 95.2216 528.551C95.2273 529.568 94.3864 530.244 93.1818 530.244H92.1534V531.869H93.1818C94.6534 531.869 95.5284 532.608 95.5227 533.659C95.5284 534.688 94.6364 535.392 93.392 535.392C92.2216 535.392 91.3182 534.784 91.267 533.835H89.1307C89.1875 535.801 90.9432 537.159 93.3977 537.159ZM108.925 530.335H103.686V532.028H108.925V530.335ZM114.636 527.131H118.233V537H120.324V527.131H123.92V525.364H114.636V527.131ZM124.713 537H126.77V531.869C126.77 530.761 127.605 529.977 128.736 529.977C129.082 529.977 129.514 530.04 129.69 530.097V528.205C129.503 528.17 129.179 528.148 128.952 528.148C127.952 528.148 127.116 528.716 126.798 529.727H126.707V528.273H124.713V537ZM134.561 537.17C136.595 537.17 137.993 536.176 138.357 534.659L136.436 534.443C136.158 535.182 135.476 535.568 134.589 535.568C133.26 535.568 132.379 534.693 132.362 533.199H138.442V532.568C138.442 529.506 136.601 528.159 134.453 528.159C131.953 528.159 130.322 529.994 130.322 532.688C130.322 535.426 131.93 537.17 134.561 537.17ZM132.368 531.812C132.43 530.699 133.254 529.761 134.482 529.761C135.663 529.761 136.459 530.625 136.47 531.812H132.368ZM142.239 531.886C142.239 530.625 143 529.898 144.085 529.898C145.148 529.898 145.784 530.597 145.784 531.761V537H147.841V531.443C147.847 529.352 146.653 528.159 144.852 528.159C143.545 528.159 142.648 528.784 142.25 529.756H142.148V528.273H140.182V537H142.239V531.886ZM153.17 537.153C154.67 537.153 155.347 536.261 155.67 535.625H155.795V537H157.818V525.364H155.756V529.716H155.67C155.358 529.085 154.716 528.159 153.176 528.159C151.159 528.159 149.574 529.739 149.574 532.648C149.574 535.523 151.114 537.153 153.17 537.153ZM153.744 535.466C152.386 535.466 151.67 534.273 151.67 532.636C151.67 531.011 152.375 529.847 153.744 529.847C155.068 529.847 155.795 530.943 155.795 532.636C155.795 534.33 155.057 535.466 153.744 535.466ZM168.013 537C171.558 537 173.661 534.807 173.661 531.17C173.661 527.545 171.558 525.364 168.092 525.364H164.07V537H168.013ZM166.178 535.176V527.188H167.973C170.337 527.188 171.57 528.506 171.57 531.17C171.57 533.847 170.337 535.176 167.911 535.176H166.178ZM177.771 525.364H175.663V537H177.771V525.364ZM190.83 530.58C190.545 529.102 189.364 528.159 187.318 528.159C185.216 528.159 183.784 529.193 183.79 530.807C183.784 532.08 184.568 532.92 186.244 533.267L187.733 533.58C188.534 533.756 188.909 534.08 188.909 534.574C188.909 535.17 188.261 535.619 187.284 535.619C186.341 535.619 185.727 535.21 185.551 534.426L183.545 534.619C183.801 536.222 185.148 537.17 187.29 537.17C189.472 537.17 191.011 536.04 191.017 534.386C191.011 533.142 190.21 532.381 188.562 532.023L187.074 531.705C186.188 531.506 185.835 531.199 185.841 530.693C185.835 530.102 186.489 529.693 187.347 529.693C188.295 529.693 188.795 530.21 188.955 530.784L190.83 530.58ZM192.713 537H194.77V528.273H192.713V537ZM193.747 527.034C194.401 527.034 194.935 526.534 194.935 525.92C194.935 525.301 194.401 524.801 193.747 524.801C193.088 524.801 192.554 525.301 192.554 525.92C192.554 526.534 193.088 527.034 193.747 527.034ZM196.885 537H198.942V531.693C198.942 530.619 199.658 529.892 200.544 529.892C201.413 529.892 202.01 530.477 202.01 531.375V537H204.027V531.557C204.027 530.574 204.612 529.892 205.607 529.892C206.436 529.892 207.095 530.381 207.095 531.46V537H209.158V531.142C209.158 529.193 208.033 528.159 206.43 528.159C205.163 528.159 204.197 528.784 203.811 529.756H203.72C203.385 528.767 202.538 528.159 201.362 528.159C200.192 528.159 199.317 528.761 198.953 529.756H198.851V528.273H196.885V537ZM211.244 540.273H213.301V535.625H213.386C213.71 536.261 214.386 537.153 215.886 537.153C217.943 537.153 219.483 535.523 219.483 532.648C219.483 529.739 217.898 528.159 215.881 528.159C214.341 528.159 213.699 529.085 213.386 529.716H213.267V528.273H211.244V540.273ZM213.261 532.636C213.261 530.943 213.989 529.847 215.312 529.847C216.682 529.847 217.386 531.011 217.386 532.636C217.386 534.273 216.67 535.466 215.312 535.466C214 535.466 213.261 534.33 213.261 532.636ZM223.301 525.364H221.244V537H223.301V525.364ZM225.416 537H227.473V528.273H225.416V537ZM226.45 527.034C227.104 527.034 227.638 526.534 227.638 525.92C227.638 525.301 227.104 524.801 226.45 524.801C225.791 524.801 225.257 525.301 225.257 525.92C225.257 526.534 225.791 527.034 226.45 527.034ZM234.009 528.273H232.196V527.585C232.196 526.903 232.48 526.523 233.247 526.523C233.571 526.523 233.844 526.597 234.014 526.648L234.429 525.057C234.162 524.966 233.577 524.818 232.866 524.818C231.349 524.818 230.139 525.688 230.139 527.449V528.273H228.849V529.864H230.139V537H232.196V529.864H234.009V528.273ZM235.619 537H237.676V528.273H235.619V537ZM236.653 527.034C237.307 527.034 237.841 526.534 237.841 525.92C237.841 525.301 237.307 524.801 236.653 524.801C235.994 524.801 235.46 525.301 235.46 525.92C235.46 526.534 235.994 527.034 236.653 527.034ZM243.598 537.17C245.791 537.17 247.189 535.869 247.337 534.017H245.371C245.195 534.955 244.518 535.494 243.615 535.494C242.331 535.494 241.501 534.42 241.501 532.636C241.501 530.875 242.348 529.818 243.615 529.818C244.604 529.818 245.212 530.455 245.371 531.295H247.337C247.195 529.403 245.717 528.159 243.587 528.159C241.03 528.159 239.416 530.006 239.416 532.67C239.416 535.312 240.99 537.17 243.598 537.17ZM251.537 537.176C252.906 537.176 253.724 536.534 254.099 535.801H254.168V537H256.145V531.159C256.145 528.852 254.264 528.159 252.599 528.159C250.764 528.159 249.355 528.977 248.901 530.568L250.821 530.841C251.026 530.244 251.605 529.733 252.611 529.733C253.565 529.733 254.088 530.222 254.088 531.08V531.114C254.088 531.705 253.469 531.733 251.929 531.898C250.236 532.08 248.616 532.585 248.616 534.551C248.616 536.267 249.872 537.176 251.537 537.176ZM252.071 535.665C251.213 535.665 250.599 535.273 250.599 534.517C250.599 533.727 251.287 533.398 252.207 533.267C252.747 533.193 253.827 533.057 254.094 532.841V533.869C254.094 534.841 253.31 535.665 252.071 535.665ZM261.452 537.153C262.952 537.153 263.628 536.261 263.952 535.625H264.077V537H266.099V525.364H264.037V529.716H263.952C263.639 529.085 262.997 528.159 261.457 528.159C259.44 528.159 257.855 529.739 257.855 532.648C257.855 535.523 259.395 537.153 261.452 537.153ZM262.026 535.466C260.668 535.466 259.952 534.273 259.952 532.636C259.952 531.011 260.656 529.847 262.026 529.847C263.349 529.847 264.077 530.943 264.077 532.636C264.077 534.33 263.338 535.466 262.026 535.466ZM272.098 537.17C274.655 537.17 276.28 535.369 276.28 532.67C276.28 529.966 274.655 528.159 272.098 528.159C269.541 528.159 267.916 529.966 267.916 532.67C267.916 535.369 269.541 537.17 272.098 537.17ZM272.109 535.523C270.695 535.523 270.001 534.261 270.001 532.665C270.001 531.068 270.695 529.79 272.109 529.79C273.501 529.79 274.195 531.068 274.195 532.665C274.195 534.261 273.501 535.523 272.109 535.523Z" fill="black"/>
<path d="M53.2557 576.364H51.1477V588H53.2557V576.364ZM59.8054 579.273H58.0838V577.182H56.027V579.273H54.7884V580.864H56.027V585.716C56.0156 587.358 57.2088 588.165 58.7543 588.119C59.3395 588.102 59.7429 587.989 59.9645 587.915L59.6179 586.307C59.5043 586.335 59.2713 586.386 59.0156 586.386C58.4986 586.386 58.0838 586.205 58.0838 585.375V580.864H59.8054V579.273ZM65.2955 588.17C67.3295 588.17 68.7273 587.176 69.0909 585.659L67.1705 585.443C66.892 586.182 66.2102 586.568 65.3239 586.568C63.9943 586.568 63.1136 585.693 63.0966 584.199H69.1761V583.568C69.1761 580.506 67.3352 579.159 65.1875 579.159C62.6875 579.159 61.0568 580.994 61.0568 583.688C61.0568 586.426 62.6648 588.17 65.2955 588.17ZM63.1023 582.812C63.1648 581.699 63.9886 580.761 65.2159 580.761C66.3977 580.761 67.1932 581.625 67.2045 582.812H63.1023ZM70.9162 588H72.973V582.693C72.973 581.619 73.6889 580.892 74.5753 580.892C75.4446 580.892 76.0412 581.477 76.0412 582.375V588H78.0582V582.557C78.0582 581.574 78.6435 580.892 79.6378 580.892C80.4673 580.892 81.1264 581.381 81.1264 582.46V588H83.1889V582.142C83.1889 580.193 82.0639 579.159 80.4616 579.159C79.1946 579.159 78.2287 579.784 77.8423 580.756H77.7514C77.4162 579.767 76.5696 579.159 75.3935 579.159C74.223 579.159 73.348 579.761 72.9844 580.756H72.8821V579.273H70.9162V588ZM89.0114 585.841H94.5625V588H96.5739V585.841H98.0625V584.108H96.5739V576.364H93.9489L89.0114 584.165V585.841ZM94.5852 584.108H91.1705V584.017L94.4943 578.75H94.5852V584.108ZM109.159 581.335H103.92V583.028H109.159V581.335ZM116.876 588L117.837 585.131H122.212L123.178 588H125.428L121.325 576.364H118.723L114.626 588H116.876ZM118.405 583.438L119.979 578.75H120.07L121.643 583.438H118.405ZM134.209 580.08H136.357C135.999 577.795 134.021 576.205 131.447 576.205C128.402 576.205 126.118 578.443 126.118 582.193C126.118 585.875 128.3 588.159 131.51 588.159C134.391 588.159 136.453 586.307 136.453 583.307V581.909H131.732V583.557H134.413C134.379 585.216 133.271 586.267 131.521 586.267C129.572 586.267 128.237 584.807 128.237 582.17C128.237 579.551 129.595 578.097 131.476 578.097C132.879 578.097 133.834 578.847 134.209 580.08ZM138.491 588H140.599V583.739H142.747L145.031 588H147.384L144.866 583.386C146.236 582.835 146.957 581.665 146.957 580.085C146.957 577.864 145.526 576.364 142.855 576.364H138.491V588ZM140.599 581.989V578.125H142.531C144.105 578.125 144.81 578.847 144.81 580.085C144.81 581.324 144.105 581.989 142.543 581.989H140.599ZM156.233 576.364V583.79C156.233 585.25 155.216 586.295 153.619 586.295C152.017 586.295 151.006 585.25 151.006 583.79V576.364H148.898V583.966C148.898 586.466 150.773 588.176 153.619 588.176C156.455 588.176 158.341 586.466 158.341 583.966V576.364H156.233ZM165.251 576.364H163.246L160.354 578.222V580.153L163.075 578.415H163.143V588H165.251V576.364ZM168.206 588H176.183V586.239H171.115V586.159L173.121 584.119C175.382 581.949 176.007 580.892 176.007 579.58C176.007 577.631 174.422 576.205 172.081 576.205C169.774 576.205 168.138 577.636 168.138 579.847H170.143C170.143 578.659 170.893 577.915 172.053 577.915C173.161 577.915 173.984 578.591 173.984 579.688C173.984 580.659 173.393 581.352 172.246 582.517L168.206 586.477V588Z" fill="black"/>
<path d="M138.218 391H140.326V386.739H142.474L144.758 391H147.11L144.593 386.386C145.962 385.835 146.684 384.665 146.684 383.085C146.684 380.864 145.252 379.364 142.582 379.364H138.218V391ZM140.326 384.989V381.125H142.258C143.832 381.125 144.536 381.847 144.536 383.085C144.536 384.324 143.832 384.989 142.269 384.989H140.326ZM152.272 391.17C154.306 391.17 155.704 390.176 156.067 388.659L154.147 388.443C153.869 389.182 153.187 389.568 152.3 389.568C150.971 389.568 150.09 388.693 150.073 387.199H156.153V386.568C156.153 383.506 154.312 382.159 152.164 382.159C149.664 382.159 148.033 383.994 148.033 386.688C148.033 389.426 149.641 391.17 152.272 391.17ZM150.079 385.812C150.141 384.699 150.965 383.761 152.192 383.761C153.374 383.761 154.17 384.625 154.181 385.812H150.079ZM159.95 385.886C159.95 384.625 160.711 383.898 161.796 383.898C162.859 383.898 163.495 384.597 163.495 385.761V391H165.552V385.443C165.558 383.352 164.364 382.159 162.563 382.159C161.256 382.159 160.359 382.784 159.961 383.756H159.859V382.273H157.893V391H159.95V385.886ZM170.881 391.153C172.381 391.153 173.058 390.261 173.381 389.625H173.506V391H175.529V379.364H173.467V383.716H173.381C173.069 383.085 172.427 382.159 170.887 382.159C168.87 382.159 167.285 383.739 167.285 386.648C167.285 389.523 168.825 391.153 170.881 391.153ZM171.455 389.466C170.097 389.466 169.381 388.273 169.381 386.636C169.381 385.011 170.086 383.847 171.455 383.847C172.779 383.847 173.506 384.943 173.506 386.636C173.506 388.33 172.768 389.466 171.455 389.466ZM177.721 391H179.778V382.273H177.721V391ZM178.755 381.034C179.408 381.034 179.942 380.534 179.942 379.92C179.942 379.301 179.408 378.801 178.755 378.801C178.096 378.801 177.562 379.301 177.562 379.92C177.562 380.534 178.096 381.034 178.755 381.034ZM181.893 391H183.95V385.693C183.95 384.619 184.665 383.892 185.552 383.892C186.421 383.892 187.018 384.477 187.018 385.375V391H189.035V385.557C189.035 384.574 189.62 383.892 190.614 383.892C191.444 383.892 192.103 384.381 192.103 385.46V391H194.165V385.142C194.165 383.193 193.04 382.159 191.438 382.159C190.171 382.159 189.205 382.784 188.819 383.756H188.728C188.393 382.767 187.546 382.159 186.37 382.159C185.2 382.159 184.325 382.761 183.961 383.756H183.859V382.273H181.893V391ZM200.116 391.17C202.15 391.17 203.548 390.176 203.911 388.659L201.991 388.443C201.712 389.182 201.031 389.568 200.144 389.568C198.815 389.568 197.934 388.693 197.917 387.199H203.996V386.568C203.996 383.506 202.156 382.159 200.008 382.159C197.508 382.159 195.877 383.994 195.877 386.688C195.877 389.426 197.485 391.17 200.116 391.17ZM197.923 385.812C197.985 384.699 198.809 383.761 200.036 383.761C201.218 383.761 202.013 384.625 202.025 385.812H197.923ZM207.793 385.886C207.793 384.625 208.555 383.898 209.64 383.898C210.702 383.898 211.339 384.597 211.339 385.761V391H213.396V385.443C213.401 383.352 212.208 382.159 210.407 382.159C209.1 382.159 208.202 382.784 207.805 383.756H207.702V382.273H205.737V391H207.793V385.886ZM219.844 382.273H218.123V380.182H216.066V382.273H214.827V383.864H216.066V388.716C216.055 390.358 217.248 391.165 218.793 391.119C219.379 391.102 219.782 390.989 220.004 390.915L219.657 389.307C219.543 389.335 219.31 389.386 219.055 389.386C218.538 389.386 218.123 389.205 218.123 388.375V383.864H219.844V382.273ZM225.278 391.17C227.835 391.17 229.46 389.369 229.46 386.67C229.46 383.966 227.835 382.159 225.278 382.159C222.721 382.159 221.096 383.966 221.096 386.67C221.096 389.369 222.721 391.17 225.278 391.17ZM225.289 389.523C223.874 389.523 223.181 388.261 223.181 386.665C223.181 385.068 223.874 383.79 225.289 383.79C226.681 383.79 227.374 385.068 227.374 386.665C227.374 388.261 226.681 389.523 225.289 389.523ZM238.103 384.58C237.819 383.102 236.637 382.159 234.592 382.159C232.489 382.159 231.058 383.193 231.063 384.807C231.058 386.08 231.842 386.92 233.518 387.267L235.006 387.58C235.808 387.756 236.183 388.08 236.183 388.574C236.183 389.17 235.535 389.619 234.558 389.619C233.614 389.619 233.001 389.21 232.825 388.426L230.819 388.619C231.075 390.222 232.421 391.17 234.563 391.17C236.745 391.17 238.285 390.04 238.29 388.386C238.285 387.142 237.484 386.381 235.836 386.023L234.347 385.705C233.461 385.506 233.109 385.199 233.114 384.693C233.109 384.102 233.762 383.693 234.62 383.693C235.569 383.693 236.069 384.21 236.228 384.784L238.103 384.58Z" fill="black"/>
<path d="M63.4461 307H65.1172V302.831C65.1172 301.931 65.7959 301.294 66.7145 301.294C66.9961 301.294 67.347 301.345 67.4901 301.391V299.854C67.3378 299.826 67.0746 299.808 66.89 299.808C66.0775 299.808 65.3988 300.269 65.1403 301.091H65.0665V299.909H63.4461V307ZM71.4476 307.138C73.1003 307.138 74.2359 306.331 74.5314 305.098L72.971 304.923C72.7448 305.523 72.1908 305.837 71.4707 305.837C70.3904 305.837 69.6748 305.126 69.661 303.912H74.6006V303.399C74.6006 300.911 73.1049 299.817 71.3599 299.817C69.3286 299.817 68.0037 301.308 68.0037 303.496C68.0037 305.721 69.3101 307.138 71.4476 307.138ZM69.6656 302.785C69.7164 301.88 70.3858 301.119 71.3829 301.119C72.3432 301.119 72.9895 301.82 72.9987 302.785H69.6656ZM81.6188 301.783C81.388 300.583 80.4278 299.817 78.7658 299.817C77.0578 299.817 75.8944 300.657 75.899 301.968C75.8944 303.002 76.5315 303.685 77.8933 303.967L79.1028 304.221C79.7538 304.364 80.0585 304.627 80.0585 305.029C80.0585 305.513 79.5322 305.878 78.7381 305.878C77.9718 305.878 77.4732 305.546 77.3301 304.909L75.7005 305.066C75.9082 306.368 77.0024 307.138 78.7428 307.138C80.5155 307.138 81.7666 306.22 81.7712 304.876C81.7666 303.865 81.1156 303.247 79.7769 302.956L78.5673 302.697C77.8472 302.536 77.5609 302.287 77.5656 301.876C77.5609 301.396 78.0918 301.063 78.7889 301.063C79.5599 301.063 79.9661 301.483 80.0954 301.95L81.6188 301.783ZM86.2884 307.138C87.9411 307.138 89.0767 306.331 89.3722 305.098L87.8118 304.923C87.5856 305.523 87.0316 305.837 86.3115 305.837C85.2312 305.837 84.5157 305.126 84.5018 303.912H89.4415V303.399C89.4415 300.911 87.9457 299.817 86.2007 299.817C84.1694 299.817 82.8445 301.308 82.8445 303.496C82.8445 305.721 84.151 307.138 86.2884 307.138ZM84.5064 302.785C84.5572 301.88 85.2266 301.119 86.2238 301.119C87.184 301.119 87.8303 301.82 87.8395 302.785H84.5064ZM90.8552 307H92.5264V302.831C92.5264 301.931 93.205 301.294 94.1237 301.294C94.4053 301.294 94.7562 301.345 94.8993 301.391V299.854C94.7469 299.826 94.4838 299.808 94.2991 299.808C93.4866 299.808 92.808 300.269 92.5495 301.091H92.4756V299.909H90.8552V307ZM102.559 299.909H100.782L99.1476 305.176H99.0737L97.4441 299.909H95.6622L98.1874 307H100.034L102.559 299.909ZM105.553 307.143C106.666 307.143 107.33 306.621 107.635 306.026H107.69V307H109.297V302.254C109.297 300.38 107.769 299.817 106.416 299.817C104.925 299.817 103.78 300.482 103.411 301.774L104.971 301.996C105.137 301.511 105.608 301.096 106.425 301.096C107.201 301.096 107.626 301.493 107.626 302.19V302.217C107.626 302.697 107.123 302.721 105.871 302.854C104.496 303.002 103.18 303.413 103.18 305.01C103.18 306.404 104.2 307.143 105.553 307.143ZM105.987 305.915C105.29 305.915 104.791 305.597 104.791 304.983C104.791 304.341 105.35 304.073 106.098 303.967C106.536 303.907 107.413 303.796 107.63 303.621V304.456C107.63 305.246 106.993 305.915 105.987 305.915ZM114.202 309.659H115.873V305.883H115.942C116.205 306.4 116.755 307.125 117.974 307.125C119.645 307.125 120.896 305.8 120.896 303.464C120.896 301.1 119.608 299.817 117.969 299.817C116.718 299.817 116.196 300.569 115.942 301.082H115.845V299.909H114.202V309.659ZM115.841 303.455C115.841 302.079 116.432 301.188 117.507 301.188C118.62 301.188 119.192 302.134 119.192 303.455C119.192 304.784 118.611 305.754 117.507 305.754C116.441 305.754 115.841 304.83 115.841 303.455ZM124.367 307.143C125.48 307.143 126.145 306.621 126.449 306.026H126.505V307H128.111V302.254C128.111 300.38 126.583 299.817 125.231 299.817C123.74 299.817 122.595 300.482 122.225 301.774L123.786 301.996C123.952 301.511 124.423 301.096 125.24 301.096C126.015 301.096 126.44 301.493 126.44 302.19V302.217C126.44 302.697 125.937 302.721 124.686 302.854C123.31 303.002 121.995 303.413 121.995 305.01C121.995 306.404 123.015 307.143 124.367 307.143ZM124.801 305.915C124.104 305.915 123.606 305.597 123.606 304.983C123.606 304.341 124.164 304.073 124.912 303.967C125.351 303.907 126.228 303.796 126.445 303.621V304.456C126.445 305.246 125.808 305.915 124.801 305.915ZM129.792 307H131.463V302.831C131.463 301.931 132.142 301.294 133.06 301.294C133.342 301.294 133.693 301.345 133.836 301.391V299.854C133.683 299.826 133.42 299.808 133.236 299.808C132.423 299.808 131.745 300.269 131.486 301.091H131.412V299.909H129.792V307ZM136.847 307.143C137.959 307.143 138.624 306.621 138.929 306.026H138.984V307H140.591V302.254C140.591 300.38 139.063 299.817 137.71 299.817C136.219 299.817 135.074 300.482 134.705 301.774L136.265 301.996C136.431 301.511 136.902 301.096 137.719 301.096C138.495 301.096 138.92 301.493 138.92 302.19V302.217C138.92 302.697 138.417 302.721 137.165 302.854C135.79 303.002 134.474 303.413 134.474 305.01C134.474 306.404 135.494 307.143 136.847 307.143ZM137.281 305.915C136.584 305.915 136.085 305.597 136.085 304.983C136.085 304.341 136.644 304.073 137.392 303.967C137.83 303.907 138.707 303.796 138.924 303.621V304.456C138.924 305.246 138.287 305.915 137.281 305.915ZM68.972 323.138C70.6247 323.138 71.7603 322.331 72.0558 321.098L70.4954 320.923C70.2692 321.523 69.7152 321.837 68.9951 321.837C67.9148 321.837 67.1993 321.126 67.1854 319.912H72.125V319.399C72.125 316.911 70.6293 315.817 68.8843 315.817C66.853 315.817 65.5281 317.308 65.5281 319.496C65.5281 321.721 66.8346 323.138 68.972 323.138ZM67.19 318.785C67.2408 317.88 67.9102 317.119 68.9074 317.119C69.8676 317.119 70.5139 317.82 70.5231 318.785H67.19ZM73.5388 323H75.21V318.688C75.21 317.816 75.7917 317.225 76.5119 317.225C77.2182 317.225 77.7029 317.7 77.7029 318.43V323H79.3418V318.577C79.3418 317.779 79.8172 317.225 80.6251 317.225C81.2991 317.225 81.8347 317.622 81.8347 318.499V323H83.5104V318.24C83.5104 316.657 82.5964 315.817 81.2945 315.817C80.265 315.817 79.4802 316.325 79.1663 317.114H79.0925C78.8201 316.311 78.1322 315.817 77.1766 315.817C76.2256 315.817 75.5147 316.306 75.2192 317.114H75.1361V315.909H73.5388V323ZM88.345 323.138C89.9977 323.138 91.1334 322.331 91.4288 321.098L89.8685 320.923C89.6423 321.523 89.0883 321.837 88.3681 321.837C87.2879 321.837 86.5723 321.126 86.5585 319.912H91.4981V319.399C91.4981 316.911 90.0024 315.817 88.2573 315.817C86.2261 315.817 84.9011 317.308 84.9011 319.496C84.9011 321.721 86.2076 323.138 88.345 323.138ZM86.5631 318.785C86.6139 317.88 87.2832 317.119 88.2804 317.119C89.2406 317.119 89.8869 317.82 89.8962 318.785H86.5631ZM92.9119 323H94.5831V318.831C94.5831 317.931 95.2617 317.294 96.1804 317.294C96.462 317.294 96.8128 317.345 96.9559 317.391V315.854C96.8036 315.826 96.5404 315.808 96.3558 315.808C95.5433 315.808 94.8647 316.269 94.6061 317.091H94.5323V315.909H92.9119V323ZM100.858 325.807C102.774 325.807 104.186 324.93 104.186 323.115V315.909H102.538V317.082H102.446C102.192 316.569 101.661 315.817 100.41 315.817C98.7714 315.817 97.4834 317.1 97.4834 319.431C97.4834 321.744 98.7714 322.898 100.406 322.898C101.62 322.898 102.188 322.248 102.446 321.726H102.529V323.069C102.529 324.113 101.837 324.542 100.886 324.542C99.8793 324.542 99.4361 324.066 99.233 323.651L97.728 324.016C98.0327 325.008 99.053 325.807 100.858 325.807ZM100.872 321.587C99.7685 321.587 99.1868 320.729 99.1868 319.422C99.1868 318.134 99.7593 317.188 100.872 317.188C101.947 317.188 102.538 318.079 102.538 319.422C102.538 320.775 101.938 321.587 100.872 321.587ZM109.038 323.138C110.691 323.138 111.827 322.331 112.122 321.098L110.562 320.923C110.336 321.523 109.782 321.837 109.061 321.837C107.981 321.837 107.266 321.126 107.252 319.912H112.191V319.399C112.191 316.911 110.696 315.817 108.951 315.817C106.919 315.817 105.595 317.308 105.595 319.496C105.595 321.721 106.901 323.138 109.038 323.138ZM107.967 315.06L108.905 313.878L109.842 315.06H111.305V314.995L109.56 313.001H108.254L106.504 314.995V315.06H107.967ZM107.256 318.785C107.307 317.88 107.977 317.119 108.974 317.119C109.934 317.119 110.58 317.82 110.59 318.785H107.256ZM115.276 318.845C115.276 317.82 115.895 317.229 116.777 317.229C117.64 317.229 118.157 317.797 118.157 318.744V323H119.828V318.485C119.833 316.786 118.863 315.817 117.4 315.817C116.338 315.817 115.609 316.325 115.286 317.114H115.203V315.909H113.605V323H115.276V318.845ZM124.62 323.138C126.402 323.138 127.538 322.081 127.658 320.576H126.061C125.917 321.338 125.368 321.777 124.634 321.777C123.591 321.777 122.917 320.904 122.917 319.455C122.917 318.023 123.605 317.165 124.634 317.165C125.437 317.165 125.931 317.682 126.061 318.365H127.658C127.542 316.828 126.342 315.817 124.611 315.817C122.534 315.817 121.222 317.317 121.222 319.482C121.222 321.629 122.501 323.138 124.62 323.138ZM129.03 323H130.701V315.909H129.03V323ZM129.87 314.903C130.401 314.903 130.835 314.496 130.835 313.998C130.835 313.495 130.401 313.088 129.87 313.088C129.335 313.088 128.901 313.495 128.901 313.998C128.901 314.496 129.335 314.903 129.87 314.903ZM134.46 323.143C135.573 323.143 136.238 322.621 136.542 322.026H136.598V323H138.204V318.254C138.204 316.38 136.676 315.817 135.323 315.817C133.832 315.817 132.687 316.482 132.318 317.774L133.879 317.996C134.045 317.511 134.516 317.096 135.333 317.096C136.108 317.096 136.533 317.493 136.533 318.19V318.217C136.533 318.697 136.03 318.721 134.779 318.854C133.403 319.002 132.087 319.413 132.087 321.01C132.087 322.404 133.108 323.143 134.46 323.143ZM134.894 321.915C134.197 321.915 133.698 321.597 133.698 320.983C133.698 320.341 134.257 320.073 135.005 319.967C135.443 319.907 136.321 319.796 136.538 319.621V320.456C136.538 321.246 135.901 321.915 134.894 321.915Z" fill="black"/>
<path d="M81 288.5C81 285.462 83.4624 283 86.5 283H117.5C120.538 283 123 285.462 123 288.5V288.5C123 291.538 120.538 294 117.5 294H86.5C83.4624 294 81 291.538 81 288.5V288.5Z" fill="#24CE85"/>
<path d="M180.813 307H182.484V302.831C182.484 301.931 183.163 301.294 184.082 301.294C184.363 301.294 184.714 301.345 184.857 301.391V299.854C184.705 299.826 184.442 299.808 184.257 299.808C183.445 299.808 182.766 300.269 182.508 301.091H182.434V299.909H180.813V307ZM185.968 307H187.639V299.909H185.968V307ZM186.808 298.903C187.339 298.903 187.773 298.496 187.773 297.998C187.773 297.495 187.339 297.088 186.808 297.088C186.272 297.088 185.838 297.495 185.838 297.998C185.838 298.496 186.272 298.903 186.808 298.903ZM194.962 301.783C194.731 300.583 193.771 299.817 192.109 299.817C190.401 299.817 189.237 300.657 189.242 301.968C189.237 303.002 189.874 303.685 191.236 303.967L192.446 304.221C193.097 304.364 193.401 304.627 193.401 305.029C193.401 305.513 192.875 305.878 192.081 305.878C191.315 305.878 190.816 305.546 190.673 304.909L189.043 305.066C189.251 306.368 190.345 307.138 192.086 307.138C193.858 307.138 195.109 306.22 195.114 304.876C195.109 303.865 194.458 303.247 193.12 302.956L191.91 302.697C191.19 302.536 190.904 302.287 190.908 301.876C190.904 301.396 191.435 301.063 192.132 301.063C192.903 301.063 193.309 301.483 193.438 301.95L194.962 301.783ZM199.585 307.138C201.367 307.138 202.503 306.081 202.623 304.576H201.025C200.882 305.338 200.333 305.777 199.599 305.777C198.556 305.777 197.882 304.904 197.882 303.455C197.882 302.023 198.569 301.165 199.599 301.165C200.402 301.165 200.896 301.682 201.025 302.365H202.623C202.507 300.828 201.307 299.817 199.576 299.817C197.498 299.817 196.187 301.317 196.187 303.482C196.187 305.629 197.466 307.138 199.585 307.138ZM207.088 307.138C209.165 307.138 210.486 305.675 210.486 303.482C210.486 301.285 209.165 299.817 207.088 299.817C205.011 299.817 203.69 301.285 203.69 303.482C203.69 305.675 205.011 307.138 207.088 307.138ZM207.097 305.8C205.948 305.8 205.384 304.775 205.384 303.478C205.384 302.18 205.948 301.142 207.097 301.142C208.228 301.142 208.791 302.18 208.791 303.478C208.791 304.775 208.228 305.8 207.097 305.8ZM179.434 323H181.077V321.883H181.174C181.437 322.4 181.986 323.125 183.205 323.125C184.876 323.125 186.127 321.8 186.127 319.464C186.127 317.1 184.839 315.817 183.201 315.817C181.949 315.817 181.428 316.569 181.174 317.082H181.105V313.545H179.434V323ZM181.072 319.455C181.072 318.079 181.663 317.188 182.739 317.188C183.851 317.188 184.424 318.134 184.424 319.455C184.424 320.784 183.842 321.754 182.739 321.754C181.672 321.754 181.072 320.83 181.072 319.455ZM189.589 323.143C190.701 323.143 191.366 322.621 191.671 322.026H191.726V323H193.333V318.254C193.333 316.38 191.805 315.817 190.452 315.817C188.961 315.817 187.816 316.482 187.447 317.774L189.007 317.996C189.173 317.511 189.644 317.096 190.461 317.096C191.237 317.096 191.661 317.493 191.661 318.19V318.217C191.661 318.697 191.158 318.721 189.907 318.854C188.531 319.002 187.216 319.413 187.216 321.01C187.216 322.404 188.236 323.143 189.589 323.143ZM190.023 321.915C189.325 321.915 188.827 321.597 188.827 320.983C188.827 320.341 189.385 320.073 190.133 319.967C190.572 319.907 191.449 319.796 191.666 319.621V320.456C191.666 321.246 191.029 321.915 190.023 321.915ZM195.013 323H196.684V315.909H195.013V323ZM195.853 314.903C196.384 314.903 196.818 314.496 196.818 313.998C196.818 313.495 196.384 313.088 195.853 313.088C195.318 313.088 194.884 313.495 194.884 313.998C194.884 314.496 195.318 314.903 195.853 314.903ZM199.769 315.909H197.996L200.101 319.455L197.941 323H199.714L201.2 320.447L202.701 323H204.459L202.285 319.455L204.422 315.909H202.654L201.2 318.527L199.769 315.909ZM208.542 323.138C210.619 323.138 211.939 321.675 211.939 319.482C211.939 317.285 210.619 315.817 208.542 315.817C206.464 315.817 205.144 317.285 205.144 319.482C205.144 321.675 206.464 323.138 208.542 323.138ZM208.551 321.8C207.401 321.8 206.838 320.775 206.838 319.478C206.838 318.18 207.401 317.142 208.551 317.142C209.682 317.142 210.245 318.18 210.245 319.478C210.245 320.775 209.682 321.8 208.551 321.8Z" fill="black"/>
<path d="M174 288.5C174 285.462 176.462 283 179.5 283H210.5C213.538 283 216 285.462 216 288.5V288.5C216 291.538 213.538 294 210.5 294H179.5C176.462 294 174 291.538 174 288.5V288.5Z" fill="#4B7594"/>
<path d="M266.313 307H267.984V302.831C267.984 301.931 268.663 301.294 269.582 301.294C269.863 301.294 270.214 301.345 270.357 301.391V299.854C270.205 299.826 269.942 299.808 269.757 299.808C268.945 299.808 268.266 300.269 268.008 301.091H267.934V299.909H266.313V307ZM271.468 307H273.139V299.909H271.468V307ZM272.308 298.903C272.839 298.903 273.273 298.496 273.273 297.998C273.273 297.495 272.839 297.088 272.308 297.088C271.772 297.088 271.338 297.495 271.338 297.998C271.338 298.496 271.772 298.903 272.308 298.903ZM280.462 301.783C280.231 300.583 279.271 299.817 277.609 299.817C275.901 299.817 274.737 300.657 274.742 301.968C274.737 303.002 275.374 303.685 276.736 303.967L277.946 304.221C278.597 304.364 278.901 304.627 278.901 305.029C278.901 305.513 278.375 305.878 277.581 305.878C276.815 305.878 276.316 305.546 276.173 304.909L274.543 305.066C274.751 306.368 275.845 307.138 277.586 307.138C279.358 307.138 280.609 306.22 280.614 304.876C280.609 303.865 279.958 303.247 278.62 302.956L277.41 302.697C276.69 302.536 276.404 302.287 276.408 301.876C276.404 301.396 276.935 301.063 277.632 301.063C278.403 301.063 278.809 301.483 278.938 301.95L280.462 301.783ZM285.085 307.138C286.867 307.138 288.003 306.081 288.123 304.576H286.525C286.382 305.338 285.833 305.777 285.099 305.777C284.056 305.777 283.382 304.904 283.382 303.455C283.382 302.023 284.069 301.165 285.099 301.165C285.902 301.165 286.396 301.682 286.525 302.365H288.123C288.007 300.828 286.807 299.817 285.076 299.817C282.998 299.817 281.687 301.317 281.687 303.482C281.687 305.629 282.966 307.138 285.085 307.138ZM292.588 307.138C294.665 307.138 295.986 305.675 295.986 303.482C295.986 301.285 294.665 299.817 292.588 299.817C290.511 299.817 289.19 301.285 289.19 303.482C289.19 305.675 290.511 307.138 292.588 307.138ZM292.597 305.8C291.448 305.8 290.884 304.775 290.884 303.478C290.884 302.18 291.448 301.142 292.597 301.142C293.728 301.142 294.291 302.18 294.291 303.478C294.291 304.775 293.728 305.8 292.597 305.8ZM249.835 323H251.506V318.688C251.506 317.816 252.088 317.225 252.808 317.225C253.514 317.225 253.999 317.7 253.999 318.43V323H255.638V318.577C255.638 317.779 256.113 317.225 256.921 317.225C257.595 317.225 258.131 317.622 258.131 318.499V323H259.806V318.24C259.806 316.657 258.892 315.817 257.59 315.817C256.561 315.817 255.776 316.325 255.462 317.114H255.388C255.116 316.311 254.428 315.817 253.473 315.817C252.522 315.817 251.811 316.306 251.515 317.114H251.432V315.909H249.835V323ZM264.595 323.138C266.672 323.138 267.992 321.675 267.992 319.482C267.992 317.285 266.672 315.817 264.595 315.817C262.517 315.817 261.197 317.285 261.197 319.482C261.197 321.675 262.517 323.138 264.595 323.138ZM264.604 321.8C263.455 321.8 262.891 320.775 262.891 319.478C262.891 318.18 263.455 317.142 264.604 317.142C265.735 317.142 266.298 318.18 266.298 319.478C266.298 320.775 265.735 321.8 264.604 321.8ZM272.042 323.125C273.261 323.125 273.81 322.4 274.074 321.883H274.175V323H275.819V313.545H274.143V317.082H274.074C273.82 316.569 273.298 315.817 272.047 315.817C270.408 315.817 269.12 317.1 269.12 319.464C269.12 321.8 270.371 323.125 272.042 323.125ZM272.509 321.754C271.405 321.754 270.824 320.784 270.824 319.455C270.824 318.134 271.396 317.188 272.509 317.188C273.584 317.188 274.175 318.079 274.175 319.455C274.175 320.83 273.575 321.754 272.509 321.754ZM280.739 323.138C282.391 323.138 283.527 322.331 283.822 321.098L282.262 320.923C282.036 321.523 281.482 321.837 280.762 321.837C279.681 321.837 278.966 321.126 278.952 319.912H283.892V319.399C283.892 316.911 282.396 315.817 280.651 315.817C278.62 315.817 277.295 317.308 277.295 319.496C277.295 321.721 278.601 323.138 280.739 323.138ZM278.957 318.785C279.007 317.88 279.677 317.119 280.674 317.119C281.634 317.119 282.28 317.82 282.29 318.785H278.957ZM285.305 323H286.977V318.831C286.977 317.931 287.655 317.294 288.574 317.294C288.856 317.294 289.206 317.345 289.349 317.391V315.854C289.197 315.826 288.934 315.808 288.749 315.808C287.937 315.808 287.258 316.269 287 317.091H286.926V315.909H285.305V323ZM292.361 323.143C293.473 323.143 294.138 322.621 294.443 322.026H294.498V323H296.105V318.254C296.105 316.38 294.576 315.817 293.224 315.817C291.733 315.817 290.588 316.482 290.219 317.774L291.779 317.996C291.945 317.511 292.416 317.096 293.233 317.096C294.009 317.096 294.433 317.493 294.433 318.19V318.217C294.433 318.697 293.93 318.721 292.679 318.854C291.303 319.002 289.988 319.413 289.988 321.01C289.988 322.404 291.008 323.143 292.361 323.143ZM292.795 321.915C292.097 321.915 291.599 321.597 291.599 320.983C291.599 320.341 292.157 320.073 292.905 319.967C293.344 319.907 294.221 319.796 294.438 319.621V320.456C294.438 321.246 293.801 321.915 292.795 321.915ZM300.416 323.125C301.635 323.125 302.184 322.4 302.448 321.883H302.549V323H304.193V313.545H302.517V317.082H302.448C302.194 316.569 301.672 315.817 300.421 315.817C298.782 315.817 297.494 317.1 297.494 319.464C297.494 321.8 298.745 323.125 300.416 323.125ZM300.883 321.754C299.779 321.754 299.198 320.784 299.198 319.455C299.198 318.134 299.77 317.188 300.883 317.188C301.958 317.188 302.549 318.079 302.549 319.455C302.549 320.83 301.949 321.754 300.883 321.754ZM309.066 323.138C311.144 323.138 312.464 321.675 312.464 319.482C312.464 317.285 311.144 315.817 309.066 315.817C306.989 315.817 305.669 317.285 305.669 319.482C305.669 321.675 306.989 323.138 309.066 323.138ZM309.076 321.8C307.926 321.8 307.363 320.775 307.363 319.478C307.363 318.18 307.926 317.142 309.076 317.142C310.207 317.142 310.77 318.18 310.77 319.478C310.77 320.775 310.207 321.8 309.076 321.8Z" fill="black"/>
<path d="M260 288.5C260 285.462 262.462 283 265.5 283H296.5C299.538 283 302 285.462 302 288.5V288.5C302 291.538 299.538 294 296.5 294H265.5C262.462 294 260 291.538 260 288.5V288.5Z" fill="#EF4F2B"/>
<g filter="url(#filter0_d)">
<path d="M19 26C19 21.5817 22.5817 18 27 18H349C353.418 18 357 21.5817 357 26V242C357 246.418 353.418 250 349 250H27C22.5817 250 19 246.418 19 242V26Z" fill="white"/>
</g>
<path d="M66 215C56.6112 215 49 207.389 49 198L49 61C49 51.6112 56.6112 44 66 44V44C75.3888 44 83 51.6112 83 61L83 198C83 207.389 75.3888 215 66 215V215Z" fill="#E8E8E8"/>
<path d="M66 214C56.6112 214 49 206.389 49 197L49 115C49 105.611 56.6112 98 66 98V98C75.3888 98 83 105.611 83 115L83 197C83 206.389 75.3888 214 66 214V214Z" fill="#24CE85"/>
<path d="M145 215C135.611 215 128 207.389 128 198L128 61C128 51.6112 135.611 44 145 44V44C154.389 44 162 51.6112 162 61L162 198C162 207.389 154.389 215 145 215V215Z" fill="#E8E8E8"/>
<path d="M145 214C135.611 214 128 206.389 128 197L128 146C128 136.611 135.611 129 145 129V129C154.389 129 162 136.611 162 146L162 197C162 206.389 154.389 214 145 214V214Z" fill="#4B7594"/>
<path d="M224 215C214.611 215 207 207.389 207 198L207 61C207 51.6112 214.611 44 224 44V44C233.389 44 241 51.6112 241 61L241 198C241 207.389 233.389 215 224 215V215Z" fill="#E8E8E8"/>
<path d="M224 215C214.611 215 207 207.389 207 198L207 174C207 164.611 214.611 157 224 157V157C233.389 157 241 164.611 241 174L241 198C241 207.389 233.389 215 224 215V215Z" fill="#4B7594"/>
<path d="M303 215C293.611 215 286 207.389 286 198L286 61C286 51.6112 293.611 44 303 44V44C312.389 44 320 51.6112 320 61L320 198C320 207.389 312.389 215 303 215V215Z" fill="#E8E8E8"/>
<path d="M303 214C293.611 214 286 206.389 286 197L286 167C286 157.611 293.611 150 303 150V150C312.389 150 320 157.611 320 167L320 197C320 206.389 312.389 214 303 214V214Z" fill="#EF4F2B"/>
<path d="M50.0085 224.545H48.2958V234H50.0085V224.545ZM55.3302 226.909H53.9314V225.21H52.2602V226.909H51.2538V228.202H52.2602V232.144C52.251 233.478 53.2204 234.134 54.4761 234.097C54.9516 234.083 55.2794 233.991 55.4594 233.931L55.1778 232.624C55.0855 232.647 54.8962 232.689 54.6885 232.689C54.2684 232.689 53.9314 232.541 53.9314 231.867V228.202H55.3302V226.909ZM59.7908 234.138C61.4435 234.138 62.5792 233.331 62.8746 232.098L61.3143 231.923C61.0881 232.523 60.5341 232.837 59.8139 232.837C58.7337 232.837 58.0181 232.126 58.0043 230.912H62.9439V230.399C62.9439 227.911 61.4482 226.817 59.7031 226.817C57.6719 226.817 56.3469 228.308 56.3469 230.496C56.3469 232.721 57.6534 234.138 59.7908 234.138ZM58.0089 229.785C58.0597 228.88 58.729 228.119 59.7262 228.119C60.6864 228.119 61.3327 228.82 61.342 229.785H58.0089ZM64.3577 234H66.0289V229.688C66.0289 228.816 66.6105 228.225 67.3307 228.225C68.037 228.225 68.5218 228.7 68.5218 229.43V234H70.1606V229.577C70.1606 228.779 70.6361 228.225 71.444 228.225C72.118 228.225 72.6535 228.622 72.6535 229.499V234H74.3293V229.24C74.3293 227.657 73.4152 226.817 72.1134 226.817C71.0839 226.817 70.2991 227.325 69.9852 228.114H69.9113C69.6389 227.311 68.9511 226.817 67.9955 226.817C67.0445 226.817 66.3335 227.306 66.0381 228.114H65.955V226.909H64.3577V234ZM83.0763 224.545H81.4467L79.0969 226.055V227.625L81.3082 226.212H81.3636V234H83.0763V224.545Z" fill="black"/>
<path d="M128.094 224.545H126.382V234H128.094V224.545ZM133.416 226.909H132.017V225.21H130.346V226.909H129.34V228.202H130.346V232.144C130.337 233.478 131.306 234.134 132.562 234.097C133.038 234.083 133.365 233.991 133.545 233.931L133.264 232.624C133.171 232.647 132.982 232.689 132.774 232.689C132.354 232.689 132.017 232.541 132.017 231.867V228.202H133.416V226.909ZM137.877 234.138C139.529 234.138 140.665 233.331 140.961 232.098L139.4 231.923C139.174 232.523 138.62 232.837 137.9 232.837C136.82 232.837 136.104 232.126 136.09 230.912H141.03V230.399C141.03 227.911 139.534 226.817 137.789 226.817C135.758 226.817 134.433 228.308 134.433 230.496C134.433 232.721 135.739 234.138 137.877 234.138ZM136.095 229.785C136.146 228.88 136.815 228.119 137.812 228.119C138.772 228.119 139.419 228.82 139.428 229.785H136.095ZM142.444 234H144.115V229.688C144.115 228.816 144.696 228.225 145.417 228.225C146.123 228.225 146.608 228.7 146.608 229.43V234H148.247V229.577C148.247 228.779 148.722 228.225 149.53 228.225C150.204 228.225 150.739 228.622 150.739 229.499V234H152.415V229.24C152.415 227.657 151.501 226.817 150.199 226.817C149.17 226.817 148.385 227.325 148.071 228.114H147.997C147.725 227.311 147.037 226.817 146.081 226.817C145.13 226.817 144.419 227.306 144.124 228.114H144.041V226.909H142.444V234ZM157.317 234H163.798V232.569H159.68V232.504L161.31 230.847C163.147 229.083 163.655 228.225 163.655 227.158C163.655 225.575 162.367 224.416 160.465 224.416C158.591 224.416 157.261 225.58 157.261 227.375H158.891C158.891 226.411 159.5 225.806 160.442 225.806C161.342 225.806 162.012 226.355 162.012 227.246C162.012 228.036 161.532 228.599 160.599 229.545L157.317 232.763V234Z" fill="black"/>
<path d="M206.898 224.545H205.185V234H206.898V224.545ZM212.219 226.909H210.821V225.21H209.149V226.909H208.143V228.202H209.149V232.144C209.14 233.478 210.11 234.134 211.365 234.097C211.841 234.083 212.169 233.991 212.349 233.931L212.067 232.624C211.975 232.647 211.785 232.689 211.578 232.689C211.158 232.689 210.821 232.541 210.821 231.867V228.202H212.219V226.909ZM216.68 234.138C218.333 234.138 219.468 233.331 219.764 232.098L218.203 231.923C217.977 232.523 217.423 232.837 216.703 232.837C215.623 232.837 214.907 232.126 214.893 230.912H219.833V230.399C219.833 227.911 218.337 226.817 216.592 226.817C214.561 226.817 213.236 228.308 213.236 230.496C213.236 232.721 214.543 234.138 216.68 234.138ZM214.898 229.785C214.949 228.88 215.618 228.119 216.615 228.119C217.576 228.119 218.222 228.82 218.231 229.785H214.898ZM221.247 234H222.918V229.688C222.918 228.816 223.5 228.225 224.22 228.225C224.926 228.225 225.411 228.7 225.411 229.43V234H227.05V229.577C227.05 228.779 227.525 228.225 228.333 228.225C229.007 228.225 229.543 228.622 229.543 229.499V234H231.218V229.24C231.218 227.657 230.304 226.817 229.003 226.817C227.973 226.817 227.188 227.325 226.874 228.114H226.8C226.528 227.311 225.84 226.817 224.885 226.817C223.934 226.817 223.223 227.306 222.927 228.114H222.844V226.909H221.247V234ZM239.513 234.129C241.535 234.129 243.008 232.971 243.003 231.373C243.008 230.191 242.269 229.342 240.944 229.153V229.079C241.969 228.857 242.657 228.096 242.652 227.034C242.657 225.593 241.429 224.416 239.541 224.416C237.703 224.416 236.282 225.51 236.245 227.094H237.893C237.92 226.3 238.659 225.806 239.532 225.806C240.413 225.806 241 226.341 240.995 227.135C241 227.962 240.316 228.511 239.338 228.511H238.502V229.831H239.338C240.533 229.831 241.244 230.431 241.24 231.286C241.244 232.121 240.519 232.694 239.508 232.694C238.557 232.694 237.823 232.2 237.782 231.429H236.046C236.092 233.026 237.519 234.129 239.513 234.129Z" fill="black"/>
<path d="M285.802 224.545H284.09V234H285.802V224.545ZM291.124 226.909H289.725V225.21H288.054V226.909H287.048V228.202H288.054V232.144C288.045 233.478 289.014 234.134 290.27 234.097C290.746 234.083 291.073 233.991 291.253 233.931L290.972 232.624C290.879 232.647 290.69 232.689 290.482 232.689C290.062 232.689 289.725 232.541 289.725 231.867V228.202H291.124V226.909ZM295.585 234.138C297.237 234.138 298.373 233.331 298.669 232.098L297.108 231.923C296.882 232.523 296.328 232.837 295.608 232.837C294.528 232.837 293.812 232.126 293.798 230.912H298.738V230.399C298.738 227.911 297.242 226.817 295.497 226.817C293.466 226.817 292.141 228.308 292.141 230.496C292.141 232.721 293.447 234.138 295.585 234.138ZM293.803 229.785C293.854 228.88 294.523 228.119 295.52 228.119C296.48 228.119 297.127 228.82 297.136 229.785H293.803ZM300.152 234H301.823V229.688C301.823 228.816 302.404 228.225 303.125 228.225C303.831 228.225 304.316 228.7 304.316 229.43V234H305.955V229.577C305.955 228.779 306.43 228.225 307.238 228.225C307.912 228.225 308.447 228.622 308.447 229.499V234H310.123V229.24C310.123 227.657 309.209 226.817 307.907 226.817C306.878 226.817 306.093 227.325 305.779 228.114H305.705C305.433 227.311 304.745 226.817 303.789 226.817C302.838 226.817 302.127 227.306 301.832 228.114H301.749V226.909H300.152V234ZM314.854 232.246H319.364V234H320.998V232.246H322.208V230.838H320.998V224.545H318.866L314.854 230.884V232.246ZM319.383 230.838H316.608V230.764L319.309 226.484H319.383V230.838Z" fill="black"/>
<defs>
<filter id="filter0_d" x="-1" y="0" width="378" height="272" filterUnits="userSpaceOnUse" color-interpolation-filters="sRGB">
<feFlood flood-opacity="0" result="BackgroundImageFix"/>
<feColorMatrix in="SourceAlpha" type="matrix" values="0 0 0 0 0 0 0 0 0 0 0 0 0 0 0 0 0 0 127 0"/>
<feOffset dy="2"/>
<feGaussianBlur stdDeviation="10"/>
<feColorMatrix type="matrix" values="0 0 0 0 0.148369 0 0 0 0 0.140937 0 0 0 0 0.5125 0 0 0 0.25 0"/>
<feBlend mode="normal" in2="BackgroundImageFix" result="effect1_dropShadow"/>
<feBlend mode="normal" in="SourceGraphic" in2="effect1_dropShadow" result="shape"/>
</filter>
</defs>
</svg>
