<svg width="352" height="416" viewBox="0 0 352 416" fill="none" xmlns="http://www.w3.org/2000/svg">
<path d="M3.5 391C3.5 377.469 14.469 366.5 28 366.5H321C334.531 366.5 345.5 377.469 345.5 391C345.5 404.531 334.531 415.5 321 415.5H28C14.469 415.5 3.5 404.531 3.5 391Z" fill="#F6F6F6" stroke="#E8E8E8"/>
<path d="M238.961 388.42H240.654C240.603 386.557 238.955 385.205 236.592 385.205C234.256 385.205 232.467 386.54 232.467 388.545C232.467 390.165 233.626 391.114 235.495 391.619L236.87 391.994C238.114 392.324 239.075 392.733 239.075 393.767C239.075 394.903 237.989 395.653 236.495 395.653C235.143 395.653 234.018 395.051 233.915 393.784H232.154C232.268 395.892 233.898 397.193 236.506 397.193C239.239 397.193 240.813 395.756 240.813 393.784C240.813 391.688 238.944 390.875 237.467 390.511L236.33 390.216C235.421 389.983 234.211 389.557 234.217 388.443C234.217 387.455 235.12 386.722 236.552 386.722C237.887 386.722 238.836 387.347 238.961 388.42ZM246.536 397.176C248.44 397.176 249.786 396.239 250.173 394.818L248.565 394.528C248.258 395.352 247.519 395.773 246.553 395.773C245.099 395.773 244.121 394.83 244.076 393.148H250.281V392.545C250.281 389.392 248.394 388.159 246.417 388.159C243.985 388.159 242.383 390.011 242.383 392.693C242.383 395.403 243.962 397.176 246.536 397.176ZM244.082 391.875C244.15 390.636 245.048 389.562 246.428 389.562C247.746 389.562 248.61 390.54 248.616 391.875H244.082ZM254.705 397.193C256.148 397.193 256.961 396.46 257.285 395.807H257.353V397H259.012V391.205C259.012 388.665 257.012 388.159 255.626 388.159C254.046 388.159 252.592 388.795 252.023 390.386L253.62 390.75C253.87 390.131 254.506 389.534 255.648 389.534C256.745 389.534 257.308 390.108 257.308 391.097V391.136C257.308 391.756 256.671 391.744 255.103 391.926C253.45 392.119 251.756 392.551 251.756 394.534C251.756 396.25 253.046 397.193 254.705 397.193ZM255.075 395.83C254.114 395.83 253.421 395.398 253.421 394.557C253.421 393.648 254.228 393.324 255.211 393.193C255.762 393.119 257.069 392.972 257.313 392.727V393.852C257.313 394.886 256.489 395.83 255.075 395.83ZM261.275 397H262.974V391.67C262.974 390.528 263.854 389.705 265.059 389.705C265.411 389.705 265.809 389.767 265.945 389.807V388.182C265.775 388.159 265.44 388.142 265.224 388.142C264.201 388.142 263.326 388.722 263.008 389.659H262.917V388.273H261.275V397ZM270.779 397.176C272.842 397.176 274.177 395.938 274.364 394.239H272.711C272.495 395.182 271.762 395.739 270.79 395.739C269.353 395.739 268.427 394.54 268.427 392.636C268.427 390.767 269.37 389.591 270.79 389.591C271.87 389.591 272.529 390.273 272.711 391.091H274.364C274.183 389.33 272.745 388.159 270.762 388.159C268.302 388.159 266.711 390.011 266.711 392.676C266.711 395.307 268.245 397.176 270.779 397.176ZM277.88 391.818C277.88 390.426 278.761 389.631 279.971 389.631C281.141 389.631 281.84 390.375 281.84 391.653V397H283.539V391.449C283.539 389.273 282.346 388.159 280.55 388.159C279.192 388.159 278.374 388.75 277.965 389.693H277.857V385.364H276.181V397H277.88V391.818Z" fill="#BDBDBD"/>
<path d="M84.6406 388.42H86.3338C86.2827 386.557 84.6349 385.205 82.2713 385.205C79.9361 385.205 78.1463 386.54 78.1463 388.545C78.1463 390.165 79.3054 391.114 81.1747 391.619L82.5497 391.994C83.794 392.324 84.7543 392.733 84.7543 393.767C84.7543 394.903 83.669 395.653 82.1747 395.653C80.8224 395.653 79.6974 395.051 79.5952 393.784H77.8338C77.9474 395.892 79.5781 397.193 82.1861 397.193C84.919 397.193 86.4929 395.756 86.4929 393.784C86.4929 391.688 84.6236 390.875 83.1463 390.511L82.0099 390.216C81.1009 389.983 79.8906 389.557 79.8963 388.443C79.8963 387.455 80.7997 386.722 82.2315 386.722C83.5668 386.722 84.5156 387.347 84.6406 388.42ZM90.3466 385.364H88.5909V397H90.3466V385.364ZM92.9034 385.364V397H94.5739V388.574H94.6818L98.1136 396.983H99.5L102.932 388.58H103.04V397H104.71V385.364H102.58L98.875 394.409H98.7386L95.0341 385.364H92.9034Z" fill="#BDBDBD"/>
<path d="M172 391C172 378.297 182.297 368 195 368H320.5C333.203 368 343.5 378.297 343.5 391C343.5 403.703 333.203 414 320.5 414H195C182.297 414 172 403.703 172 391Z" fill="white"/>
<path d="M251.07 385.364H248.973V393.295H248.871L243.393 385.364H241.507V397H243.615V389.074H243.712L249.195 397H251.07V385.364ZM254.861 397L255.821 394.131H260.196L261.162 397H263.412L259.31 385.364H256.707L252.611 397H254.861ZM256.338 384.216C256.338 383.699 256.622 383.352 257.026 383.352C257.366 383.352 257.599 383.517 257.849 383.699C258.162 383.92 258.509 384.165 259.111 384.159C260.122 384.153 260.912 383.369 260.923 382.017L259.702 381.966C259.696 382.472 259.423 382.835 258.991 382.835C258.662 382.835 258.406 382.665 258.128 382.483C257.798 382.267 257.44 382.028 256.906 382.028C255.889 382.028 255.094 382.835 255.094 384.188L256.338 384.216ZM256.389 392.438L257.963 387.75H258.054L259.628 392.438H256.389ZM274.795 391.182C274.795 387.42 272.5 385.205 269.449 385.205C266.392 385.205 264.102 387.42 264.102 391.182C264.102 394.938 266.392 397.159 269.449 397.159C272.5 397.159 274.795 394.943 274.795 391.182ZM272.676 391.182C272.676 393.83 271.347 395.267 269.449 395.267C267.557 395.267 266.222 393.83 266.222 391.182C266.222 388.534 267.557 387.097 269.449 387.097C271.347 387.097 272.676 388.534 272.676 391.182Z" fill="#B02334"/>
<g filter="url(#filter0_d)">
<rect x="4" width="344" height="87" rx="8" fill="white"/>
</g>
<path d="M21.326 16.3636H19.218V28H21.326V16.3636ZM26.7564 28.1534C28.2564 28.1534 28.9325 27.2614 29.2564 26.625H29.3814V28H31.4041V16.3636H29.3416V20.7159H29.2564C28.9439 20.0852 28.3018 19.1591 26.7621 19.1591C24.745 19.1591 23.1598 20.7386 23.1598 23.6477C23.1598 26.5227 24.6996 28.1534 26.7564 28.1534ZM27.3303 26.4659C25.9723 26.4659 25.2564 25.2727 25.2564 23.6364C25.2564 22.0114 25.9609 20.8466 27.3303 20.8466C28.6541 20.8466 29.3814 21.9432 29.3814 23.6364C29.3814 25.3295 28.6428 26.4659 27.3303 26.4659ZM37.4595 28.1705C39.4936 28.1705 40.8913 27.1761 41.255 25.6591L39.3345 25.4432C39.0561 26.1818 38.3743 26.5682 37.4879 26.5682C36.1584 26.5682 35.2777 25.6932 35.2607 24.1989H41.3402V23.5682C41.3402 20.5057 39.4993 19.1591 37.3516 19.1591C34.8516 19.1591 33.2209 20.9943 33.2209 23.6875C33.2209 26.4261 34.8288 28.1705 37.4595 28.1705ZM35.2663 22.8125C35.3288 21.6989 36.1527 20.7614 37.38 20.7614C38.5618 20.7614 39.3572 21.625 39.3686 22.8125H35.2663ZM45.1371 22.8864C45.1371 21.625 45.8984 20.8977 46.9837 20.8977C48.0462 20.8977 48.6825 21.5966 48.6825 22.7614V28H50.7393V22.4432C50.745 20.3523 49.5518 19.1591 47.7507 19.1591C46.4439 19.1591 45.5462 19.7841 45.1484 20.7557H45.0462V19.2727H43.0803V28H45.1371V22.8864ZM57.1882 19.2727H55.4666V17.1818H53.4098V19.2727H52.1712V20.8636H53.4098V25.7159C53.3984 27.358 54.5916 28.1648 56.1371 28.1193C56.7223 28.1023 57.1257 27.9886 57.3473 27.9148L57.0007 26.3068C56.8871 26.3352 56.6541 26.3864 56.3984 26.3864C55.8814 26.3864 55.4666 26.2045 55.4666 25.375V20.8636H57.1882V19.2727ZM58.9084 28H60.9652V19.2727H58.9084V28ZM59.9425 18.0341C60.5959 18.0341 61.13 17.5341 61.13 16.9205C61.13 16.3011 60.5959 15.8011 59.9425 15.8011C59.2834 15.8011 58.7493 16.3011 58.7493 16.9205C58.7493 17.5341 59.2834 18.0341 59.9425 18.0341ZM67.5007 19.2727H65.6882V18.5852C65.6882 17.9034 65.9723 17.5227 66.7393 17.5227C67.0632 17.5227 67.3359 17.5966 67.5064 17.6477L67.9212 16.0568C67.6541 15.9659 67.0689 15.8182 66.3587 15.8182C64.8416 15.8182 63.6314 16.6875 63.6314 18.4489V19.2727H62.3416V20.8636H63.6314V28H65.6882V20.8636H67.5007V19.2727ZM69.1115 28H71.1683V19.2727H69.1115V28ZM70.1456 18.0341C70.799 18.0341 71.3331 17.5341 71.3331 16.9205C71.3331 16.3011 70.799 15.8011 70.1456 15.8011C69.4865 15.8011 68.9524 16.3011 68.9524 16.9205C68.9524 17.5341 69.4865 18.0341 70.1456 18.0341ZM77.0902 28.1705C79.2834 28.1705 80.6811 26.8693 80.8288 25.017H78.8629C78.6868 25.9545 78.0107 26.4943 77.1072 26.4943C75.8232 26.4943 74.9936 25.4205 74.9936 23.6364C74.9936 21.875 75.8402 20.8182 77.1072 20.8182C78.0959 20.8182 78.7038 21.4545 78.8629 22.2955H80.8288C80.6868 20.4034 79.2095 19.1591 77.0788 19.1591C74.522 19.1591 72.9084 21.0057 72.9084 23.6705C72.9084 26.3125 74.4822 28.1705 77.0902 28.1705ZM85.0291 28.1761C86.3984 28.1761 87.2166 27.5341 87.5916 26.8011H87.6598V28H89.6371V22.1591C89.6371 19.8523 87.7564 19.1591 86.0916 19.1591C84.2564 19.1591 82.8473 19.9773 82.3928 21.5682L84.3132 21.8409C84.5178 21.2443 85.0973 20.733 86.103 20.733C87.0575 20.733 87.5803 21.2216 87.5803 22.0795V22.1136C87.5803 22.7045 86.9609 22.733 85.4212 22.8977C83.728 23.0795 82.1087 23.5852 82.1087 25.5511C82.1087 27.267 83.3643 28.1761 85.0291 28.1761ZM85.5632 26.6648C84.7053 26.6648 84.0916 26.2727 84.0916 25.517C84.0916 24.7273 84.7791 24.3977 85.6996 24.267C86.2393 24.1932 87.3189 24.0568 87.5859 23.8409V24.8693C87.5859 25.8409 86.8018 26.6648 85.5632 26.6648ZM91.7053 28H93.7621V22.6932C93.7621 21.6193 94.478 20.892 95.3643 20.892C96.2337 20.892 96.8303 21.4773 96.8303 22.375V28H98.8473V22.5568C98.8473 21.5739 99.4325 20.892 100.427 20.892C101.256 20.892 101.915 21.3807 101.915 22.4602V28H103.978V22.142C103.978 20.1932 102.853 19.1591 101.251 19.1591C99.9837 19.1591 99.0178 19.7841 98.6314 20.7557H98.5405C98.2053 19.767 97.3587 19.1591 96.1825 19.1591C95.0121 19.1591 94.1371 19.7614 93.7734 20.7557H93.6712V19.2727H91.7053V28ZM109.871 28.1705C112.428 28.1705 114.053 26.3693 114.053 23.6705C114.053 20.9659 112.428 19.1591 109.871 19.1591C107.315 19.1591 105.69 20.9659 105.69 23.6705C105.69 26.3693 107.315 28.1705 109.871 28.1705ZM109.883 26.5227C108.468 26.5227 107.775 25.2614 107.775 23.6648C107.775 22.0682 108.468 20.7898 109.883 20.7898C111.275 20.7898 111.968 22.0682 111.968 23.6648C111.968 25.2614 111.275 26.5227 109.883 26.5227ZM122.697 21.5795C122.413 20.1023 121.231 19.1591 119.185 19.1591C117.083 19.1591 115.651 20.1932 115.657 21.8068C115.651 23.0795 116.435 23.9205 118.112 24.267L119.6 24.5795C120.401 24.7557 120.776 25.0795 120.776 25.5739C120.776 26.1705 120.129 26.6193 119.151 26.6193C118.208 26.6193 117.594 26.2102 117.418 25.4261L115.413 25.6193C115.668 27.2216 117.015 28.1705 119.157 28.1705C121.339 28.1705 122.879 27.0398 122.884 25.3864C122.879 24.142 122.077 23.3807 120.43 23.0227L118.941 22.7045C118.055 22.5057 117.702 22.1989 117.708 21.6932C117.702 21.1023 118.356 20.6932 119.214 20.6932C120.163 20.6932 120.663 21.2102 120.822 21.7841L122.697 21.5795ZM136.43 31.2727V19.2727H134.407V20.7159H134.288C133.975 20.0852 133.333 19.1591 131.793 19.1591C129.776 19.1591 128.191 20.7386 128.191 23.6477C128.191 26.5227 129.731 28.1534 131.788 28.1534C133.288 28.1534 133.964 27.2614 134.288 26.625H134.373V31.2727H136.43ZM134.413 23.6364C134.413 25.3295 133.674 26.4659 132.362 26.4659C131.004 26.4659 130.288 25.2727 130.288 23.6364C130.288 22.0114 130.992 20.8466 132.362 20.8466C133.685 20.8466 134.413 21.9432 134.413 23.6364ZM144.112 24.3295C144.112 25.6591 143.163 26.3182 142.254 26.3182C141.265 26.3182 140.606 25.6193 140.606 24.5114V19.2727H138.549V24.8295C138.549 26.9261 139.742 28.1136 141.458 28.1136C142.765 28.1136 143.685 27.4261 144.083 26.4489H144.174V28H146.168V19.2727H144.112V24.3295ZM152.147 28.1705C154.181 28.1705 155.579 27.1761 155.942 25.6591L154.022 25.4432C153.744 26.1818 153.062 26.5682 152.175 26.5682C150.846 26.5682 149.965 25.6932 149.948 24.1989H156.028V23.5682C156.028 20.5057 154.187 19.1591 152.039 19.1591C149.539 19.1591 147.908 20.9943 147.908 23.6875C147.908 26.4261 149.516 28.1705 152.147 28.1705ZM149.954 22.8125C150.016 21.6989 150.84 20.7614 152.067 20.7614C153.249 20.7614 154.045 21.625 154.056 22.8125H149.954ZM168.634 21.5795C168.35 20.1023 167.168 19.1591 165.123 19.1591C163.021 19.1591 161.589 20.1932 161.594 21.8068C161.589 23.0795 162.373 23.9205 164.049 24.267L165.538 24.5795C166.339 24.7557 166.714 25.0795 166.714 25.5739C166.714 26.1705 166.066 26.6193 165.089 26.6193C164.146 26.6193 163.532 26.2102 163.356 25.4261L161.35 25.6193C161.606 27.2216 162.952 28.1705 165.094 28.1705C167.276 28.1705 168.816 27.0398 168.822 25.3864C168.816 24.142 168.015 23.3807 166.367 23.0227L164.879 22.7045C163.992 22.5057 163.64 22.1989 163.646 21.6932C163.64 21.1023 164.293 20.6932 165.151 20.6932C166.1 20.6932 166.6 21.2102 166.759 21.7841L168.634 21.5795ZM174.381 28.1705C176.415 28.1705 177.813 27.1761 178.177 25.6591L176.256 25.4432C175.978 26.1818 175.296 26.5682 174.41 26.5682C173.08 26.5682 172.2 25.6932 172.183 24.1989H178.262V23.5682C178.262 20.5057 176.421 19.1591 174.273 19.1591C171.773 19.1591 170.143 20.9943 170.143 23.6875C170.143 26.4261 171.751 28.1705 174.381 28.1705ZM172.188 22.8125C172.251 21.6989 173.075 20.7614 174.302 20.7614C175.484 20.7614 176.279 21.625 176.29 22.8125H172.188ZM185.565 24.3295C185.565 25.6591 184.616 26.3182 183.707 26.3182C182.718 26.3182 182.059 25.6193 182.059 24.5114V19.2727H180.002V24.8295C180.002 26.9261 181.195 28.1136 182.911 28.1136C184.218 28.1136 185.138 27.4261 185.536 26.4489H185.627V28H187.621V19.2727H185.565V24.3295ZM193.705 31.2727H195.762V26.625H195.847C196.171 27.2614 196.847 28.1534 198.347 28.1534C200.404 28.1534 201.944 26.5227 201.944 23.6477C201.944 20.7386 200.359 19.1591 198.342 19.1591C196.802 19.1591 196.16 20.0852 195.847 20.7159H195.728V19.2727H193.705V31.2727ZM195.722 23.6364C195.722 21.9432 196.45 20.8466 197.773 20.8466C199.143 20.8466 199.847 22.0114 199.847 23.6364C199.847 25.2727 199.131 26.4659 197.773 26.4659C196.461 26.4659 195.722 25.3295 195.722 23.6364ZM207.569 28.1705C209.603 28.1705 211.001 27.1761 211.364 25.6591L209.444 25.4432C209.165 26.1818 208.484 26.5682 207.597 26.5682C206.268 26.5682 205.387 25.6932 205.37 24.1989H211.45V23.5682C211.45 20.5057 209.609 19.1591 207.461 19.1591C204.961 19.1591 203.33 20.9943 203.33 23.6875C203.33 26.4261 204.938 28.1705 207.569 28.1705ZM205.376 22.8125C205.438 21.6989 206.262 20.7614 207.489 20.7614C208.671 20.7614 209.467 21.625 209.478 22.8125H205.376ZM213.19 28H215.246V22.8693C215.246 21.7614 216.082 20.9773 217.212 20.9773C217.559 20.9773 217.991 21.0398 218.167 21.0966V19.2045C217.979 19.1705 217.656 19.1477 217.428 19.1477C216.428 19.1477 215.593 19.7159 215.275 20.7273H215.184V19.2727H213.19V28ZM224.423 19.2727H222.61V18.5852C222.61 17.9034 222.894 17.5227 223.661 17.5227C223.985 17.5227 224.258 17.5966 224.428 17.6477L224.843 16.0568C224.576 15.9659 223.991 15.8182 223.281 15.8182C221.763 15.8182 220.553 16.6875 220.553 18.4489V19.2727H219.263V20.8636H220.553V28H222.61V20.8636H224.423V19.2727ZM226.033 28H228.09V19.2727H226.033V28ZM227.067 18.0341C227.721 18.0341 228.255 17.5341 228.255 16.9205C228.255 16.3011 227.721 15.8011 227.067 15.8011C226.408 15.8011 225.874 16.3011 225.874 16.9205C225.874 17.5341 226.408 18.0341 227.067 18.0341ZM232.262 16.3636H230.205V28H232.262V16.3636ZM242.21 28.1705C244.244 28.1705 245.641 27.1761 246.005 25.6591L244.085 25.4432C243.806 26.1818 243.124 26.5682 242.238 26.5682C240.908 26.5682 240.028 25.6932 240.011 24.1989H246.09V23.5682C246.09 20.5057 244.249 19.1591 242.102 19.1591C239.602 19.1591 237.971 20.9943 237.971 23.6875C237.971 26.4261 239.579 28.1705 242.21 28.1705ZM240.016 22.8125C240.079 21.6989 240.903 20.7614 242.13 20.7614C243.312 20.7614 244.107 21.625 244.119 22.8125H240.016ZM241.255 18.125H242.795L244.539 15.5284H242.528L241.255 18.125ZM251.799 28H253.856V22.6932C253.856 21.6193 254.572 20.892 255.458 20.892C256.327 20.892 256.924 21.4773 256.924 22.375V28H258.941V22.5568C258.941 21.5739 259.526 20.892 260.521 20.892C261.35 20.892 262.009 21.3807 262.009 22.4602V28H264.072V22.142C264.072 20.1932 262.947 19.1591 261.344 19.1591C260.077 19.1591 259.112 19.7841 258.725 20.7557H258.634C258.299 19.767 257.452 19.1591 256.276 19.1591C255.106 19.1591 254.231 19.7614 253.867 20.7557H253.765V19.2727H251.799V28ZM269.965 28.1705C272.522 28.1705 274.147 26.3693 274.147 23.6705C274.147 20.9659 272.522 19.1591 269.965 19.1591C267.408 19.1591 265.783 20.9659 265.783 23.6705C265.783 26.3693 267.408 28.1705 269.965 28.1705ZM269.977 26.5227C268.562 26.5227 267.869 25.2614 267.869 23.6648C267.869 22.0682 268.562 20.7898 269.977 20.7898C271.369 20.7898 272.062 22.0682 272.062 23.6648C272.062 25.2614 271.369 26.5227 269.977 26.5227ZM279.131 28.1534C280.631 28.1534 281.308 27.2614 281.631 26.625H281.756V28H283.779V16.3636H281.717V20.7159H281.631C281.319 20.0852 280.677 19.1591 279.137 19.1591C277.12 19.1591 275.535 20.7386 275.535 23.6477C275.535 26.5227 277.075 28.1534 279.131 28.1534ZM279.705 26.4659C278.347 26.4659 277.631 25.2727 277.631 23.6364C277.631 22.0114 278.336 20.8466 279.705 20.8466C281.029 20.8466 281.756 21.9432 281.756 23.6364C281.756 25.3295 281.018 26.4659 279.705 26.4659ZM289.835 28.1705C291.869 28.1705 293.266 27.1761 293.63 25.6591L291.71 25.4432C291.431 26.1818 290.749 26.5682 289.863 26.5682C288.533 26.5682 287.653 25.6932 287.636 24.1989H293.715V23.5682C293.715 20.5057 291.874 19.1591 289.727 19.1591C287.227 19.1591 285.596 20.9943 285.596 23.6875C285.596 26.4261 287.204 28.1705 289.835 28.1705ZM287.641 22.8125C287.704 21.6989 288.528 20.7614 289.755 20.7614C290.937 20.7614 291.732 21.625 291.744 22.8125H287.641ZM295.455 28H297.512V22.8693C297.512 21.7614 298.347 20.9773 299.478 20.9773C299.825 20.9773 300.256 21.0398 300.433 21.0966V19.2045C300.245 19.1705 299.921 19.1477 299.694 19.1477C298.694 19.1477 297.859 19.7159 297.54 20.7273H297.45V19.2727H295.455V28ZM304.138 28.1761C305.508 28.1761 306.326 27.5341 306.701 26.8011H306.769V28H308.746V22.1591C308.746 19.8523 306.866 19.1591 305.201 19.1591C303.366 19.1591 301.957 19.9773 301.502 21.5682L303.423 21.8409C303.627 21.2443 304.207 20.733 305.212 20.733C306.167 20.733 306.69 21.2216 306.69 22.0795V22.1136C306.69 22.7045 306.07 22.733 304.531 22.8977C302.837 23.0795 301.218 23.5852 301.218 25.5511C301.218 27.267 302.474 28.1761 304.138 28.1761ZM304.673 26.6648C303.815 26.6648 303.201 26.2727 303.201 25.517C303.201 24.7273 303.888 24.3977 304.809 24.267C305.349 24.1932 306.428 24.0568 306.695 23.8409V24.8693C306.695 25.8409 305.911 26.6648 304.673 26.6648ZM314.053 28.1534C315.553 28.1534 316.229 27.2614 316.553 26.625H316.678V28H318.701V16.3636H316.638V20.7159H316.553C316.241 20.0852 315.599 19.1591 314.059 19.1591C312.042 19.1591 310.457 20.7386 310.457 23.6477C310.457 26.5227 311.996 28.1534 314.053 28.1534ZM314.627 26.4659C313.269 26.4659 312.553 25.2727 312.553 23.6364C312.553 22.0114 313.258 20.8466 314.627 20.8466C315.951 20.8466 316.678 21.9432 316.678 23.6364C316.678 25.3295 315.94 26.4659 314.627 26.4659ZM324.7 28.1705C327.256 28.1705 328.881 26.3693 328.881 23.6705C328.881 20.9659 327.256 19.1591 324.7 19.1591C322.143 19.1591 320.518 20.9659 320.518 23.6705C320.518 26.3693 322.143 28.1705 324.7 28.1705ZM324.711 26.5227C323.296 26.5227 322.603 25.2614 322.603 23.6648C322.603 22.0682 323.296 20.7898 324.711 20.7898C326.103 20.7898 326.796 22.0682 326.796 23.6648C326.796 25.2614 326.103 26.5227 324.711 26.5227ZM333.042 26.4091H331.224L331.184 27.0455C331.087 28.5852 330.684 30.1534 330.519 30.8409H331.906C332.178 30.125 332.809 28.4659 332.968 27.0341L333.042 26.4091ZM34.326 47.1761C35.6953 47.1761 36.5135 46.5341 36.8885 45.8011H36.9567V47H38.9339V41.1591C38.9339 38.8523 37.0533 38.1591 35.3885 38.1591C33.5533 38.1591 32.1442 38.9773 31.6896 40.5682L33.6101 40.8409C33.8146 40.2443 34.3942 39.733 35.3999 39.733C36.3544 39.733 36.8771 40.2216 36.8771 41.0795V41.1136C36.8771 41.7045 36.2578 41.733 34.718 41.8977C33.0249 42.0795 31.4055 42.5852 31.4055 44.5511C31.4055 46.267 32.6612 47.1761 34.326 47.1761ZM34.8601 45.6648C34.0021 45.6648 33.3885 45.2727 33.3885 44.517C33.3885 43.7273 34.076 43.3977 34.9964 43.267C35.5362 43.1932 36.6158 43.0568 36.8828 42.8409V43.8693C36.8828 44.8409 36.0987 45.6648 34.8601 45.6648ZM47.8999 40.5795C47.6158 39.1023 46.4339 38.1591 44.3885 38.1591C42.2862 38.1591 40.8544 39.1932 40.8601 40.8068C40.8544 42.0795 41.6385 42.9205 43.3146 43.267L44.8033 43.5795C45.6044 43.7557 45.9794 44.0795 45.9794 44.5739C45.9794 45.1705 45.3317 45.6193 44.3544 45.6193C43.4112 45.6193 42.7976 45.2102 42.6214 44.4261L40.6158 44.6193C40.8714 46.2216 42.218 47.1705 44.3601 47.1705C46.5419 47.1705 48.0817 46.0398 48.0874 44.3864C48.0817 43.142 47.2805 42.3807 45.6328 42.0227L44.1442 41.7045C43.2578 41.5057 42.9055 41.1989 42.9112 40.6932C42.9055 40.1023 43.5589 39.6932 44.4169 39.6932C45.3658 39.6932 45.8658 40.2102 46.0249 40.7841L47.8999 40.5795ZM56.6811 40.5795C56.397 39.1023 55.2152 38.1591 53.1697 38.1591C51.0675 38.1591 49.6357 39.1932 49.6413 40.8068C49.6357 42.0795 50.4197 42.9205 52.0959 43.267L53.5845 43.5795C54.3857 43.7557 54.7607 44.0795 54.7607 44.5739C54.7607 45.1705 54.1129 45.6193 53.1357 45.6193C52.1925 45.6193 51.5788 45.2102 51.4027 44.4261L49.397 44.6193C49.6527 46.2216 50.9993 47.1705 53.1413 47.1705C55.3232 47.1705 56.8629 46.0398 56.8686 44.3864C56.8629 43.142 56.0618 42.3807 54.4141 42.0227L52.9254 41.7045C52.0391 41.5057 51.6868 41.1989 51.6925 40.6932C51.6868 40.1023 52.3402 39.6932 53.1982 39.6932C54.147 39.6932 54.647 40.2102 54.8061 40.7841L56.6811 40.5795ZM58.5646 47H60.6214V38.2727H58.5646V47ZM59.5987 37.0341C60.2521 37.0341 60.7862 36.5341 60.7862 35.9205C60.7862 35.3011 60.2521 34.8011 59.5987 34.8011C58.9396 34.8011 58.4055 35.3011 58.4055 35.9205C58.4055 36.5341 58.9396 37.0341 59.5987 37.0341ZM62.7365 47H64.7933V41.6932C64.7933 40.6193 65.5092 39.892 66.3956 39.892C67.2649 39.892 67.8615 40.4773 67.8615 41.375V47H69.8786V41.5568C69.8786 40.5739 70.4638 39.892 71.4581 39.892C72.2876 39.892 72.9467 40.3807 72.9467 41.4602V47H75.0092V41.142C75.0092 39.1932 73.8842 38.1591 72.282 38.1591C71.0149 38.1591 70.049 38.7841 69.6626 39.7557H69.5717C69.2365 38.767 68.3899 38.1591 67.2138 38.1591C66.0433 38.1591 65.1683 38.7614 64.8047 39.7557H64.7024V38.2727H62.7365V47ZM79.5107 45.4091H77.6925L77.6527 46.0455C77.5561 47.5852 77.1527 49.1534 76.9879 49.8409H78.3743C78.647 49.125 79.2777 47.4659 79.4368 46.0341L79.5107 45.4091ZM89.2308 47.1705C91.7876 47.1705 93.4126 45.3693 93.4126 42.6705C93.4126 39.9659 91.7876 38.1591 89.2308 38.1591C86.674 38.1591 85.049 39.9659 85.049 42.6705C85.049 45.3693 86.674 47.1705 89.2308 47.1705ZM89.2422 45.5227C87.8274 45.5227 87.1342 44.2614 87.1342 42.6648C87.1342 41.0682 87.8274 39.7898 89.2422 39.7898C90.6342 39.7898 91.3274 41.0682 91.3274 42.6648C91.3274 44.2614 90.6342 45.5227 89.2422 45.5227ZM99.1271 47H101.184V41.6932C101.184 40.6193 101.9 39.892 102.786 39.892C103.656 39.892 104.252 40.4773 104.252 41.375V47H106.269V41.5568C106.269 40.5739 106.854 39.892 107.849 39.892C108.678 39.892 109.337 40.3807 109.337 41.4602V47H111.4V41.142C111.4 39.1932 110.275 38.1591 108.673 38.1591C107.406 38.1591 106.44 38.7841 106.053 39.7557H105.962C105.627 38.767 104.781 38.1591 103.604 38.1591C102.434 38.1591 101.559 38.7614 101.195 39.7557H101.093V38.2727H99.1271V47ZM117.35 47.1705C119.384 47.1705 120.782 46.1761 121.146 44.6591L119.225 44.4432C118.947 45.1818 118.265 45.5682 117.379 45.5682C116.049 45.5682 115.168 44.6932 115.151 43.1989H121.231V42.5682C121.231 39.5057 119.39 38.1591 117.242 38.1591C114.742 38.1591 113.112 39.9943 113.112 42.6875C113.112 45.4261 114.719 47.1705 117.35 47.1705ZM115.157 41.8125C115.219 40.6989 116.043 39.7614 117.271 39.7614C118.452 39.7614 119.248 40.625 119.259 41.8125H115.157ZM128.533 43.3295C128.533 44.6591 127.585 45.3182 126.675 45.3182C125.687 45.3182 125.028 44.6193 125.028 43.5114V38.2727H122.971V43.8295C122.971 45.9261 124.164 47.1136 125.88 47.1136C127.187 47.1136 128.107 46.4261 128.505 45.4489H128.596V47H130.59V38.2727H128.533V43.3295ZM140.469 50.4545C142.827 50.4545 144.566 49.375 144.566 47.142V38.2727H142.538V39.7159H142.424C142.112 39.0852 141.458 38.1591 139.918 38.1591C137.901 38.1591 136.316 39.7386 136.316 42.608C136.316 45.4545 137.901 46.875 139.913 46.875C141.407 46.875 142.106 46.0739 142.424 45.4318H142.526V47.0852C142.526 48.3693 141.674 48.8977 140.504 48.8977C139.265 48.8977 138.719 48.3125 138.469 47.8011L136.617 48.25C136.992 49.4716 138.248 50.4545 140.469 50.4545ZM140.487 45.2614C139.129 45.2614 138.413 44.2045 138.413 42.5966C138.413 41.0114 139.117 39.8466 140.487 39.8466C141.81 39.8466 142.538 40.9432 142.538 42.5966C142.538 44.2614 141.799 45.2614 140.487 45.2614ZM150.538 47.1705C152.572 47.1705 153.969 46.1761 154.333 44.6591L152.413 44.4432C152.134 45.1818 151.452 45.5682 150.566 45.5682C149.237 45.5682 148.356 44.6932 148.339 43.1989H154.418V42.5682C154.418 39.5057 152.577 38.1591 150.43 38.1591C147.93 38.1591 146.299 39.9943 146.299 42.6875C146.299 45.4261 147.907 47.1705 150.538 47.1705ZM148.344 41.8125C148.407 40.6989 149.231 39.7614 150.458 39.7614C151.64 39.7614 152.435 40.625 152.447 41.8125H148.344ZM156.158 47H158.215V41.8693C158.215 40.7614 159.05 39.9773 160.181 39.9773C160.528 39.9773 160.96 40.0398 161.136 40.0966V38.2045C160.948 38.1705 160.624 38.1477 160.397 38.1477C159.397 38.1477 158.562 38.7159 158.244 39.7273H158.153V38.2727H156.158V47ZM166.006 47.1705C168.04 47.1705 169.438 46.1761 169.802 44.6591L167.881 44.4432C167.603 45.1818 166.921 45.5682 166.035 45.5682C164.705 45.5682 163.825 44.6932 163.808 43.1989H169.887V42.5682C169.887 39.5057 168.046 38.1591 165.898 38.1591C163.398 38.1591 161.768 39.9943 161.768 42.6875C161.768 45.4261 163.376 47.1705 166.006 47.1705ZM163.813 41.8125C163.876 40.6989 164.7 39.7614 165.927 39.7614C167.109 39.7614 167.904 40.625 167.915 41.8125H163.813ZM173.684 41.8864C173.684 40.625 174.445 39.8977 175.531 39.8977C176.593 39.8977 177.229 40.5966 177.229 41.7614V47H179.286V41.4432C179.292 39.3523 178.099 38.1591 176.298 38.1591C174.991 38.1591 174.093 38.7841 173.695 39.7557H173.593V38.2727H171.627V47H173.684V41.8864ZM185.735 38.2727H184.013V36.1818H181.957V38.2727H180.718V39.8636H181.957V44.7159C181.945 46.358 183.138 47.1648 184.684 47.1193C185.269 47.1023 185.673 46.9886 185.894 46.9148L185.548 45.3068C185.434 45.3352 185.201 45.3864 184.945 45.3864C184.428 45.3864 184.013 45.2045 184.013 44.375V39.8636H185.735V38.2727ZM191.225 47.1705C193.259 47.1705 194.657 46.1761 195.021 44.6591L193.1 44.4432C192.822 45.1818 192.14 45.5682 191.254 45.5682C189.924 45.5682 189.043 44.6932 189.026 43.1989H195.106V42.5682C195.106 39.5057 193.265 38.1591 191.117 38.1591C188.617 38.1591 186.987 39.9943 186.987 42.6875C186.987 45.4261 188.594 47.1705 191.225 47.1705ZM189.032 41.8125C189.094 40.6989 189.918 39.7614 191.146 39.7614C192.327 39.7614 193.123 40.625 193.134 41.8125H189.032ZM200.815 50.2727H202.871V45.625H202.957C203.281 46.2614 203.957 47.1534 205.457 47.1534C207.513 47.1534 209.053 45.5227 209.053 42.6477C209.053 39.7386 207.468 38.1591 205.451 38.1591C203.911 38.1591 203.269 39.0852 202.957 39.7159H202.837V38.2727H200.815V50.2727ZM202.832 42.6364C202.832 40.9432 203.559 39.8466 204.883 39.8466C206.252 39.8466 206.957 41.0114 206.957 42.6364C206.957 44.2727 206.241 45.4659 204.883 45.4659C203.57 45.4659 202.832 44.3295 202.832 42.6364ZM214.621 47.1705C217.178 47.1705 218.803 45.3693 218.803 42.6705C218.803 39.9659 217.178 38.1591 214.621 38.1591C212.065 38.1591 210.44 39.9659 210.44 42.6705C210.44 45.3693 212.065 47.1705 214.621 47.1705ZM214.633 45.5227C213.218 45.5227 212.525 44.2614 212.525 42.6648C212.525 41.0682 213.218 39.7898 214.633 39.7898C216.025 39.7898 216.718 41.0682 216.718 42.6648C216.718 44.2614 216.025 45.5227 214.633 45.5227ZM226.112 43.3295C226.112 44.6591 225.163 45.3182 224.254 45.3182C223.265 45.3182 222.606 44.6193 222.606 43.5114V38.2727H220.549V43.8295C220.549 45.9261 221.742 47.1136 223.458 47.1136C224.765 47.1136 225.685 46.4261 226.083 45.4489H226.174V47H228.168V38.2727H226.112V43.3295ZM230.283 50.2727H232.34V45.625H232.425C232.749 46.2614 233.425 47.1534 234.925 47.1534C236.982 47.1534 238.522 45.5227 238.522 42.6477C238.522 39.7386 236.937 38.1591 234.92 38.1591C233.38 38.1591 232.738 39.0852 232.425 39.7159H232.306V38.2727H230.283V50.2727ZM232.3 42.6364C232.3 40.9432 233.028 39.8466 234.352 39.8466C235.721 39.8466 236.425 41.0114 236.425 42.6364C236.425 44.2727 235.71 45.4659 234.352 45.4659C233.039 45.4659 232.3 44.3295 232.3 42.6364ZM242.795 47.1761C244.164 47.1761 244.982 46.5341 245.357 45.8011H245.425V47H247.403V41.1591C247.403 38.8523 245.522 38.1591 243.857 38.1591C242.022 38.1591 240.613 38.9773 240.158 40.5682L242.079 40.8409C242.283 40.2443 242.863 39.733 243.869 39.733C244.823 39.733 245.346 40.2216 245.346 41.0795V41.1136C245.346 41.7045 244.727 41.733 243.187 41.8977C241.494 42.0795 239.874 42.5852 239.874 44.5511C239.874 46.267 241.13 47.1761 242.795 47.1761ZM243.329 45.6648C242.471 45.6648 241.857 45.2727 241.857 44.517C241.857 43.7273 242.545 43.3977 243.465 43.267C244.005 43.1932 245.085 43.0568 245.352 42.8409V43.8693C245.352 44.8409 244.567 45.6648 243.329 45.6648ZM256.678 47.1534C258.178 47.1534 258.854 46.2614 259.178 45.625H259.303V47H261.326V35.3636H259.263V39.7159H259.178C258.866 39.0852 258.224 38.1591 256.684 38.1591C254.667 38.1591 253.082 39.7386 253.082 42.6477C253.082 45.5227 254.621 47.1534 256.678 47.1534ZM257.252 45.4659C255.894 45.4659 255.178 44.2727 255.178 42.6364C255.178 41.0114 255.883 39.8466 257.252 39.8466C258.576 39.8466 259.303 40.9432 259.303 42.6364C259.303 44.3295 258.565 45.4659 257.252 45.4659ZM267.381 47.1705C269.415 47.1705 270.813 46.1761 271.177 44.6591L269.256 44.4432C268.978 45.1818 268.296 45.5682 267.41 45.5682C266.08 45.5682 265.2 44.6932 265.183 43.1989H271.262V42.5682C271.262 39.5057 269.421 38.1591 267.273 38.1591C264.773 38.1591 263.143 39.9943 263.143 42.6875C263.143 45.4261 264.751 47.1705 267.381 47.1705ZM265.188 41.8125C265.251 40.6989 266.075 39.7614 267.302 39.7614C268.484 39.7614 269.279 40.625 269.29 41.8125H265.188ZM281.391 38.2727H279.579V37.5852C279.579 36.9034 279.863 36.5227 280.63 36.5227C280.954 36.5227 281.227 36.5966 281.397 36.6477L281.812 35.0568C281.545 34.9659 280.96 34.8182 280.249 34.8182C278.732 34.8182 277.522 35.6875 277.522 37.4489V38.2727H276.232V39.8636H277.522V47H279.579V39.8636H281.391V38.2727ZM286.481 47.1705C289.038 47.1705 290.663 45.3693 290.663 42.6705C290.663 39.9659 289.038 38.1591 286.481 38.1591C283.924 38.1591 282.299 39.9659 282.299 42.6705C282.299 45.3693 283.924 47.1705 286.481 47.1705ZM286.492 45.5227C285.077 45.5227 284.384 44.2614 284.384 42.6648C284.384 41.0682 285.077 39.7898 286.492 39.7898C287.884 39.7898 288.577 41.0682 288.577 42.6648C288.577 44.2614 287.884 45.5227 286.492 45.5227ZM292.408 47H294.465V41.8693C294.465 40.7614 295.3 39.9773 296.431 39.9773C296.778 39.9773 297.21 40.0398 297.386 40.0966V38.2045C297.198 38.1705 296.874 38.1477 296.647 38.1477C295.647 38.1477 294.812 38.7159 294.494 39.7273H294.403V38.2727H292.408V47ZM298.752 47H300.809V41.6932C300.809 40.6193 301.525 39.892 302.411 39.892C303.281 39.892 303.877 40.4773 303.877 41.375V47H305.894V41.5568C305.894 40.5739 306.479 39.892 307.474 39.892C308.303 39.892 308.962 40.3807 308.962 41.4602V47H311.025V41.142C311.025 39.1932 309.9 38.1591 308.298 38.1591C307.031 38.1591 306.065 38.7841 305.678 39.7557H305.587C305.252 38.767 304.406 38.1591 303.229 38.1591C302.059 38.1591 301.184 38.7614 300.82 39.7557H300.718V38.2727H298.752V47ZM315.623 47.1761C316.992 47.1761 317.81 46.5341 318.185 45.8011H318.254V47H320.231V41.1591C320.231 38.8523 318.35 38.1591 316.685 38.1591C314.85 38.1591 313.441 38.9773 312.987 40.5682L314.907 40.8409C315.112 40.2443 315.691 39.733 316.697 39.733C317.651 39.733 318.174 40.2216 318.174 41.0795V41.1136C318.174 41.7045 317.555 41.733 316.015 41.8977C314.322 42.0795 312.702 42.5852 312.702 44.5511C312.702 46.267 313.958 47.1761 315.623 47.1761ZM316.157 45.6648C315.299 45.6648 314.685 45.2727 314.685 44.517C314.685 43.7273 315.373 43.3977 316.293 43.267C316.833 43.1932 317.913 43.0568 318.18 42.8409V43.8693C318.18 44.8409 317.396 45.6648 316.157 45.6648ZM93.5881 66H95.6449V57.2727H93.5881V66ZM94.6222 56.0341C95.2756 56.0341 95.8097 55.5341 95.8097 54.9205C95.8097 54.3011 95.2756 53.8011 94.6222 53.8011C93.9631 53.8011 93.429 54.3011 93.429 54.9205C93.429 55.5341 93.9631 56.0341 94.6222 56.0341ZM99.8168 60.8864C99.8168 59.625 100.578 58.8977 101.663 58.8977C102.726 58.8977 103.362 59.5966 103.362 60.7614V66H105.419V60.4432C105.425 58.3523 104.232 57.1591 102.43 57.1591C101.124 57.1591 100.226 57.7841 99.8281 58.7557H99.7259V57.2727H97.7599V66H99.8168V60.8864ZM111.868 57.2727H110.146V55.1818H108.089V57.2727H106.851V58.8636H108.089V63.7159C108.078 65.358 109.271 66.1648 110.817 66.1193C111.402 66.1023 111.805 65.9886 112.027 65.9148L111.68 64.3068C111.567 64.3352 111.334 64.3864 111.078 64.3864C110.561 64.3864 110.146 64.2045 110.146 63.375V58.8636H111.868V57.2727ZM117.358 66.1705C119.392 66.1705 120.79 65.1761 121.153 63.6591L119.233 63.4432C118.955 64.1818 118.273 64.5682 117.386 64.5682C116.057 64.5682 115.176 63.6932 115.159 62.1989H121.239V61.5682C121.239 58.5057 119.398 57.1591 117.25 57.1591C114.75 57.1591 113.119 58.9943 113.119 61.6875C113.119 64.4261 114.727 66.1705 117.358 66.1705ZM115.165 60.8125C115.227 59.6989 116.051 58.7614 117.278 58.7614C118.46 58.7614 119.256 59.625 119.267 60.8125H115.165ZM125.036 54.3636H122.979V66H125.036V54.3636ZM127.151 66H129.207V57.2727H127.151V66ZM128.185 56.0341C128.838 56.0341 129.372 55.5341 129.372 54.9205C129.372 54.3011 128.838 53.8011 128.185 53.8011C127.526 53.8011 126.991 54.3011 126.991 54.9205C126.991 55.5341 127.526 56.0341 128.185 56.0341ZM135.118 69.4545C137.476 69.4545 139.214 68.375 139.214 66.142V57.2727H137.186V58.7159H137.072C136.76 58.0852 136.107 57.1591 134.567 57.1591C132.55 57.1591 130.964 58.7386 130.964 61.608C130.964 64.4545 132.55 65.875 134.561 65.875C136.055 65.875 136.754 65.0739 137.072 64.4318H137.175V66.0852C137.175 67.3693 136.322 67.8977 135.152 67.8977C133.913 67.8977 133.368 67.3125 133.118 66.8011L131.266 67.25C131.641 68.4716 132.896 69.4545 135.118 69.4545ZM135.135 64.2614C133.777 64.2614 133.061 63.2045 133.061 61.5966C133.061 60.0114 133.766 58.8466 135.135 58.8466C136.459 58.8466 137.186 59.9432 137.186 61.5966C137.186 63.2614 136.447 64.2614 135.135 64.2614ZM145.186 66.1705C147.22 66.1705 148.618 65.1761 148.982 63.6591L147.061 63.4432C146.783 64.1818 146.101 64.5682 145.214 64.5682C143.885 64.5682 143.004 63.6932 142.987 62.1989H149.067V61.5682C149.067 58.5057 147.226 57.1591 145.078 57.1591C142.578 57.1591 140.947 58.9943 140.947 61.6875C140.947 64.4261 142.555 66.1705 145.186 66.1705ZM142.993 60.8125C143.055 59.6989 143.879 58.7614 145.107 58.7614C146.288 58.7614 147.084 59.625 147.095 60.8125H142.993ZM152.864 60.8864C152.864 59.625 153.625 58.8977 154.71 58.8977C155.773 58.8977 156.409 59.5966 156.409 60.7614V66H158.466V60.4432C158.472 58.3523 157.278 57.1591 155.477 57.1591C154.17 57.1591 153.273 57.7841 152.875 58.7557H152.773V57.2727H150.807V66H152.864V60.8864ZM164.915 57.2727H163.193V55.1818H161.136V57.2727H159.898V58.8636H161.136V63.7159C161.125 65.358 162.318 66.1648 163.864 66.1193C164.449 66.1023 164.852 65.9886 165.074 65.9148L164.727 64.3068C164.614 64.3352 164.381 64.3864 164.125 64.3864C163.608 64.3864 163.193 64.2045 163.193 63.375V58.8636H164.915V57.2727ZM170.405 66.1705C172.439 66.1705 173.837 65.1761 174.2 63.6591L172.28 63.4432C172.001 64.1818 171.32 64.5682 170.433 64.5682C169.104 64.5682 168.223 63.6932 168.206 62.1989H174.286V61.5682C174.286 58.5057 172.445 57.1591 170.297 57.1591C167.797 57.1591 166.166 58.9943 166.166 61.6875C166.166 64.4261 167.774 66.1705 170.405 66.1705ZM168.212 60.8125C168.274 59.6989 169.098 58.7614 170.325 58.7614C171.507 58.7614 172.303 59.625 172.314 60.8125H168.212ZM179.994 69.2727H182.051V64.625H182.136C182.46 65.2614 183.136 66.1534 184.636 66.1534C186.693 66.1534 188.233 64.5227 188.233 61.6477C188.233 58.7386 186.648 57.1591 184.631 57.1591C183.091 57.1591 182.449 58.0852 182.136 58.7159H182.017V57.2727H179.994V69.2727ZM182.011 61.6364C182.011 59.9432 182.739 58.8466 184.062 58.8466C185.432 58.8466 186.136 60.0114 186.136 61.6364C186.136 63.2727 185.42 64.4659 184.062 64.4659C182.75 64.4659 182.011 63.3295 182.011 61.6364ZM192.506 66.1761C193.875 66.1761 194.693 65.5341 195.068 64.8011H195.136V66H197.114V60.1591C197.114 57.8523 195.233 57.1591 193.568 57.1591C191.733 57.1591 190.324 57.9773 189.869 59.5682L191.79 59.8409C191.994 59.2443 192.574 58.733 193.58 58.733C194.534 58.733 195.057 59.2216 195.057 60.0795V60.1136C195.057 60.7045 194.438 60.733 192.898 60.8977C191.205 61.0795 189.585 61.5852 189.585 63.5511C189.585 65.267 190.841 66.1761 192.506 66.1761ZM193.04 64.6648C192.182 64.6648 191.568 64.2727 191.568 63.517C191.568 62.7273 192.256 62.3977 193.176 62.267C193.716 62.1932 194.795 62.0568 195.062 61.8409V62.8693C195.062 63.8409 194.278 64.6648 193.04 64.6648ZM199.182 66H201.239V60.8693C201.239 59.7614 202.074 58.9773 203.205 58.9773C203.551 58.9773 203.983 59.0398 204.159 59.0966V57.2045C203.972 57.1705 203.648 57.1477 203.42 57.1477C202.42 57.1477 201.585 57.7159 201.267 58.7273H201.176V57.2727H199.182V66ZM207.865 66.1761C209.234 66.1761 210.053 65.5341 210.428 64.8011H210.496V66H212.473V60.1591C212.473 57.8523 210.592 57.1591 208.928 57.1591C207.092 57.1591 205.683 57.9773 205.229 59.5682L207.149 59.8409C207.354 59.2443 207.933 58.733 208.939 58.733C209.893 58.733 210.416 59.2216 210.416 60.0795V60.1136C210.416 60.7045 209.797 60.733 208.257 60.8977C206.564 61.0795 204.945 61.5852 204.945 63.5511C204.945 65.267 206.2 66.1761 207.865 66.1761ZM208.399 64.6648C207.541 64.6648 206.928 64.2727 206.928 63.517C206.928 62.7273 207.615 62.3977 208.536 62.267C209.075 62.1932 210.155 62.0568 210.422 61.8409V62.8693C210.422 63.8409 209.638 64.6648 208.399 64.6648ZM226.305 57.2727H224.118L222.107 63.7557H222.016L220.01 57.2727H217.817L220.925 66H223.197L226.305 57.2727ZM231.239 66.1705C233.795 66.1705 235.42 64.3693 235.42 61.6705C235.42 58.9659 233.795 57.1591 231.239 57.1591C228.682 57.1591 227.057 58.9659 227.057 61.6705C227.057 64.3693 228.682 66.1705 231.239 66.1705ZM231.25 64.5227C229.835 64.5227 229.142 63.2614 229.142 61.6648C229.142 60.0682 229.835 58.7898 231.25 58.7898C232.642 58.7898 233.335 60.0682 233.335 61.6648C233.335 63.2614 232.642 64.5227 231.25 64.5227ZM240.973 66.1705C243.166 66.1705 244.564 64.8693 244.712 63.017H242.746C242.57 63.9545 241.893 64.4943 240.99 64.4943C239.706 64.4943 238.876 63.4205 238.876 61.6364C238.876 59.875 239.723 58.8182 240.99 58.8182C241.979 58.8182 242.587 59.4545 242.746 60.2955H244.712C244.57 58.4034 243.092 57.1591 240.962 57.1591C238.405 57.1591 236.791 59.0057 236.791 61.6705C236.791 64.3125 238.365 66.1705 240.973 66.1705ZM250.264 66.1705C252.298 66.1705 253.696 65.1761 254.06 63.6591L252.139 63.4432C251.861 64.1818 251.179 64.5682 250.293 64.5682C248.963 64.5682 248.082 63.6932 248.065 62.1989H254.145V61.5682C254.145 58.5057 252.304 57.1591 250.156 57.1591C247.656 57.1591 246.026 58.9943 246.026 61.6875C246.026 64.4261 247.634 66.1705 250.264 66.1705ZM248.946 56.2273L250.099 54.7727L251.253 56.2273H253.054V56.1477L250.906 53.6932H249.298L247.145 56.1477V56.2273H248.946ZM248.071 60.8125C248.134 59.6989 248.957 58.7614 250.185 58.7614C251.366 58.7614 252.162 59.625 252.173 60.8125H248.071ZM257.152 66.125C257.822 66.125 258.396 65.5682 258.402 64.875C258.396 64.1932 257.822 63.6364 257.152 63.6364C256.459 63.6364 255.896 64.1932 255.902 64.875C255.896 65.5682 256.459 66.125 257.152 66.125Z" fill="#B02334"/>
<circle cx="175" cy="203" r="96.5" stroke="#E8E8E8" stroke-width="3"/>
<path d="M118.242 190.545V208H120.748V195.361H120.909L126.057 207.974H128.137L133.284 195.369H133.446V208H135.952V190.545H132.756L127.199 204.114H126.995L121.438 190.545H118.242ZM145.091 208.264C148.781 208.264 151.193 205.562 151.193 201.514C151.193 197.44 148.781 194.739 145.091 194.739C141.4 194.739 138.988 197.44 138.988 201.514C138.988 205.562 141.4 208.264 145.091 208.264ZM145.099 206.125C142.687 206.125 141.562 204.02 141.562 201.506C141.562 199 142.687 196.869 145.099 196.869C147.494 196.869 148.619 199 148.619 201.506C148.619 204.02 147.494 206.125 145.099 206.125ZM158.938 208.256C161.324 208.256 162.262 206.798 162.722 205.963H162.935V208H165.424V190.545H162.875V197.031H162.722C162.262 196.222 161.392 194.739 158.955 194.739C155.793 194.739 153.466 197.236 153.466 201.48C153.466 205.716 155.759 208.256 158.938 208.256ZM159.5 206.082C157.225 206.082 156.04 204.08 156.04 201.455C156.04 198.855 157.199 196.903 159.5 196.903C161.725 196.903 162.918 198.719 162.918 201.455C162.918 204.207 161.699 206.082 159.5 206.082ZM174.703 208.264C177.558 208.264 179.578 206.858 180.157 204.727L177.745 204.293C177.285 205.528 176.177 206.159 174.728 206.159C172.547 206.159 171.081 204.744 171.012 202.222H180.319V201.318C180.319 196.588 177.49 194.739 174.524 194.739C170.876 194.739 168.473 197.517 168.473 201.54C168.473 205.605 170.842 208.264 174.703 208.264ZM171.021 200.312C171.123 198.455 172.47 196.844 174.541 196.844C176.518 196.844 177.814 198.31 177.822 200.312H171.021ZM183.147 208H185.695V200.006C185.695 198.293 187.016 197.057 188.823 197.057C189.351 197.057 189.948 197.151 190.152 197.21V194.773C189.897 194.739 189.394 194.713 189.07 194.713C187.536 194.713 186.223 195.582 185.746 196.989H185.61V194.909H183.147V208ZM196.05 208.29C198.215 208.29 199.434 207.19 199.919 206.21H200.022V208H202.51V199.307C202.51 195.497 199.51 194.739 197.431 194.739C195.061 194.739 192.88 195.693 192.027 198.08L194.422 198.625C194.797 197.696 195.752 196.801 197.465 196.801C199.11 196.801 199.953 197.662 199.953 199.145V199.205C199.953 200.134 198.999 200.116 196.647 200.389C194.167 200.679 191.627 201.327 191.627 204.301C191.627 206.875 193.561 208.29 196.05 208.29ZM196.604 206.244C195.164 206.244 194.124 205.597 194.124 204.335C194.124 202.972 195.334 202.486 196.809 202.29C197.635 202.179 199.596 201.957 199.962 201.591V203.278C199.962 204.83 198.726 206.244 196.604 206.244ZM210.805 208.256C213.191 208.256 214.129 206.798 214.589 205.963H214.802V208H217.291V190.545H214.743V197.031H214.589C214.129 196.222 213.26 194.739 210.822 194.739C207.66 194.739 205.333 197.236 205.333 201.48C205.333 205.716 207.626 208.256 210.805 208.256ZM211.368 206.082C209.092 206.082 207.907 204.08 207.907 201.455C207.907 198.855 209.066 196.903 211.368 196.903C213.592 196.903 214.785 198.719 214.785 201.455C214.785 204.207 213.566 206.082 211.368 206.082ZM226.442 208.264C230.132 208.264 232.544 205.562 232.544 201.514C232.544 197.44 230.132 194.739 226.442 194.739C222.752 194.739 220.34 197.44 220.34 201.514C220.34 205.562 222.752 208.264 226.442 208.264ZM226.451 206.125C224.039 206.125 222.914 204.02 222.914 201.506C222.914 199 224.039 196.869 226.451 196.869C228.846 196.869 229.971 199 229.971 201.506C229.971 204.02 228.846 206.125 226.451 206.125Z" fill="#B02334"/>
<path d="M113.122 232H114.045L117.284 225.551V224.727H112.625V225.509H116.375V225.565L113.122 232ZM120.823 232.099C122.428 232.099 123.352 230.739 123.352 228.364C123.352 226.006 122.414 224.628 120.823 224.628C119.232 224.628 118.295 226.006 118.295 228.364C118.295 230.739 119.218 232.099 120.823 232.099ZM120.823 231.318C119.765 231.318 119.147 230.256 119.147 228.364C119.147 226.474 119.772 225.395 120.823 225.395C121.874 225.395 122.499 226.474 122.499 228.364C122.499 230.256 121.881 231.318 120.823 231.318ZM128.408 230.636C128.408 231.432 128.906 232.099 129.829 232.099C130.738 232.099 131.235 231.432 131.235 230.636V230.253C131.235 229.457 130.752 228.79 129.829 228.79C128.92 228.79 128.408 229.457 128.408 230.253V230.636ZM124.786 226.474C124.786 227.27 125.283 227.938 126.207 227.938C127.116 227.938 127.613 227.27 127.613 226.474V226.091C127.613 225.295 127.13 224.628 126.207 224.628C125.298 224.628 124.786 225.295 124.786 226.091V226.474ZM125.056 232H125.866L130.866 224.727H130.056L125.056 232ZM129.133 230.253C129.133 229.812 129.332 229.401 129.829 229.401C130.34 229.401 130.511 229.812 130.511 230.253V230.636C130.511 231.077 130.326 231.489 129.829 231.489C129.318 231.489 129.133 231.077 129.133 230.636V230.253ZM125.511 226.091C125.511 225.651 125.71 225.239 126.207 225.239C126.718 225.239 126.889 225.651 126.889 226.091V226.474C126.889 226.915 126.704 227.327 126.207 227.327C125.695 227.327 125.511 226.915 125.511 226.474V226.091ZM135.653 234.045H136.491V231.162H136.562C136.747 231.46 137.102 232.114 138.153 232.114C139.516 232.114 140.468 231.02 140.468 229.287C140.468 227.568 139.516 226.474 138.139 226.474C137.073 226.474 136.747 227.128 136.562 227.412H136.462V226.545H135.653V234.045ZM136.477 229.273C136.477 228.051 137.016 227.227 138.039 227.227C139.104 227.227 139.63 228.122 139.63 229.273C139.63 230.438 139.09 231.361 138.039 231.361C137.031 231.361 136.477 230.509 136.477 229.273ZM143.352 232.128C144.303 232.128 144.801 231.616 144.971 231.261H145.014V232H145.852V228.406C145.852 226.673 144.531 226.474 143.835 226.474C143.011 226.474 142.073 226.759 141.647 227.753L142.443 228.037C142.627 227.639 143.064 227.213 143.863 227.213C144.634 227.213 145.014 227.621 145.014 228.321V228.349C145.014 228.754 144.602 228.719 143.607 228.847C142.595 228.978 141.491 229.202 141.491 230.452C141.491 231.517 142.315 232.128 143.352 232.128ZM143.479 231.375C142.812 231.375 142.329 231.077 142.329 230.494C142.329 229.855 142.911 229.656 143.565 229.571C143.92 229.528 144.872 229.429 145.014 229.259V230.026C145.014 230.707 144.474 231.375 143.479 231.375ZM147.381 232H148.219V228.548C148.219 227.81 148.802 227.27 149.597 227.27C149.821 227.27 150.052 227.312 150.109 227.327V226.474C150.013 226.467 149.793 226.46 149.668 226.46C149.015 226.46 148.447 226.83 148.248 227.369H148.191V226.545H147.381V232ZM152.707 232.128C153.659 232.128 154.156 231.616 154.326 231.261H154.369V232H155.207V228.406C155.207 226.673 153.886 226.474 153.19 226.474C152.366 226.474 151.429 226.759 151.003 227.753L151.798 228.037C151.983 227.639 152.419 227.213 153.218 227.213C153.989 227.213 154.369 227.621 154.369 228.321V228.349C154.369 228.754 153.957 228.719 152.963 228.847C151.951 228.978 150.846 229.202 150.846 230.452C150.846 231.517 151.67 232.128 152.707 232.128ZM152.835 231.375C152.167 231.375 151.684 231.077 151.684 230.494C151.684 229.855 152.267 229.656 152.92 229.571C153.275 229.528 154.227 229.429 154.369 229.259V230.026C154.369 230.707 153.829 231.375 152.835 231.375ZM161.836 232.114C162.944 232.114 163.754 231.56 164.009 230.736L163.2 230.509C162.987 231.077 162.493 231.361 161.836 231.361C160.853 231.361 160.174 230.725 160.135 229.557H164.095V229.202C164.095 227.17 162.887 226.474 161.751 226.474C160.274 226.474 159.294 227.639 159.294 229.315C159.294 230.991 160.259 232.114 161.836 232.114ZM160.135 228.832C160.192 227.984 160.792 227.227 161.751 227.227C162.66 227.227 163.242 227.909 163.242 228.832H160.135ZM169.664 226.545H168.755L167.249 230.892H167.192L165.687 226.545H164.777L166.794 232H167.647L169.664 226.545ZM172.791 232.114C174.268 232.114 175.262 230.991 175.262 229.301C175.262 227.597 174.268 226.474 172.791 226.474C171.313 226.474 170.319 227.597 170.319 229.301C170.319 230.991 171.313 232.114 172.791 232.114ZM172.791 231.361C171.668 231.361 171.157 230.395 171.157 229.301C171.157 228.207 171.668 227.227 172.791 227.227C173.913 227.227 174.424 228.207 174.424 229.301C174.424 230.395 173.913 231.361 172.791 231.361ZM177.38 224.727H176.541V232H177.38V224.727ZM182.352 229.77C182.352 230.793 181.571 231.261 180.946 231.261C180.25 231.261 179.753 230.75 179.753 229.955V226.545H178.915V230.011C178.915 231.403 179.653 232.071 180.676 232.071C181.5 232.071 182.04 231.631 182.295 231.077H182.352V232H183.19V226.545H182.352V229.77ZM184.725 232H185.563V226.545H184.725V232ZM185.151 225.636C185.478 225.636 185.748 225.381 185.748 225.068C185.748 224.756 185.478 224.5 185.151 224.5C184.824 224.5 184.555 224.756 184.555 225.068C184.555 225.381 184.824 225.636 185.151 225.636ZM187.098 232H187.936V228.548C187.936 227.81 188.519 227.27 189.314 227.27C189.538 227.27 189.769 227.312 189.825 227.327V226.474C189.729 226.467 189.509 226.46 189.385 226.46C188.732 226.46 188.163 226.83 187.965 227.369H187.908V226.545H187.098V232ZM197.495 227.767C197.232 226.993 196.643 226.474 195.563 226.474C194.413 226.474 193.56 227.128 193.56 228.051C193.56 228.804 194.008 229.308 195.009 229.543L195.918 229.756C196.469 229.884 196.728 230.146 196.728 230.523C196.728 230.991 196.231 231.375 195.449 231.375C194.764 231.375 194.334 231.08 194.185 230.494L193.39 230.693C193.585 231.62 194.349 232.114 195.464 232.114C196.731 232.114 197.594 231.421 197.594 230.48C197.594 229.72 197.119 229.241 196.146 229.003L195.336 228.804C194.69 228.644 194.398 228.428 194.398 228.009C194.398 227.54 194.896 227.199 195.563 227.199C196.295 227.199 196.597 227.604 196.742 227.98L197.495 227.767ZM201.143 232.114C202.251 232.114 203.06 231.56 203.316 230.736L202.506 230.509C202.293 231.077 201.8 231.361 201.143 231.361C200.159 231.361 199.481 230.725 199.442 229.557H203.401V229.202C203.401 227.17 202.194 226.474 201.058 226.474C199.58 226.474 198.6 227.639 198.6 229.315C198.6 230.991 199.566 232.114 201.143 232.114ZM199.442 228.832C199.499 227.984 200.099 227.227 201.058 227.227C201.967 227.227 202.549 227.909 202.549 228.832H199.442ZM208.114 229.77C208.114 230.793 207.332 231.261 206.707 231.261C206.011 231.261 205.514 230.75 205.514 229.955V226.545H204.676V230.011C204.676 231.403 205.415 232.071 206.438 232.071C207.261 232.071 207.801 231.631 208.057 231.077H208.114V232H208.952V226.545H208.114V229.77ZM213.299 234.045H214.137V231.162H214.208C214.393 231.46 214.748 232.114 215.799 232.114C217.163 232.114 218.115 231.02 218.115 229.287C218.115 227.568 217.163 226.474 215.785 226.474C214.72 226.474 214.393 227.128 214.208 227.412H214.109V226.545H213.299V234.045ZM214.123 229.273C214.123 228.051 214.663 227.227 215.686 227.227C216.751 227.227 217.277 228.122 217.277 229.273C217.277 230.438 216.737 231.361 215.686 231.361C214.677 231.361 214.123 230.509 214.123 229.273ZM221.68 232.114C222.788 232.114 223.598 231.56 223.853 230.736L223.044 230.509C222.831 231.077 222.337 231.361 221.68 231.361C220.696 231.361 220.018 230.725 219.979 229.557H223.938V229.202C223.938 227.17 222.731 226.474 221.595 226.474C220.117 226.474 219.137 227.639 219.137 229.315C219.137 230.991 220.103 232.114 221.68 232.114ZM219.979 228.832C220.036 227.984 220.636 227.227 221.595 227.227C222.504 227.227 223.086 227.909 223.086 228.832H219.979ZM225.213 232H226.051V228.548C226.051 227.81 226.634 227.27 227.429 227.27C227.653 227.27 227.884 227.312 227.941 227.327V226.474C227.845 226.467 227.625 226.46 227.5 226.46C226.847 226.46 226.279 226.83 226.08 227.369H226.023V226.545H225.213V232ZM231.705 226.545H230.483V225.991C230.483 225.452 230.71 225.168 231.264 225.168C231.506 225.168 231.648 225.224 231.733 225.253L231.975 224.528C231.847 224.472 231.591 224.386 231.179 224.386C230.398 224.386 229.645 224.855 229.645 225.793V226.545H228.764V227.256H229.645V232H230.483V227.256H231.705V226.545ZM232.879 232H233.717V226.545H232.879V232ZM233.305 225.636C233.632 225.636 233.902 225.381 233.902 225.068C233.902 224.756 233.632 224.5 233.305 224.5C232.979 224.5 232.709 224.756 232.709 225.068C232.709 225.381 232.979 225.636 233.305 225.636ZM236.09 224.727H235.252V232H236.09V224.727Z" fill="#BDBDBD"/>
<path d="M266.777 232.82C261.277 249.746 251.204 264.821 237.672 276.379C224.139 287.937 207.674 295.528 190.096 298.312C172.518 301.096 154.513 298.965 138.071 292.154C121.629 285.344 107.391 274.119 96.9299 259.721C86.4692 245.323 80.1938 228.313 78.7975 210.571C77.4012 192.829 80.9383 175.047 89.0179 159.19C97.0974 143.333 109.405 130.019 124.579 120.72C139.753 111.421 157.203 106.5 175 106.5" stroke="#B02334" stroke-width="3"/>
<path d="M56.733 339.182C56.733 335.42 54.4375 333.205 51.3864 333.205C48.3295 333.205 46.0398 335.42 46.0398 339.182C46.0398 342.938 48.3295 345.159 51.3864 345.159C52.125 345.159 52.8182 345.028 53.4489 344.778L54.4091 346H56.4545L54.8409 343.932C56.0114 342.909 56.733 341.29 56.733 339.182ZM50.6705 341.091L52.2443 343.159C51.9716 343.233 51.6875 343.267 51.3864 343.267C49.4943 343.267 48.1591 341.83 48.1591 339.182C48.1591 336.534 49.4943 335.097 51.3864 335.097C53.2841 335.097 54.6136 336.534 54.6136 339.182C54.6136 340.614 54.2273 341.688 53.5682 342.375L52.5795 341.091H50.6705ZM64.2131 341.33C64.2131 342.659 63.2642 343.318 62.3551 343.318C61.3665 343.318 60.7074 342.619 60.7074 341.511V336.273H58.6506V341.83C58.6506 343.926 59.8438 345.114 61.5597 345.114C62.8665 345.114 63.7869 344.426 64.1847 343.449H64.2756V345H66.2699V336.273H64.2131V341.33ZM72.2486 345.17C74.2827 345.17 75.6804 344.176 76.044 342.659L74.1236 342.443C73.8452 343.182 73.1634 343.568 72.277 343.568C70.9474 343.568 70.0668 342.693 70.0497 341.199H76.1293V340.568C76.1293 337.506 74.2884 336.159 72.1406 336.159C69.6406 336.159 68.0099 337.994 68.0099 340.688C68.0099 343.426 69.6179 345.17 72.2486 345.17ZM70.0554 339.812C70.1179 338.699 70.9418 337.761 72.169 337.761C73.3509 337.761 74.1463 338.625 74.1577 339.812H70.0554ZM77.8693 345H79.9261V339.869C79.9261 338.761 80.7614 337.977 81.892 337.977C82.2386 337.977 82.6705 338.04 82.8466 338.097V336.205C82.6591 336.17 82.3352 336.148 82.108 336.148C81.108 336.148 80.2727 336.716 79.9545 337.727H79.8636V336.273H77.8693V345ZM95.0795 338.58C94.7955 337.102 93.6136 336.159 91.5682 336.159C89.4659 336.159 88.0341 337.193 88.0398 338.807C88.0341 340.08 88.8182 340.92 90.4943 341.267L91.983 341.58C92.7841 341.756 93.1591 342.08 93.1591 342.574C93.1591 343.17 92.5114 343.619 91.5341 343.619C90.5909 343.619 89.9773 343.21 89.8011 342.426L87.7955 342.619C88.0511 344.222 89.3977 345.17 91.5398 345.17C93.7216 345.17 95.2614 344.04 95.267 342.386C95.2614 341.142 94.4602 340.381 92.8125 340.023L91.3239 339.705C90.4375 339.506 90.0852 339.199 90.0909 338.693C90.0852 338.102 90.7386 337.693 91.5966 337.693C92.5455 337.693 93.0455 338.21 93.2045 338.784L95.0795 338.58ZM99.4744 345.176C100.844 345.176 101.662 344.534 102.037 343.801H102.105V345H104.082V339.159C104.082 336.852 102.202 336.159 100.537 336.159C98.7017 336.159 97.2926 336.977 96.8381 338.568L98.7585 338.841C98.9631 338.244 99.5426 337.733 100.548 337.733C101.503 337.733 102.026 338.222 102.026 339.08V339.114C102.026 339.705 101.406 339.733 99.8665 339.898C98.1733 340.08 96.554 340.585 96.554 342.551C96.554 344.267 97.8097 345.176 99.4744 345.176ZM100.009 343.665C99.1506 343.665 98.5369 343.273 98.5369 342.517C98.5369 341.727 99.2244 341.398 100.145 341.267C100.685 341.193 101.764 341.057 102.031 340.841V341.869C102.031 342.841 101.247 343.665 100.009 343.665ZM106.241 345H108.264V343.625H108.384C108.707 344.261 109.384 345.153 110.884 345.153C112.94 345.153 114.48 343.523 114.48 340.648C114.48 337.739 112.895 336.159 110.878 336.159C109.338 336.159 108.696 337.085 108.384 337.716H108.298V333.364H106.241V345ZM108.259 340.636C108.259 338.943 108.986 337.847 110.31 337.847C111.679 337.847 112.384 339.011 112.384 340.636C112.384 342.273 111.668 343.466 110.31 343.466C108.997 343.466 108.259 342.33 108.259 340.636ZM120.092 345.17C122.126 345.17 123.524 344.176 123.888 342.659L121.967 342.443C121.689 343.182 121.007 343.568 120.121 343.568C118.791 343.568 117.911 342.693 117.893 341.199H123.973V340.568C123.973 337.506 122.132 336.159 119.984 336.159C117.484 336.159 115.854 337.994 115.854 340.688C115.854 343.426 117.462 345.17 120.092 345.17ZM117.899 339.812C117.962 338.699 118.786 337.761 120.013 337.761C121.195 337.761 121.99 338.625 122.001 339.812H117.899ZM125.713 345H127.77V339.869C127.77 338.761 128.605 337.977 129.736 337.977C130.082 337.977 130.514 338.04 130.69 338.097V336.205C130.503 336.17 130.179 336.148 129.952 336.148C128.952 336.148 128.116 336.716 127.798 337.727H127.707V336.273H125.713V345ZM136.026 345H138.082V339.693C138.082 338.619 138.798 337.892 139.685 337.892C140.554 337.892 141.151 338.477 141.151 339.375V345H143.168V339.557C143.168 338.574 143.753 337.892 144.747 337.892C145.577 337.892 146.236 338.381 146.236 339.46V345H148.298V339.142C148.298 337.193 147.173 336.159 145.571 336.159C144.304 336.159 143.338 336.784 142.952 337.756H142.861C142.526 336.767 141.679 336.159 140.503 336.159C139.332 336.159 138.457 336.761 138.094 337.756H137.991V336.273H136.026V345ZM152.896 345.176C154.266 345.176 155.084 344.534 155.459 343.801H155.527V345H157.504V339.159C157.504 336.852 155.624 336.159 153.959 336.159C152.124 336.159 150.714 336.977 150.26 338.568L152.18 338.841C152.385 338.244 152.964 337.733 153.97 337.733C154.925 337.733 155.447 338.222 155.447 339.08V339.114C155.447 339.705 154.828 339.733 153.288 339.898C151.595 340.08 149.976 340.585 149.976 342.551C149.976 344.267 151.232 345.176 152.896 345.176ZM153.43 343.665C152.572 343.665 151.959 343.273 151.959 342.517C151.959 341.727 152.646 341.398 153.567 341.267C154.107 341.193 155.186 341.057 155.453 340.841V341.869C155.453 342.841 154.669 343.665 153.43 343.665ZM159.572 345H161.629V336.273H159.572V345ZM160.607 335.034C161.26 335.034 161.794 334.534 161.794 333.92C161.794 333.301 161.26 332.801 160.607 332.801C159.947 332.801 159.413 333.301 159.413 333.92C159.413 334.534 159.947 335.034 160.607 335.034ZM170.642 338.58C170.358 337.102 169.176 336.159 167.131 336.159C165.028 336.159 163.597 337.193 163.602 338.807C163.597 340.08 164.381 340.92 166.057 341.267L167.545 341.58C168.347 341.756 168.722 342.08 168.722 342.574C168.722 343.17 168.074 343.619 167.097 343.619C166.153 343.619 165.54 343.21 165.364 342.426L163.358 342.619C163.614 344.222 164.96 345.17 167.102 345.17C169.284 345.17 170.824 344.04 170.83 342.386C170.824 341.142 170.023 340.381 168.375 340.023L166.886 339.705C166 339.506 165.648 339.199 165.653 338.693C165.648 338.102 166.301 337.693 167.159 337.693C168.108 337.693 168.608 338.21 168.767 338.784L170.642 338.58ZM183.392 338.58C183.108 337.102 181.926 336.159 179.881 336.159C177.778 336.159 176.347 337.193 176.352 338.807C176.347 340.08 177.131 340.92 178.807 341.267L180.295 341.58C181.097 341.756 181.472 342.08 181.472 342.574C181.472 343.17 180.824 343.619 179.847 343.619C178.903 343.619 178.29 343.21 178.114 342.426L176.108 342.619C176.364 344.222 177.71 345.17 179.852 345.17C182.034 345.17 183.574 344.04 183.58 342.386C183.574 341.142 182.773 340.381 181.125 340.023L179.636 339.705C178.75 339.506 178.398 339.199 178.403 338.693C178.398 338.102 179.051 337.693 179.909 337.693C180.858 337.693 181.358 338.21 181.517 338.784L183.392 338.58ZM189.082 345.17C191.639 345.17 193.264 343.369 193.264 340.67C193.264 337.966 191.639 336.159 189.082 336.159C186.526 336.159 184.901 337.966 184.901 340.67C184.901 343.369 186.526 345.17 189.082 345.17ZM189.094 343.523C187.679 343.523 186.986 342.261 186.986 340.665C186.986 339.068 187.679 337.79 189.094 337.79C190.486 337.79 191.179 339.068 191.179 340.665C191.179 342.261 190.486 343.523 189.094 343.523ZM195.101 345H197.124V343.625H197.243C197.567 344.261 198.243 345.153 199.743 345.153C201.8 345.153 203.339 343.523 203.339 340.648C203.339 337.739 201.754 336.159 199.737 336.159C198.197 336.159 197.555 337.085 197.243 337.716H197.158V333.364H195.101V345ZM197.118 340.636C197.118 338.943 197.845 337.847 199.169 337.847C200.538 337.847 201.243 339.011 201.243 340.636C201.243 342.273 200.527 343.466 199.169 343.466C197.857 343.466 197.118 342.33 197.118 340.636ZM205.088 345H207.145V339.869C207.145 338.761 207.98 337.977 209.111 337.977C209.457 337.977 209.889 338.04 210.065 338.097V336.205C209.878 336.17 209.554 336.148 209.327 336.148C208.327 336.148 207.491 336.716 207.173 337.727H207.082V336.273H205.088V345ZM214.936 345.17C216.97 345.17 218.368 344.176 218.732 342.659L216.811 342.443C216.533 343.182 215.851 343.568 214.964 343.568C213.635 343.568 212.754 342.693 212.737 341.199H218.817V340.568C218.817 337.506 216.976 336.159 214.828 336.159C212.328 336.159 210.697 337.994 210.697 340.688C210.697 343.426 212.305 345.17 214.936 345.17ZM212.743 339.812C212.805 338.699 213.629 337.761 214.857 337.761C216.038 337.761 216.834 338.625 216.845 339.812H212.743ZM231.423 338.58C231.139 337.102 229.957 336.159 227.912 336.159C225.81 336.159 224.378 337.193 224.384 338.807C224.378 340.08 225.162 340.92 226.838 341.267L228.327 341.58C229.128 341.756 229.503 342.08 229.503 342.574C229.503 343.17 228.855 343.619 227.878 343.619C226.935 343.619 226.321 343.21 226.145 342.426L224.139 342.619C224.395 344.222 225.741 345.17 227.884 345.17C230.065 345.17 231.605 344.04 231.611 342.386C231.605 341.142 230.804 340.381 229.156 340.023L227.668 339.705C226.781 339.506 226.429 339.199 226.435 338.693C226.429 338.102 227.082 337.693 227.94 337.693C228.889 337.693 229.389 338.21 229.548 338.784L231.423 338.58ZM237.17 345.17C239.205 345.17 240.602 344.176 240.966 342.659L239.045 342.443C238.767 343.182 238.085 343.568 237.199 343.568C235.869 343.568 234.989 342.693 234.972 341.199H241.051V340.568C241.051 337.506 239.21 336.159 237.062 336.159C234.562 336.159 232.932 337.994 232.932 340.688C232.932 343.426 234.54 345.17 237.17 345.17ZM234.977 339.812C235.04 338.699 235.864 337.761 237.091 337.761C238.273 337.761 239.068 338.625 239.08 339.812H234.977ZM248.354 341.33C248.354 342.659 247.405 343.318 246.496 343.318C245.507 343.318 244.848 342.619 244.848 341.511V336.273H242.791V341.83C242.791 343.926 243.984 345.114 245.7 345.114C247.007 345.114 247.928 344.426 248.325 343.449H248.416V345H250.411V336.273H248.354V341.33ZM256.494 348.273H258.551V343.625H258.636C258.96 344.261 259.636 345.153 261.136 345.153C263.193 345.153 264.733 343.523 264.733 340.648C264.733 337.739 263.148 336.159 261.131 336.159C259.591 336.159 258.949 337.085 258.636 337.716H258.517V336.273H256.494V348.273ZM258.511 340.636C258.511 338.943 259.239 337.847 260.562 337.847C261.932 337.847 262.636 339.011 262.636 340.636C262.636 342.273 261.92 343.466 260.562 343.466C259.25 343.466 258.511 342.33 258.511 340.636ZM270.358 345.17C272.392 345.17 273.79 344.176 274.153 342.659L272.233 342.443C271.955 343.182 271.273 343.568 270.386 343.568C269.057 343.568 268.176 342.693 268.159 341.199H274.239V340.568C274.239 337.506 272.398 336.159 270.25 336.159C267.75 336.159 266.119 337.994 266.119 340.688C266.119 343.426 267.727 345.17 270.358 345.17ZM268.165 339.812C268.227 338.699 269.051 337.761 270.278 337.761C271.46 337.761 272.256 338.625 272.267 339.812H268.165ZM275.979 345H278.036V339.869C278.036 338.761 278.871 337.977 280.001 337.977C280.348 337.977 280.78 338.04 280.956 338.097V336.205C280.768 336.17 280.445 336.148 280.217 336.148C279.217 336.148 278.382 336.716 278.064 337.727H277.973V336.273H275.979V345ZM287.212 336.273H285.399V335.585C285.399 334.903 285.683 334.523 286.45 334.523C286.774 334.523 287.047 334.597 287.217 334.648L287.632 333.057C287.365 332.966 286.78 332.818 286.07 332.818C284.553 332.818 283.342 333.688 283.342 335.449V336.273H282.053V337.864H283.342V345H285.399V337.864H287.212V336.273ZM288.822 345H290.879V336.273H288.822V345ZM289.857 335.034C290.51 335.034 291.044 334.534 291.044 333.92C291.044 333.301 290.51 332.801 289.857 332.801C289.197 332.801 288.663 333.301 288.663 333.92C288.663 334.534 289.197 335.034 289.857 335.034ZM295.051 333.364H292.994V345H295.051V333.364ZM299.132 341.58H301.024V341.432C301.036 340.227 301.428 339.676 302.354 339.108C303.399 338.483 304.053 337.631 304.053 336.33C304.053 334.409 302.558 333.205 300.388 333.205C298.399 333.205 296.786 334.307 296.729 336.466H298.751C298.803 335.398 299.575 334.886 300.376 334.886C301.246 334.886 301.945 335.466 301.945 336.358C301.945 337.153 301.416 337.699 300.729 338.131C299.723 338.756 299.143 339.386 299.132 341.432V341.58ZM300.126 345.125C300.797 345.125 301.371 344.568 301.376 343.875C301.371 343.193 300.797 342.636 300.126 342.636C299.433 342.636 298.871 343.193 298.876 343.875C298.871 344.568 299.433 345.125 300.126 345.125Z" fill="#B02334"/>
<defs>
<filter id="filter0_d" x="0" y="0" width="352" height="95" filterUnits="userSpaceOnUse" color-interpolation-filters="sRGB">
<feFlood flood-opacity="0" result="BackgroundImageFix"/>
<feColorMatrix in="SourceAlpha" type="matrix" values="0 0 0 0 0 0 0 0 0 0 0 0 0 0 0 0 0 0 127 0"/>
<feOffset dy="4"/>
<feGaussianBlur stdDeviation="2"/>
<feColorMatrix type="matrix" values="0 0 0 0 0 0 0 0 0 0 0 0 0 0 0 0 0 0 0.25 0"/>
<feBlend mode="normal" in2="BackgroundImageFix" result="effect1_dropShadow"/>
<feBlend mode="normal" in="SourceGraphic" in2="effect1_dropShadow" result="shape"/>
</filter>
</defs>
</svg>
