<svg width="235" height="51" viewBox="0 0 235 51" fill="none" xmlns="http://www.w3.org/2000/svg">
<path d="M0 25.5C0 11.4167 11.4167 0 25.5 0H209.5C223.583 0 235 11.4167 235 25.5V25.5C235 39.5833 223.583 51 209.5 51H25.5C11.4167 51 0 39.5833 0 25.5V25.5Z" fill="#B02334"/>
<path d="M34.9936 31L35.9538 28.1307H40.3288L41.2947 31H43.5447L39.4425 19.3636H36.8402L32.7436 31H34.9936ZM36.522 26.4375L38.0959 21.75H38.1868L39.7607 26.4375H36.522ZM47.9595 31.1534C49.4595 31.1534 50.1357 30.2614 50.4595 29.625H50.5845V31H52.6072V19.3636H50.5447V23.7159H50.4595C50.147 23.0852 49.505 22.1591 47.9652 22.1591C45.9482 22.1591 44.3629 23.7386 44.3629 26.6477C44.3629 29.5227 45.9027 31.1534 47.9595 31.1534ZM48.5334 29.4659C47.1754 29.4659 46.4595 28.2727 46.4595 26.6364C46.4595 25.0114 47.1641 23.8466 48.5334 23.8466C49.8572 23.8466 50.5845 24.9432 50.5845 26.6364C50.5845 28.3295 49.8459 29.4659 48.5334 29.4659ZM54.799 31H56.8558V22.2727H54.799V31ZM55.8331 21.0341C56.4865 21.0341 57.0206 20.5341 57.0206 19.9205C57.0206 19.3011 56.4865 18.8011 55.8331 18.8011C55.174 18.8011 54.6399 19.3011 54.6399 19.9205C54.6399 20.5341 55.174 21.0341 55.8331 21.0341ZM62.7777 31.1705C64.9709 31.1705 66.3686 29.8693 66.5163 28.017H64.5504C64.3743 28.9545 63.6982 29.4943 62.7947 29.4943C61.5107 29.4943 60.6811 28.4205 60.6811 26.6364C60.6811 24.875 61.5277 23.8182 62.7947 23.8182C63.7834 23.8182 64.3913 24.4545 64.5504 25.2955H66.5163C66.3743 23.4034 64.897 22.1591 62.7663 22.1591C60.2095 22.1591 58.5959 24.0057 58.5959 26.6705C58.5959 29.3125 60.1697 31.1705 62.7777 31.1705ZM68.2053 31H70.2621V22.2727H68.2053V31ZM69.2393 21.0341C69.8928 21.0341 70.4268 20.5341 70.4268 19.9205C70.4268 19.3011 69.8928 18.8011 69.2393 18.8011C68.5803 18.8011 68.0462 19.3011 68.0462 19.9205C68.0462 20.5341 68.5803 21.0341 69.2393 21.0341ZM76.1839 31.1705C78.7408 31.1705 80.3658 29.3693 80.3658 26.6705C80.3658 23.9659 78.7408 22.1591 76.1839 22.1591C73.6271 22.1591 72.0021 23.9659 72.0021 26.6705C72.0021 29.3693 73.6271 31.1705 76.1839 31.1705ZM76.1953 29.5227C74.7805 29.5227 74.0874 28.2614 74.0874 26.6648C74.0874 25.0682 74.7805 23.7898 76.1953 23.7898C77.5874 23.7898 78.2805 25.0682 78.2805 26.6648C78.2805 28.2614 77.5874 29.5227 76.1953 29.5227ZM84.1683 25.8864C84.1683 24.625 84.9297 23.8977 86.0149 23.8977C87.0774 23.8977 87.7138 24.5966 87.7138 25.7614V31H89.7706V25.4432C89.7763 23.3523 88.5831 22.1591 86.782 22.1591C85.4751 22.1591 84.5774 22.7841 84.1797 23.7557H84.0774V22.2727H82.1115V31H84.1683V25.8864ZM94.3729 31.1761C95.7422 31.1761 96.5604 30.5341 96.9354 29.8011H97.0036V31H98.9808V25.1591C98.9808 22.8523 97.1001 22.1591 95.4354 22.1591C93.6001 22.1591 92.1911 22.9773 91.7365 24.5682L93.657 24.8409C93.8615 24.2443 94.4411 23.733 95.4467 23.733C96.4013 23.733 96.924 24.2216 96.924 25.0795V25.1136C96.924 25.7045 96.3047 25.733 94.7649 25.8977C93.0717 26.0795 91.4524 26.5852 91.4524 28.5511C91.4524 30.267 92.7081 31.1761 94.3729 31.1761ZM94.907 29.6648C94.049 29.6648 93.4354 29.2727 93.4354 28.517C93.4354 27.7273 94.1229 27.3977 95.0433 27.267C95.5831 27.1932 96.6626 27.0568 96.9297 26.8409V27.8693C96.9297 28.8409 96.1456 29.6648 94.907 29.6648ZM101.049 31H103.106V25.8693C103.106 24.7614 103.941 23.9773 105.072 23.9773C105.418 23.9773 105.85 24.0398 106.026 24.0966V22.2045C105.839 22.1705 105.515 22.1477 105.288 22.1477C104.288 22.1477 103.452 22.7159 103.134 23.7273H103.043V22.2727H101.049V31ZM121.015 19.3636H118.918V27.2955H118.816L113.339 19.3636H111.452V31H113.56V23.0739H113.657L119.14 31H121.015V19.3636ZM127.028 31.1705C129.585 31.1705 131.21 29.3693 131.21 26.6705C131.21 23.9659 129.585 22.1591 127.028 22.1591C124.471 22.1591 122.846 23.9659 122.846 26.6705C122.846 29.3693 124.471 31.1705 127.028 31.1705ZM127.039 29.5227C125.624 29.5227 124.931 28.2614 124.931 26.6648C124.931 25.0682 125.624 23.7898 127.039 23.7898C128.431 23.7898 129.124 25.0682 129.124 26.6648C129.124 28.2614 128.431 29.5227 127.039 29.5227ZM140.454 22.2727H138.266L136.255 28.7557H136.164L134.158 22.2727H131.965L135.073 31H137.346L140.454 22.2727ZM145.387 31.1705C147.944 31.1705 149.569 29.3693 149.569 26.6705C149.569 23.9659 147.944 22.1591 145.387 22.1591C142.83 22.1591 141.205 23.9659 141.205 26.6705C141.205 29.3693 142.83 31.1705 145.387 31.1705ZM145.398 29.5227C143.984 29.5227 143.29 28.2614 143.29 26.6648C143.29 25.0682 143.984 23.7898 145.398 23.7898C146.79 23.7898 147.484 25.0682 147.484 26.6648C147.484 28.2614 146.79 29.5227 145.398 29.5227ZM155.374 31H160.085C162.749 31 164.056 29.642 164.056 27.8295C164.056 26.0682 162.806 25.0341 161.567 24.9716V24.858C162.704 24.5909 163.602 23.7955 163.602 22.3807C163.602 20.6477 162.352 19.3636 159.829 19.3636H155.374V31ZM157.482 29.2386V25.8295H159.806C161.107 25.8295 161.914 26.625 161.914 27.6648C161.914 28.5909 161.278 29.2386 159.749 29.2386H157.482ZM157.482 24.3125V21.1023H159.613C160.852 21.1023 161.494 21.7557 161.494 22.6534C161.494 23.6761 160.664 24.3125 159.567 24.3125H157.482ZM168.31 31.1761C169.68 31.1761 170.498 30.5341 170.873 29.8011H170.941V31H172.918V25.1591C172.918 22.8523 171.038 22.1591 169.373 22.1591C167.538 22.1591 166.129 22.9773 165.674 24.5682L167.594 24.8409C167.799 24.2443 168.379 23.733 169.384 23.733C170.339 23.733 170.862 24.2216 170.862 25.0795V25.1136C170.862 25.7045 170.242 25.733 168.702 25.8977C167.009 26.0795 165.39 26.5852 165.39 28.5511C165.39 30.267 166.646 31.1761 168.31 31.1761ZM168.844 29.6648C167.987 29.6648 167.373 29.2727 167.373 28.517C167.373 27.7273 168.06 27.3977 168.981 27.267C169.521 27.1932 170.6 27.0568 170.867 26.8409V27.8693C170.867 28.8409 170.083 29.6648 168.844 29.6648ZM177.043 25.8864C177.043 24.625 177.805 23.8977 178.89 23.8977C179.952 23.8977 180.589 24.5966 180.589 25.7614V31H182.646V25.4432C182.651 23.3523 181.458 22.1591 179.657 22.1591C178.35 22.1591 177.452 22.7841 177.055 23.7557H176.952V22.2727H174.987V31H177.043V25.8864ZM188.543 31.1705C190.737 31.1705 192.134 29.8693 192.282 28.017H190.316C190.14 28.9545 189.464 29.4943 188.56 29.4943C187.276 29.4943 186.447 28.4205 186.447 26.6364C186.447 24.875 187.293 23.8182 188.56 23.8182C189.549 23.8182 190.157 24.4545 190.316 25.2955H192.282C192.14 23.4034 190.663 22.1591 188.532 22.1591C185.975 22.1591 184.362 24.0057 184.362 26.6705C184.362 29.3125 185.935 31.1705 188.543 31.1705ZM197.778 31.1705C200.335 31.1705 201.96 29.3693 201.96 26.6705C201.96 23.9659 200.335 22.1591 197.778 22.1591C195.221 22.1591 193.596 23.9659 193.596 26.6705C193.596 29.3693 195.221 31.1705 197.778 31.1705ZM197.789 29.5227C196.374 29.5227 195.681 28.2614 195.681 26.6648C195.681 25.0682 196.374 23.7898 197.789 23.7898C199.181 23.7898 199.874 25.0682 199.874 26.6648C199.874 28.2614 199.181 29.5227 197.789 29.5227Z" fill="white"/>
</svg>
